<?xml version="1.0" encoding="UTF-8"?>
<svg version="1.1" xmlns="http://www.w3.org/2000/svg" width="512" height="512">
<path d="M0 0 C4.07173819 3.74422882 6.85989919 7.13394346 7.1386652 12.83668804 C7.14511775 13.99906899 7.1515703 15.16144995 7.15821838 16.35905457 C7.16315636 17.00681911 7.16809434 17.65458366 7.17318195 18.32197744 C7.18856048 20.49614317 7.1969185 22.67027936 7.20532227 24.84448242 C7.21490051 26.40155803 7.22491056 27.95863103 7.23532104 29.51570129 C7.26238196 33.74677703 7.2833851 37.97786393 7.30332303 42.20897841 C7.32517525 46.62927399 7.35256768 51.04953509 7.37937927 55.46980286 C7.42931649 63.84201877 7.47425151 72.2142538 7.51740164 80.58650714 C7.56676522 90.11725245 7.62168661 99.64796318 7.67708123 109.17867506 C7.79091707 128.78575116 7.89775263 148.39286027 8 168 C8.54406368 167.76866175 9.08812737 167.53732349 9.64867783 167.29897499 C12.13962809 166.24112864 14.63181123 165.18621732 17.12402344 164.13134766 C18.40773331 163.5854171 18.40773331 163.5854171 19.71737671 163.02845764 C25.80512264 160.4550962 31.88196903 158.16480489 38.25 156.375 C39.22976807 156.0955957 40.20953613 155.81619141 41.21899414 155.52832031 C68.60260414 148.0014953 96.71138116 144.47760008 125 142.8125 C125.72304321 142.76943726 126.44608643 142.72637451 127.19104004 142.68200684 C143.53801436 141.73269545 159.77897554 141.83482844 176.125 142.75 C176.89358337 142.79256927 177.66216675 142.83513855 178.45404053 142.8789978 C224.33882437 145.49228543 288.83714346 150.54819392 322.5 186.5625 C330.63893905 196.24123833 331.72596292 205.69684373 331.18359375 218.00048828 C330.66043429 223.69819569 328.08820465 227.67342672 324.5390625 232 C321.08431637 236.80211624 320.24459869 242.17242852 319.0625 247.875 C315.34819736 264.39993003 310.05782828 279.10826656 302 294 C301.13375 295.60681641 301.13375 295.60681641 300.25 297.24609375 C294.37642018 307.70160968 287.17743302 316.96051372 279.0546875 325.7578125 C277.28310243 327.69106313 275.60217659 329.66289334 273.9375 331.6875 C269.89817323 336.44894105 265.18907 340.54062 260 344 C261.59399523 349.66651483 264.32703876 354.46406131 267.1875 359.5625 C272.11624027 368.46329631 276.85494741 377.4492785 281.5 386.5 C286.34739904 395.93641121 291.30379583 405.29944526 296.42822266 414.58911133 C301.3688447 423.58721301 306.06542475 432.70860468 310.75 441.84179688 C314.00923606 448.18743071 317.32650124 454.47977581 320.84033203 460.6887207 C323.62209896 466.23292859 323.98062325 472.40831965 322.3515625 478.375 C319.80182984 484.82560571 315.90165706 489.12022814 309.640625 492.13671875 C303.55092972 494.12758067 296.42670633 494.0506835 290.5625 491.375 C283.29557344 487.5708371 279.94103787 479.4604474 276.4375 472.5 C275.37161549 470.41833596 274.30386137 468.33762832 273.234375 466.2578125 C272.69490234 465.20754883 272.15542969 464.15728516 271.59960938 463.07519531 C269.20278375 458.46737852 266.69800738 453.92156819 264.1875 449.375 C259.480526 440.82281549 254.96175632 432.18159571 250.5 423.5 C244.62385692 412.06704715 238.55186504 400.75477043 232.36230469 389.48828125 C230.13547603 385.42092683 227.9348953 381.34001209 225.75 377.25 C225.36666504 376.54004883 224.98333008 375.83009766 224.58837891 375.09863281 C222 370.23252901 222 370.23252901 222 368 C220.86046875 368.44730469 219.7209375 368.89460938 218.546875 369.35546875 C202.69243082 375.4550234 186.12904815 381.10298244 169 381 C169.00888245 382.02428604 169.01776489 383.04857208 169.0269165 384.10389709 C169.10810282 393.77016101 169.16801361 403.43635548 169.20724869 413.10288334 C169.22809821 418.07223312 169.25636774 423.04130702 169.30175781 428.01049805 C169.34530952 432.80861042 169.36915693 437.60645791 169.37950897 442.40475273 C169.38688361 444.23275355 169.40128466 446.06074035 169.42292023 447.88862801 C169.45207856 450.45479462 169.45595088 453.01987526 169.45410156 455.58618164 C169.46848267 456.33712601 169.48286377 457.08807037 169.49768066 457.86177063 C169.4552421 463.3260856 168.08693623 466.47832824 165 471 C160.01277637 475.62230483 156.09353015 476.30677369 149.5 476.2109375 C144.38636621 475.77947465 141.72581438 473.75880594 138.25 470.125 C134.38998691 464.76387071 133.70961328 460.5099162 133.77294922 453.99682617 C133.77265717 453.20605682 133.77236511 452.41528748 133.77206421 451.60055542 C133.7734528 448.99791325 133.78899171 446.39556065 133.8046875 443.79296875 C133.80841931 441.9840765 133.81126549 440.17518223 133.81326294 438.36628723 C133.8208862 433.61351913 133.84052346 428.86087395 133.8626709 424.1081543 C133.88315749 419.25506249 133.89227067 414.40195075 133.90234375 409.54882812 C133.92377058 400.03249818 133.95789076 390.51625933 134 381 C133.12305984 380.93918747 132.24611969 380.87837494 131.34260559 380.8157196 C129.60450874 380.68977165 129.60450874 380.68977165 127.83129883 380.5612793 C126.1137011 380.439123 126.1137011 380.439123 124.36140442 380.3144989 C119.68890399 379.87733155 115.23443563 378.94470597 110.6875 377.8125 C109.79957764 377.59762939 108.91165527 377.38275879 107.99682617 377.16137695 C100.7648656 375.34285168 93.86501099 372.92684984 86.95703125 370.13671875 C84.21686202 368.88039539 84.21686202 368.88039539 82 369 C81.6690332 369.64211426 81.33806641 370.28422852 80.99707031 370.94580078 C75.17126726 382.23454716 69.32277286 393.50085936 63.1875 404.625 C58.296209 413.50257819 53.6255004 422.48231162 49 431.5 C43.35894427 442.49656439 37.59528827 453.40856069 31.609375 464.22265625 C29.93048262 467.26427804 28.31455513 470.32382941 26.765625 473.43359375 C22.78659266 481.38317032 18.93737704 488.17589046 10.59375 492.14453125 C4.78479365 494.06043703 -1.70342317 493.95079789 -7.3125 491.4375 C-12.57318181 488.4020758 -16.70184006 483.62228413 -19 478 C-20.84246936 467.67008981 -17.26611294 460.25681503 -12.39550781 451.54296875 C-10.19180157 447.52725772 -8.12736719 443.44121208 -6.03979492 439.36425781 C-0.71664066 428.9866121 4.76096842 418.70426729 10.38964844 408.48974609 C14.89189125 400.28213073 19.18158415 391.96909018 23.45388794 383.64044189 C28.26717774 374.2597369 33.21997587 364.96729748 38.40820312 355.78710938 C38.86904297 354.96017578 39.32988281 354.13324219 39.8046875 353.28125 C40.40772705 352.21487305 40.40772705 352.21487305 41.02294922 351.12695312 C42.14568934 348.6828472 42.79440796 346.68917636 43 344 C41.94033198 342.22296933 41.94033198 342.22296933 40.16796875 340.8359375 C39.53914795 340.27712891 38.91032715 339.71832031 38.26245117 339.14257812 C37.57771729 338.55927734 36.8929834 337.97597656 36.1875 337.375 C34.78878955 336.12560936 33.39296405 334.87298169 32 333.6171875 C31.31292969 333.00198242 30.62585938 332.38677734 29.91796875 331.75292969 C21.2963193 323.87316351 14.5746478 314.58219945 8 305 C7.98541748 305.63502441 7.97083496 306.27004883 7.95581055 306.92431641 C7.88094911 309.82513081 7.78441574 312.72484206 7.6875 315.625 C7.65366211 317.12353516 7.65366211 317.12353516 7.61914062 318.65234375 C7.35700501 325.84915794 6.51780256 330.53814861 1.1875 335.75 C-4.72839641 339.92592688 -9.76946844 340.31356368 -16.75 339.875 C-17.58055908 339.82496826 -18.41111816 339.77493652 -19.2668457 339.72338867 C-52.33016386 337.31190269 -81.18536038 321.57220144 -103 297 C-110.64059525 287.90904736 -116.14168796 277.78843467 -121 267 C-121.48339844 265.94425781 -121.96679688 264.88851563 -122.46484375 263.80078125 C-126.92248878 253.21895521 -130.22710897 240.56098837 -130 229 C-130.83136475 229.01571045 -131.66272949 229.0314209 -132.51928711 229.04760742 C-135.64475136 229.09915833 -138.76999675 229.13655355 -141.89575195 229.16479492 C-143.89744576 229.18705458 -145.89894275 229.22520146 -147.90039062 229.26367188 C-158.09370258 229.34069942 -167.38552347 228.40612021 -175 221 C-179.6443134 214.85169911 -181.14920519 209.88278046 -181.19287109 202.19897461 C-181.20104858 201.4050531 -181.20922607 200.61113159 -181.21765137 199.79315186 C-181.24248176 197.16289008 -181.25901964 194.53268238 -181.2734375 191.90234375 C-181.28142302 190.55163882 -181.28142302 190.55163882 -181.28956985 189.17364693 C-181.31629736 184.40296404 -181.33566937 179.63230722 -181.35009766 174.86157227 C-181.36341014 170.92448556 -181.39121335 166.98792043 -181.43212891 163.05102539 C-181.48162306 158.28829635 -181.50623981 153.52603864 -181.51332474 148.76306343 C-181.52001103 146.95427875 -181.53516424 145.1455035 -181.55921555 143.33686638 C-181.79588125 124.45518645 -181.79588125 124.45518645 -176 117 C-167.82680922 109.00869251 -159.04654541 107.65210026 -147.90039062 107.73632812 C-146.59263672 107.76146484 -145.28488281 107.78660156 -143.9375 107.8125 C-142.58139514 107.82758044 -141.22527398 107.84126288 -139.86914062 107.85351562 C-136.57900398 107.88864164 -133.28971817 107.9378336 -130 108 C-129.95246582 107.24106445 -129.90493164 106.48212891 -129.85595703 105.70019531 C-129.3903443 99.18569252 -128.59750793 93.04879437 -126.875 86.75 C-126.65690674 85.94353027 -126.43881348 85.13706055 -126.21411133 84.30615234 C-117.53203391 53.5793841 -96.57205546 27.31437058 -68.74511719 11.73779297 C-51.92584387 2.7180941 -18.32026502 -11.04604215 0 0 Z M-162 129 C-163.49335524 131.98671049 -163.15207652 134.71659397 -163.17700195 138.04833984 C-163.18357315 138.77372452 -163.19014435 139.49910919 -163.19691467 140.24647522 C-163.21665481 142.65129698 -163.22831101 145.05605632 -163.23828125 147.4609375 C-163.24235678 148.28155293 -163.2464323 149.10216835 -163.25063133 149.94765091 C-163.27149386 154.28996785 -163.28579549 158.63225315 -163.29516602 162.97460938 C-163.30623863 167.46287672 -163.34064741 171.95064939 -163.38033772 176.43874168 C-163.4064619 179.88740979 -163.41485402 183.3359592 -163.41844749 186.78471756 C-163.42332337 188.4393511 -163.4349658 190.093979 -163.45348549 191.74851608 C-163.47779171 194.06370204 -163.47692838 196.37759705 -163.4699707 198.69287109 C-163.47583694 200.01032318 -163.48170319 201.32777527 -163.48774719 202.68515015 C-162.92122923 206.53534555 -162.04279918 207.66841101 -159 210 C-150.34873163 214.32563419 -139.67241209 211 -130 211 C-130 182.95 -130 154.9 -130 126 C-154.11310715 123.6847691 -154.11310715 123.6847691 -162 129 Z " fill="#BF3A2B" transform="translate(181,15)"/>
<path d="M0 0 C4.22023843 3.88078447 6.8803095 7.26839267 7.1386652 13.16465282 C7.14511775 14.481895 7.1515703 15.79913717 7.15821838 17.15629578 C7.16315636 17.88981492 7.16809434 18.62333407 7.17318195 19.37908107 C7.18857233 21.84345734 7.19692173 24.30780752 7.20532227 26.7722168 C7.21489958 28.53618602 7.22490957 30.30015294 7.23532104 32.06411743 C7.26239206 36.85922669 7.28338974 41.65434582 7.30332303 46.44948936 C7.32516903 51.45835407 7.35256449 56.46718831 7.37937927 61.47602844 C7.42932492 70.96384951 7.47425681 80.45168748 7.51740164 89.93954164 C7.56675801 100.73990951 7.62168207 111.54024681 7.67708123 122.34058511 C7.79093002 144.56036159 7.89776275 166.78016726 8 189 C8.67768936 188.58939835 9.35537872 188.17879669 10.05360413 187.75575256 C10.94736252 187.21639572 11.84112091 186.67703888 12.76196289 186.12133789 C14.08787193 185.31981041 14.08787193 185.31981041 15.44056702 184.50209045 C26.55105765 177.98152046 38.47747029 174.50473187 50.91162109 171.515625 C53.67133525 170.83424596 56.39583016 170.04394032 59.125 169.25 C63.74358748 167.97067295 68.22639616 167.391279 73 167 C72.44755197 173.43666195 71.25662922 179.20814318 69.375 185.375 C66.88466033 193.79163068 64.60818777 202.24546631 62.4375 210.75 C59.04787601 223.97083226 55.45852736 237.0937366 51 250 C44.85802862 249.4543579 39.62662497 248.06223767 33.875 245.875 C32.64245483 245.41347534 32.64245483 245.41347534 31.38500977 244.94262695 C12.84784554 237.84784554 12.84784554 237.84784554 8 233 C7.99413376 234.16431549 7.98826752 235.32863098 7.98222351 236.52822876 C7.92499236 247.50473954 7.85222847 258.48105228 7.76428509 269.45736122 C7.71957168 275.10030309 7.68031751 280.7431726 7.65356445 286.38623047 C7.62754143 291.83284648 7.58714567 297.27918418 7.53681374 302.7256279 C7.52013834 304.80278434 7.50862826 306.87998892 7.50238609 308.95720291 C7.49275251 311.86841203 7.46470153 314.77890802 7.43237305 317.68994141 C7.43380814 318.54733917 7.43524323 319.40473694 7.4367218 320.28811646 C7.33389451 326.84230347 6.00898483 331.03565928 1.1875 335.75 C-4.72839641 339.92592688 -9.76946844 340.31356368 -16.75 339.875 C-17.58055908 339.82496826 -18.41111816 339.77493652 -19.2668457 339.72338867 C-52.33016386 337.31190269 -81.18536038 321.57220144 -103 297 C-110.64059525 287.90904736 -116.14168796 277.78843467 -121 267 C-121.48339844 265.94425781 -121.96679688 264.88851563 -122.46484375 263.80078125 C-126.92248878 253.21895521 -130.22710897 240.56098837 -130 229 C-130.83136475 229.01571045 -131.66272949 229.0314209 -132.51928711 229.04760742 C-135.64475136 229.09915833 -138.76999675 229.13655355 -141.89575195 229.16479492 C-143.89744576 229.18705458 -145.89894275 229.22520146 -147.90039062 229.26367188 C-158.09370258 229.34069942 -167.38552347 228.40612021 -175 221 C-179.6443134 214.85169911 -181.14920519 209.88278046 -181.19287109 202.19897461 C-181.20104858 201.4050531 -181.20922607 200.61113159 -181.21765137 199.79315186 C-181.24248176 197.16289008 -181.25901964 194.53268238 -181.2734375 191.90234375 C-181.28142302 190.55163882 -181.28142302 190.55163882 -181.28956985 189.17364693 C-181.31629736 184.40296404 -181.33566937 179.63230722 -181.35009766 174.86157227 C-181.36341014 170.92448556 -181.39121335 166.98792043 -181.43212891 163.05102539 C-181.48162306 158.28829635 -181.50623981 153.52603864 -181.51332474 148.76306343 C-181.52001103 146.95427875 -181.53516424 145.1455035 -181.55921555 143.33686638 C-181.79588125 124.45518645 -181.79588125 124.45518645 -176 117 C-167.82680922 109.00869251 -159.04654541 107.65210026 -147.90039062 107.73632812 C-146.59263672 107.76146484 -145.28488281 107.78660156 -143.9375 107.8125 C-142.58139514 107.82758044 -141.22527398 107.84126288 -139.86914062 107.85351562 C-136.57900398 107.88864164 -133.28971817 107.9378336 -130 108 C-129.95246582 107.24106445 -129.90493164 106.48212891 -129.85595703 105.70019531 C-129.3903443 99.18569252 -128.59750793 93.04879437 -126.875 86.75 C-126.65690674 85.94353027 -126.43881348 85.13706055 -126.21411133 84.30615234 C-117.53203391 53.5793841 -96.57205546 27.31437058 -68.74511719 11.73779297 C-51.92584387 2.7180941 -18.32026502 -11.04604215 0 0 Z M-162 129 C-163.49335524 131.98671049 -163.15207652 134.71659397 -163.17700195 138.04833984 C-163.18357315 138.77372452 -163.19014435 139.49910919 -163.19691467 140.24647522 C-163.21665481 142.65129698 -163.22831101 145.05605632 -163.23828125 147.4609375 C-163.24235678 148.28155293 -163.2464323 149.10216835 -163.25063133 149.94765091 C-163.27149386 154.28996785 -163.28579549 158.63225315 -163.29516602 162.97460938 C-163.30623863 167.46287672 -163.34064741 171.95064939 -163.38033772 176.43874168 C-163.4064619 179.88740979 -163.41485402 183.3359592 -163.41844749 186.78471756 C-163.42332337 188.4393511 -163.4349658 190.093979 -163.45348549 191.74851608 C-163.47779171 194.06370204 -163.47692838 196.37759705 -163.4699707 198.69287109 C-163.47583694 200.01032318 -163.48170319 201.32777527 -163.48774719 202.68515015 C-162.92122923 206.53534555 -162.04279918 207.66841101 -159 210 C-150.34873163 214.32563419 -139.67241209 211 -130 211 C-130 182.95 -130 154.9 -130 126 C-154.11310715 123.6847691 -154.11310715 123.6847691 -162 129 Z " fill="#E54C3C" transform="translate(181,15)"/>
<path d="M0 0 C1.15287506 0.06385391 1.15287506 0.06385391 2.32904053 0.1289978 C48.21382437 2.74228543 112.71214346 7.79819392 146.375 43.8125 C154.51393905 53.49123833 155.60096292 62.94684373 155.05859375 75.25048828 C154.67079379 79.47400117 153.1375003 82.72889026 150.875 86.25 C150.54757812 86.83523437 150.22015625 87.42046875 149.8828125 88.0234375 C140.44651774 103.24548963 120.93034598 111.1540995 104.875 117.25 C103.68777344 117.7140625 102.50054687 118.178125 101.27734375 118.65625 C92.30698043 122.03429727 83.23201513 124.27302659 73.875 126.25 C73.07755371 126.41886719 72.28010742 126.58773437 71.45849609 126.76171875 C66.40666878 127.82086048 61.34653478 128.82806343 56.27587891 129.79296875 C54.76689351 130.08021917 53.25863043 130.37131808 51.75146484 130.66796875 C46.4806264 131.69692199 41.19472881 132.51710661 35.875 133.25 C34.41247803 133.45737793 34.41247803 133.45737793 32.92041016 133.66894531 C-31.62917089 142.35925511 -109.76131489 139.93184255 -169.125 110.25 C-169.125 103.32 -169.125 96.39 -169.125 89.25 C-166.485 90.9 -163.845 92.55 -161.125 94.25 C-158.21044222 95.74565584 -155.21361618 96.99672487 -152.1875 98.25 C-151.37498779 98.5903125 -150.56247559 98.930625 -149.7253418 99.28125 C-141.69917292 102.56288172 -133.49595223 105.02060427 -125.125 107.25 C-124.96644531 106.52039063 -124.80789062 105.79078125 -124.64453125 105.0390625 C-122.66478218 96.17941196 -120.28123602 87.47037569 -117.82080078 78.73486328 C-116.61035707 74.41209273 -115.42985382 70.0812028 -114.25 65.75 C-114.00507813 64.85112061 -113.76015625 63.95224121 -113.5078125 63.02612305 C-111.43160956 55.3954118 -109.36999922 47.76077329 -107.3125 40.125 C-106.85931396 38.44374023 -106.85931396 38.44374023 -106.39697266 36.72851562 C-106.11515137 35.68115234 -105.83333008 34.63378906 -105.54296875 33.5546875 C-105.29313232 32.62640137 -105.0432959 31.69811523 -104.78588867 30.74169922 C-104.21307256 28.58205339 -103.65986736 26.41930775 -103.125 24.25 C-104.04796875 24.48074219 -104.9709375 24.71148437 -105.921875 24.94921875 C-106.85012085 25.1810083 -106.85012085 25.1810083 -107.79711914 25.41748047 C-109.20810775 25.77060064 -110.61874122 26.12514229 -112.02905273 26.48095703 C-116.04999896 27.49302308 -120.07498291 28.47734935 -124.11328125 29.41796875 C-139.60883918 33.07093102 -153.24906363 38.41646205 -167.125 46.25 C-168.115 46.745 -168.115 46.745 -169.125 47.25 C-169.125 40.32 -169.125 33.39 -169.125 26.25 C-120.41220433 -0.81266426 -54.53360111 -3.05319505 0 0 Z " fill="#BBC1C5" transform="translate(357.125,157.75)"/>
<path d="M0 0 C6.24322296 5.0852058 9.98217168 13.42807747 13.921875 20.34765625 C14.43105469 21.23976807 14.94023437 22.13187988 15.46484375 23.05102539 C20.26808016 31.55191065 24.75140654 40.20986618 29.21118164 48.89453125 C32.83050752 55.93528608 36.53514532 62.91623996 40.359375 69.84765625 C45.36396857 78.92773117 50.14545726 88.1140854 54.87878418 97.33724976 C59.61512352 106.56297215 64.47505594 115.70997068 69.56640625 124.74609375 C79.68135364 142.9240992 79.68135364 142.9240992 76.76171875 153.32421875 C74.26149434 159.79666116 70.31732798 164.09587344 64.0625 167.109375 C57.97280472 169.10023692 50.84858133 169.02333975 44.984375 166.34765625 C37.71744844 162.54349335 34.36291287 154.43310365 30.859375 147.47265625 C29.79349049 145.39099221 28.72573637 143.31028457 27.65625 141.23046875 C26.84704102 139.65507324 26.84704102 139.65507324 26.02148438 138.04785156 C23.62465875 133.44003477 21.11988238 128.89422444 18.609375 124.34765625 C13.90240161 115.79547284 9.38360297 107.15426574 4.921875 98.47265625 C0.41749722 89.70843058 -4.14678308 80.98560453 -8.890625 72.34765625 C-9.37700439 71.46094238 -9.86338379 70.57422852 -10.36450195 69.66064453 C-11.0773938 68.36102783 -11.0773938 68.36102783 -11.8046875 67.03515625 C-18.05787035 55.63408522 -24.16087772 44.17711224 -29.703125 32.41015625 C-30.09395264 31.61335449 -30.48478027 30.81655273 -30.88745117 29.99560547 C-33.88901323 23.4545621 -34.84523554 17.23697055 -32.765625 10.23828125 C-25.13811183 -2.70841873 -13.6118705 -6.37199978 0 0 Z " fill="#95A4A4" transform="translate(426.578125,340.02734375)"/>
<path d="M0 0 C4.96702439 2.80657069 9.25882565 7.39265129 11.8125 12.5 C12.93229256 22.96112396 10.91581254 30.31802052 6.0625 39.5 C5.47122314 40.67079102 4.87994629 41.84158203 4.27075195 43.04785156 C0.20252035 51.07757353 -4.08502114 58.99951424 -8.45410156 66.86914062 C-12.86932233 74.82743979 -17.03777293 82.90141784 -21.1875 91 C-26.21543173 100.80573671 -31.32451001 110.54900078 -36.67089844 120.1862793 C-39.54759286 125.40065313 -42.30323157 130.66190596 -44.98046875 135.98046875 C-45.64374773 137.29087873 -46.3070779 138.6012628 -46.97045898 139.91162109 C-48.24950976 142.43987407 -49.5104732 144.97608263 -50.76196289 147.51806641 C-54.96288113 155.83256332 -59.43134459 163.53862021 -67.5 168.5625 C-74.77719156 170.41263345 -81.75247633 170.6768309 -88.40234375 166.83984375 C-93.40903525 163.08208623 -97.54927325 158.0782549 -98.6640625 151.828125 C-99.11921976 142.38960071 -96.03821365 136.01363725 -91.58300781 128.04296875 C-89.37930157 124.02725772 -87.31486719 119.94121208 -85.22729492 115.86425781 C-79.90414066 105.4866121 -74.42653158 95.20426729 -68.79785156 84.98974609 C-64.63059352 77.39280996 -60.6481147 69.70574452 -56.6875 62 C-28.72144742 7.61771579 -28.72144742 7.61771579 -21.125 2.1875 C-20.11759766 1.45080078 -20.11759766 1.45080078 -19.08984375 0.69921875 C-13.51048502 -2.817954 -5.92489403 -2.62685731 0 0 Z " fill="#95A4A4" transform="translate(260.1875,338.5)"/>
<path d="M0 0 C9.9 0 19.8 0 30 0 C34.81058521 46.64690408 34.81058521 46.64690408 37.04992676 69.68414307 C37.22329386 71.46081328 37.39846951 73.23730805 37.57556152 75.01361084 C37.8225017 77.49557789 38.06251623 79.97812454 38.30078125 82.4609375 C38.37240982 83.16738403 38.44403839 83.87383057 38.51783752 84.60168457 C39.06872794 90.47473443 39 96.01693443 39 102 C22.83 102 6.66 102 -10 102 C-8.850586 84.75879007 -8.850586 84.75879007 -8.16796875 77.74145508 C-8.09140045 76.93614349 -8.01483215 76.13083191 -7.9359436 75.30111694 C-7.68867576 72.70703756 -7.43826236 70.11327497 -7.1875 67.51953125 C-7.01185955 65.68968175 -6.83632444 63.85982214 -6.66088867 62.029953 C-6.29591176 58.22872764 -5.92928662 54.42766575 -5.56152344 50.62670898 C-5.09055736 45.75712064 -4.62440967 40.88708424 -4.15953064 36.01691151 C-3.79963999 32.25324485 -3.43693216 28.48985371 -3.07339478 24.7265377 C-2.90021839 22.9296846 -2.72798913 21.13273995 -2.55673218 19.3357029 C-2.31807686 16.83524553 -2.07555666 14.33519218 -1.83203125 11.83520508 C-1.72757187 10.7279583 -1.72757187 10.7279583 -1.6210022 9.5983429 C-1.29399923 6.28080797 -0.81168277 3.24673107 0 0 Z " fill="#464F5D" transform="translate(318,175)"/>
<path d="M0 0 C-0.55244803 6.43666195 -1.74337078 12.20814318 -3.625 18.375 C-6.11533967 26.79163068 -8.39181223 35.24546631 -10.5625 43.75 C-13.95212399 56.97083226 -17.54147264 70.0937366 -22 83 C-28.14186015 82.45436778 -33.37355603 81.06253523 -39.125 78.875 C-39.94742188 78.5665918 -40.76984375 78.25818359 -41.6171875 77.94042969 C-61.68425216 70.25169024 -61.68425216 70.25169024 -66 65 C-66.42132568 63.08512878 -66.42132568 63.08512878 -66.48339844 60.89916992 C-66.51222107 60.07789108 -66.5410437 59.25661224 -66.57073975 58.41044617 C-66.58348938 57.52605362 -66.59623901 56.64166107 -66.609375 55.73046875 C-66.63502533 54.35983025 -66.63502533 54.35983025 -66.66119385 52.96150208 C-66.68953115 51.0274191 -66.70914095 49.09319155 -66.72070312 47.15893555 C-66.74980888 44.20688456 -66.84282118 41.26112343 -66.9375 38.31054688 C-67.17165907 24.64136543 -67.17165907 24.64136543 -64.18945312 20.46362305 C-61.83106633 18.85788624 -59.6961774 17.91046493 -57 17 C-55.80397286 16.36876345 -54.6154583 15.72293909 -53.4375 15.05859375 C-44.17637286 10.69113038 -34.8997809 7.58245416 -25 5 C-24.26974609 4.80776855 -23.53949219 4.61553711 -22.78710938 4.41748047 C-5.89388736 0 -5.89388736 0 0 0 Z " fill="#464F5D" transform="translate(254,182)"/>
<path d="M0 0 C-1.47246626 18.66428689 -3.24580395 37.29453785 -5.08666992 55.92529297 C-5.48892533 59.99761163 -5.88670002 64.07035528 -6.28343296 68.14321518 C-6.59277344 71.31238153 -6.90485092 74.48127388 -7.21772575 77.65009308 C-7.36578912 79.15387946 -7.51290411 80.65775955 -7.65902901 82.16173553 C-7.86170918 84.24451034 -8.06818447 86.32687535 -8.27563477 88.40917969 C-8.44978661 90.1792337 -8.44978661 90.1792337 -8.62745667 91.98504639 C-8.92768236 94.41474106 -9.32775699 96.65228137 -10 99 C-18.49639749 99.30201235 -26.55405673 98.38861664 -34.9375 97.0625 C-36.14212891 96.88009766 -37.34675781 96.69769531 -38.58789062 96.50976562 C-48.09671042 95.05135768 -48.09671042 95.05135768 -52 94 C-51.42678594 88.52397636 -50.42862285 83.41261763 -48.875 78.125 C-48.42199539 76.53939963 -47.97024967 74.95343925 -47.51953125 73.3671875 C-47.27541504 72.51092773 -47.03129883 71.65466797 -46.77978516 70.77246094 C-45.32801295 65.61080621 -43.94983815 60.42926872 -42.5625 55.25 C-41.96244353 53.01687227 -41.36218325 50.7837993 -40.76171875 48.55078125 C-40.46700684 47.45459473 -40.17229492 46.3584082 -39.86865234 45.22900391 C-33.5711556 21.81959077 -33.5711556 21.81959077 -30.1875 10.1875 C-29.98044434 9.46941162 -29.77338867 8.75132324 -29.56005859 8.01147461 C-28.11979464 3.11979464 -28.11979464 3.11979464 -27 2 C-24.16482521 1.59199691 -21.34648157 1.24345144 -18.5 0.9375 C-17.72140625 0.84662109 -16.9428125 0.75574219 -16.140625 0.66210938 C-15.36203125 0.57638672 -14.5834375 0.49066406 -13.78125 0.40234375 C-13.08064453 0.32491943 -12.38003906 0.24749512 -11.65820312 0.16772461 C-7.77241607 -0.07745685 -3.89214772 -0.03057438 0 0 Z " fill="#47505E" transform="translate(301,176)"/>
<path d="M0 0 C6.54737841 -0.15856416 12.61632812 0.38979817 19.0625 1.5 C19.92810547 1.64308594 20.79371094 1.78617188 21.68554688 1.93359375 C23.7914397 2.28263676 25.89588495 2.64039539 28 3 C28.30292969 4.24652344 28.60585938 5.49304688 28.91796875 6.77734375 C30.9150568 14.92123992 32.94069107 23.03702925 35.375 31.0625 C37.97707171 39.65215704 40.18030476 48.33687533 42.40258789 57.03125 C44.40763427 64.83372278 46.57144456 72.55977852 48.95703125 80.25390625 C50.22149623 84.79556138 51.1328834 89.36852886 52 94 C47.48489941 94.72192457 42.96833214 95.4335579 38.45019531 96.13623047 C36.91753858 96.37600982 35.38529705 96.6184606 33.85351562 96.86376953 C31.63518891 97.21852805 29.41548178 97.56323452 27.1953125 97.90625 C26.52509064 98.0156189 25.85486877 98.12498779 25.16433716 98.2376709 C19.76077464 99.05732954 14.45866666 99.1105082 9 99 C8.901996 97.96318588 8.803992 96.92637177 8.70301819 95.85813904 C7.77795278 86.07391579 6.85113066 76.28986032 5.92260075 66.50596523 C5.44532332 61.47630899 4.96865898 56.44659623 4.4934082 51.41674805 C4.03450604 46.56016959 3.57397716 41.70374786 3.1123333 36.84742928 C2.93673533 34.99719768 2.76171764 33.14691091 2.58729744 31.29656792 C2.34238069 28.69943403 2.09537744 26.10250624 1.84790039 23.50561523 C1.77668976 22.74532013 1.70547913 21.98502502 1.6321106 21.20169067 C1.20809234 16.77919989 0.63857859 12.39779471 0 8 C-0.10751986 5.3206052 -0.0470821 2.68367951 0 0 Z " fill="#47505E" transform="translate(365,176)"/>
<path d="M0 0 C11.55 0 23.1 0 35 0 C35.09047073 10.7009474 35.16381385 21.4016396 35.20724869 32.10288334 C35.22809821 37.07223312 35.25636774 42.04130702 35.30175781 47.01049805 C35.34530952 51.80861042 35.36915693 56.60645791 35.37950897 61.40475273 C35.38688361 63.23275355 35.40128466 65.06074035 35.42292023 66.88862801 C35.45207856 69.45479462 35.45595088 72.01987526 35.45410156 74.58618164 C35.47567322 75.71259819 35.47567322 75.71259819 35.49768066 76.86177063 C35.4552421 82.3260856 34.08693623 85.47832824 31 90 C26.01277637 94.62230483 22.09353015 95.30677369 15.5 95.2109375 C10.38636621 94.77947465 7.72581438 92.75880594 4.25 89.125 C0.38998691 83.76387071 -0.29038672 79.5099162 -0.22705078 72.99682617 C-0.22734283 72.20605682 -0.22763489 71.41528748 -0.22793579 70.60055542 C-0.2265472 67.99791325 -0.21100829 65.39556065 -0.1953125 62.79296875 C-0.19158069 60.9840765 -0.18873451 59.17518223 -0.18673706 57.36628723 C-0.1791138 52.61351913 -0.15947654 47.86087395 -0.1373291 43.1081543 C-0.11684251 38.25506249 -0.10772933 33.40195075 -0.09765625 28.54882812 C-0.0762294 19.03248949 -0.0410579 9.51627421 0 0 Z " fill="#7E8B8D" transform="translate(315,396)"/>
<path d="M0 0 C1.35610486 0.01508044 2.71222602 0.02876288 4.06835938 0.04101562 C7.35824778 0.07613899 10.64792769 0.12993781 13.9375 0.1875 C13.9375 6.1275 13.9375 12.0675 13.9375 18.1875 C12.03484375 18.23648438 10.1321875 18.28546875 8.171875 18.3359375 C5.67706858 18.41096927 3.18227763 18.48651692 0.6875 18.5625 C-1.19388672 18.60890625 -1.19388672 18.60890625 -3.11328125 18.65625 C-4.31855469 18.69492188 -5.52382813 18.73359375 -6.765625 18.7734375 C-7.87583008 18.8048584 -8.98603516 18.8362793 -10.12988281 18.86865234 C-12.9787781 19.17839737 -14.6855776 19.62212483 -17.0625 21.1875 C-18.55842461 24.17934921 -18.20635631 26.91462975 -18.22363281 30.25170898 C-18.22859772 30.97869995 -18.23356262 31.70569092 -18.23867798 32.45471191 C-18.25330674 34.86434874 -18.26010223 37.27391978 -18.265625 39.68359375 C-18.27137521 41.35506696 -18.27713296 43.02654015 -18.28289795 44.69801331 C-18.29340952 48.20435901 -18.29925138 51.71068177 -18.30273438 55.21704102 C-18.30822402 59.71428399 -18.33226126 64.21122493 -18.36070633 68.70837307 C-18.37931006 72.1612894 -18.38453706 75.61413258 -18.38607025 79.0670948 C-18.3891017 80.72532874 -18.39714674 82.38356124 -18.41025543 84.04174614 C-18.42727151 86.35936503 -18.42544712 88.67624083 -18.41894531 90.99389648 C-18.42259094 92.31356918 -18.42623657 93.63324188 -18.42999268 94.99290466 C-18.33669981 98.14556033 -18.33669981 98.14556033 -16.66522217 100.07460022 C-13.37147338 102.36171671 -10.94671953 102.3735302 -6.9609375 102.50390625 C-5.74921875 102.54580078 -4.5375 102.58769531 -3.2890625 102.63085938 C-2.01804688 102.67017578 -0.74703125 102.70949219 0.5625 102.75 C1.84125 102.79318359 3.12 102.83636719 4.4375 102.88085938 C7.60403082 102.9871981 10.77075079 103.0878767 13.9375 103.1875 C13.9375 109.1275 13.9375 115.0675 13.9375 121.1875 C9.97182015 121.25689297 6.00771436 121.31646219 2.04174805 121.35229492 C0.04005424 121.37455458 -1.96144275 121.41270146 -3.96289062 121.45117188 C-14.15620258 121.52819942 -23.44802347 120.59362021 -31.0625 113.1875 C-35.7068134 107.03919911 -37.21170519 102.07028046 -37.25537109 94.38647461 C-37.26354858 93.5925531 -37.27172607 92.79863159 -37.28015137 91.98065186 C-37.30498176 89.35039008 -37.32151964 86.72018238 -37.3359375 84.08984375 C-37.34392302 82.73913882 -37.34392302 82.73913882 -37.35206985 81.36114693 C-37.37879736 76.59046404 -37.39816937 71.81980722 -37.41259766 67.04907227 C-37.42591014 63.11198556 -37.45371335 59.17542043 -37.49462891 55.23852539 C-37.54412306 50.47579635 -37.56873981 45.71353864 -37.57582474 40.95056343 C-37.58251103 39.14177875 -37.59766424 37.3330035 -37.62171555 35.52436638 C-37.85838125 16.64268645 -37.85838125 16.64268645 -32.0625 9.1875 C-22.77125919 0.10302317 -12.48114577 -0.23990374 0 0 Z " fill="#95A5A5" transform="translate(37.0625,122.8125)"/>
<path d="M0 0 C2.43119623 1.87015094 3.64069173 3.28138345 5 6 C5.65890648 12.32550225 4.05911851 17.44528481 1 23 C-1.12133777 25.59889011 -3.46780581 27.80618365 -6 30 C-8.9614968 32.45757422 -8.9614968 32.45757422 -11 35 C-10.93455788 38.58741801 -10.2140749 39.78946353 -7.63671875 42.32421875 C-6.17685547 43.49404297 -6.17685547 43.49404297 -4.6875 44.6875 C1.32571225 49.95101306 4.12661967 54.4404177 5.36328125 62.3125 C5.80792599 69.63008197 2.90046312 75.38044273 -1.3125 81.1875 C-4.35962376 84.37635044 -7.58025801 87.22084369 -11 90 C-10.70030643 93.35539277 -10.25717312 94.73907937 -7.85546875 97.17578125 C-6.97503906 97.88089844 -6.09460938 98.58601563 -5.1875 99.3125 C1.13147984 104.71974132 4.6295004 110.40580494 5.3125 118.875 C5.25563967 121.96251601 4.9477566 123.0982176 3.4375 125.9375 C0.22755042 128.65361118 -1.82044153 129 -6 129 C-9.57387602 127.41161066 -10.81089572 126.28365642 -13 123 C-13.185625 121.9275 -13.37125 120.855 -13.5625 119.75 C-14.74646025 115.18602421 -18.05596117 113.51934809 -21.73828125 110.8984375 C-26.32489959 107.04852988 -29.57952879 100.81870573 -30.23828125 94.8359375 C-30.4736273 87.03235791 -28.46538773 81.57878864 -24.0625 75.1875 C-21.85445883 72.84563815 -19.62421695 70.8645752 -17 69 C-16.34 69 -15.68 69 -15 69 C-13.99852447 65.76152437 -13.99852447 65.76152437 -14 62 C-15.88970861 59.83193824 -17.44234437 58.38707384 -19.6875 56.6875 C-25.92851999 51.47583368 -29.06480532 46.91612289 -30.359375 38.7265625 C-30.74188019 32.67023031 -29.27721012 27.09533602 -26 22 C-23.50532845 19.56726512 -20.95848687 17.29720648 -18.29614258 15.05541992 C-14.35068166 11.63390351 -12.49688203 8.88357869 -11.52734375 3.77734375 C-10.04857277 -1.20666215 -4.21941782 -0.71457882 0 0 Z " fill="#A56942" transform="translate(388,4)"/>
<path d="M0 0 C3.78334113 2.93401965 3.78334113 2.93401965 5 6 C5.5996665 12.42499827 3.91920303 18.87414579 0 24 C-2.83846249 26.66259234 -5.71024841 29.15529289 -8.734375 31.60546875 C-11.15657505 33.78150485 -11.15657505 33.78150485 -11.65625 36.5 C-10.69793953 40.15070657 -8.65325197 41.46025789 -5.75 43.8125 C0.97975852 49.51151699 4.42592849 55.25928486 5.3125 64.125 C4.79925139 70.48928274 2.75685802 75.91951024 -1.375 80.8125 C-2.76441137 81.97034281 -4.16274787 83.12029191 -5.6171875 84.1953125 C-8.48772087 86.3791154 -9.88514842 87.6171614 -10.9375 91.125 C-11.16301643 94.07223697 -11.16301643 94.07223697 -10 97 C-8.68596724 97.70394612 -7.3479743 98.36345658 -6 99 C-0.26240329 102.67794661 3.04270443 108.06574871 4.640625 114.6328125 C5.18508305 118.59788744 5.29909851 121.2443827 3.8125 125 C1.83896742 127.17769112 0.83361464 128.21288482 -2 129 C-5.78712404 128.86474557 -8.18952379 128.56952383 -11.3125 126.375 C-13 124 -13 124 -13.625 120.8125 C-14.53574174 116.88544845 -16.77601824 115.22612434 -19.8125 112.6875 C-25.72743079 107.62000502 -29.22975707 102.84611176 -30.46875 95.05078125 C-30.84322563 87.73914462 -29.43292182 81.87619869 -25 76 C-22.1255761 73.2770714 -19.23967834 70.77807493 -16.1328125 68.32421875 C-13.7502298 66.21768555 -13.7502298 66.21768555 -13.84765625 63.50390625 C-15.38893785 60.1548842 -17.45594458 58.56551247 -20.3125 56.25 C-26.11781816 51.25364253 -29.32762761 46.98133952 -30.36328125 39.30859375 C-30.67690815 32.86580111 -29.80160735 27.30564132 -26 22 C-23.2432112 19.39590758 -20.38115379 16.95209825 -17.4921875 14.49609375 C-14.43776751 11.43688627 -13.53176062 8.95965364 -12.515625 4.8515625 C-12 3 -12 3 -10.3125 0.9375 C-6.81128919 -0.48190979 -3.65232513 -0.85894603 0 0 Z " fill="#A56942" transform="translate(337,4)"/>
<path d="M0 0 C3.36292184 1.90078191 4.68719287 3.08243242 5.9375 6.75 C6.08044733 14.18326094 3.65585547 20.29103436 -1 26 C-3.33810599 28.11449518 -5.71520529 30.1121085 -8.20703125 32.04296875 C-10.17830907 33.87823388 -10.17830907 33.87823388 -10.58984375 36.4375 C-9.72988659 40.17347283 -7.69493004 41.42648993 -4.75 43.8125 C1.32433351 48.99990747 4.56630128 53.46636901 5.9375 61.375 C6.42509095 68.63885499 4.38300991 74.77367235 -0.3125 80.3125 C-2.54197429 82.6795376 -4.83612243 84.68321342 -7.4375 86.625 C-10.24254147 88.75122354 -10.24254147 88.75122354 -10.5234375 91.80859375 C-9.81307423 96.13968919 -7.46635446 97.83937657 -4.1875 100.4375 C1.57992922 105.06367114 4.81165238 109.47406469 5.875 117.0625 C6.01378302 121.43416502 5.46854375 123.42486767 3 127 C0.35555365 129.17222379 -1.02987018 128.99893321 -4.5 128.875 C-8.45100784 127.88724804 -9.64785292 127.27620486 -12 124 C-12.556875 122.1746875 -12.556875 122.1746875 -13.125 120.3125 C-14.48044293 116.23102661 -16.68267583 114.25921405 -19.9375 111.5 C-25.61683487 106.61660111 -28.48435792 103.22526134 -29.40234375 95.703125 C-29.74252956 87.9701207 -29.11014542 81.99740144 -24 76 C-21.40790192 73.63347381 -18.78592155 71.38879466 -16.01171875 69.23828125 C-13.74318564 67.10820795 -13.74318564 67.10820795 -13.4453125 63.94140625 C-13.73070176 60.93661711 -13.73070176 60.93661711 -15.79296875 59.1640625 C-16.97826172 58.40222656 -16.97826172 58.40222656 -18.1875 57.625 C-23.69855307 53.71952932 -26.86723486 49.39829542 -29 43 C-29.64942542 35.21754127 -29.73859818 28.46733758 -25 22 C-22.46779596 19.13461122 -19.97943321 16.98519191 -16.875 14.75 C-13.55008205 11.5696437 -12.93797061 9.31951344 -11.6953125 5.02734375 C-11 3 -11 3 -9.25 0.9375 C-5.94470634 -0.43970569 -3.54487931 -0.43533606 0 0 Z " fill="#A56942" transform="translate(285,4)"/>
<path d="M0 0 C2.83948603 3.16399872 3.11234951 5.22907236 3.1875 9.4375 C2.625 11.6875 2.625 11.6875 1.1875 13.4375 C-2.80186004 15.64290599 -6.68104043 17.09302973 -11.0625 18.3125 C-31.0605963 24.35948948 -45.71608356 37.43652177 -55.8125 55.4375 C-61.45475274 66.58234576 -64.07500906 78.10464992 -64.30859375 90.5625 C-64.94342449 94.18448004 -66.24418294 95.84612803 -68.8125 98.4375 C-73.20091653 99.90030551 -75.05668851 99.79479271 -79.25 97.8125 C-82.08933249 95.0339019 -82.26778018 92.57665514 -82.375 88.6875 C-81.22604221 65.6038935 -73.27784802 44.76441769 -57.8125 27.4375 C-57.07515625 26.60605469 -56.3378125 25.77460937 -55.578125 24.91796875 C-45.05152831 13.72055953 -15.61827146 -8.67681748 0 0 Z " fill="#FEFCFC" transform="translate(158.8125,41.5625)"/>
<path d="M0 0 C8.19298547 0.37755693 16.54171951 1.46783314 24 5 C27.00987004 8.35961367 28.32034092 12.03176321 29.8125 16.25 C30.51672788 18.0239474 31.22114261 19.79782556 31.93022156 21.56983948 C32.71521824 23.55040244 33.47659339 25.5391769 34.23828125 27.52880859 C36.21234013 32.61513408 38.38473598 37.61153177 40.5625 42.61328125 C41.35582029 44.44168517 42.14903317 46.27013571 42.94213867 48.09863281 C43.52999649 49.45341736 43.52999649 49.45341736 44.12973022 50.83557129 C44.52004425 51.73545776 44.91035828 52.63534424 45.3125 53.5625 C45.70337799 54.46319214 46.09425598 55.36388428 46.49697876 56.29187012 C47.60658145 58.85907248 48.70519017 61.43069872 49.80078125 64.00390625 C50.13968384 64.78292801 50.47858643 65.56194977 50.82775879 66.36457825 C51.61196502 68.21875658 52.31460317 70.10706897 53 72 C51.09497451 75.81005099 45.81765863 76.61860881 42 78.0625 C41.07832031 78.42666016 40.15664063 78.79082031 39.20703125 79.16601562 C33.39486645 81.38349176 28.20985966 82.58643353 22 83 C19.4921875 73.8046875 16.984375 64.609375 14.4765625 55.4140625 C14.23228516 54.51840576 13.98800781 53.62274902 13.73632812 52.69995117 C13.24278353 50.8902331 12.74929453 49.08049987 12.25585938 47.27075195 C10.9817682 42.59811404 9.70663565 37.92576427 8.4296875 33.25390625 C7.17762507 28.6721232 5.92812099 24.08965252 4.68164062 19.50634766 C4.23815266 17.87567162 3.79416862 16.2451304 3.34960938 14.61474609 C2.77206558 12.49387695 2.19789879 10.37212782 1.625 8.25 C1.30789063 7.07953125 0.99078125 5.9090625 0.6640625 4.703125 C0 2 0 2 0 0 Z " fill="#47505E" transform="translate(411,182)"/>
<path d="M0 0 C14.24679161 3.9990994 29.44196101 11.9183667 37.6875 24.6875 C39.43981195 29.11000158 39.8546292 32.35064948 38.375 36.9375 C35.30901003 43.94547708 29.88875223 49.70810929 23 53 C18.14645897 42.78659292 13.55202643 32.48177439 9.11816406 22.07958984 C8.1076815 19.70937731 7.09316464 17.34092035 6.078125 14.97265625 C5.42945681 13.4558278 4.7810106 11.9389044 4.1328125 10.421875 C3.83182648 9.7188324 3.53084045 9.01578979 3.22073364 8.29144287 C2.05234102 5.54729464 0.94366034 2.83098101 0 0 Z " fill="#47505E" transform="translate(456,194)"/>
</svg>
