<?xml version="1.0" encoding="UTF-8"?>
<svg version="1.1" xmlns="http://www.w3.org/2000/svg" width="512" height="512">
<path d="M0 0 C1.77133492 -0.00445668 1.77133492 -0.00445668 3.57845438 -0.0090034 C6.84819576 -0.01616742 10.11790508 -0.01886145 13.38765311 -0.01960087 C16.91746845 -0.02145618 20.44727251 -0.02900595 23.9770813 -0.03573608 C31.69216014 -0.0493009 39.40723378 -0.05534132 47.12232256 -0.05974674 C51.94304419 -0.06251246 56.76376382 -0.06675043 61.5844841 -0.07125092 C74.94120724 -0.08344147 88.29792878 -0.09374101 101.65465736 -0.09712601 C102.50903516 -0.09734557 103.36341295 -0.09756514 104.24368098 -0.09779136 C105.52825218 -0.09811878 105.52825218 -0.09811878 106.83877432 -0.09845281 C108.5740246 -0.09889627 110.30927487 -0.09934283 112.04452515 -0.09979248 C112.9052627 -0.10001391 113.76600025 -0.10023534 114.65282075 -0.10046348 C128.59265426 -0.10440956 142.53243544 -0.12185875 156.47224875 -0.145152 C170.79653591 -0.16889377 185.12079685 -0.18132915 199.445104 -0.18249393 C207.48260307 -0.18340913 215.52003396 -0.18912238 223.55751419 -0.20731354 C230.40303552 -0.22275274 237.24846759 -0.22781256 244.09400304 -0.21957543 C247.58310775 -0.21568232 251.07203292 -0.2165325 254.56111526 -0.23063278 C258.35339667 -0.24336904 262.14522138 -0.2374657 265.9375 -0.22705078 C267.57149229 -0.23913539 267.57149229 -0.23913539 269.23849452 -0.25146413 C283.92462049 -0.15753805 296.58999231 4.04164226 307.40048218 14.09747314 C309.58982739 16.39211753 311.25716588 18.79683159 312.98641968 21.44122314 C314.65057468 23.51545646 316.50289459 24.84177414 318.66220093 26.39044189 C328.78063957 33.94554274 334.23751649 44.86754097 336.34970093 57.14044189 C336.43925025 59.05159505 336.47873089 60.96543844 336.48112869 62.8786869 C336.48496984 64.031379 336.48881098 65.18407109 336.49276853 66.37169325 C336.49190204 67.63363867 336.49103556 68.89558408 336.49014282 70.19577026 C336.49272757 71.5534309 336.49574103 72.91109077 336.49914622 74.26874959 C336.50720675 77.99873929 336.50900527 81.72870972 336.50974369 85.45870709 C336.51159592 89.48204898 336.51914415 93.50538092 336.52587891 97.52871704 C336.53945644 106.32639825 336.54548616 115.1240749 336.54988956 123.92176485 C336.5526532 129.41669975 336.55689079 134.9116329 336.56139374 140.40656662 C336.57358608 155.62475537 336.58388518 170.84294272 336.58726883 186.06113625 C336.5874884 187.03500517 336.58770796 188.0088741 336.58793418 189.0122542 C336.58815246 189.98843648 336.58837074 190.96461877 336.58859563 191.97038233 C336.58903909 193.94845557 336.58948566 195.92652881 336.5899353 197.90460205 C336.59015673 198.885792 336.59037816 199.86698196 336.5906063 200.87790494 C336.59455305 216.7713656 336.61200347 232.66478038 336.63529482 248.55822332 C336.65902263 264.88146568 336.67147135 281.20468504 336.67263675 297.52794492 C336.67355275 306.69051638 336.67928616 315.85302807 336.69745636 325.01558304 C336.71287669 332.8189186 336.71796645 340.62217592 336.70971826 348.42552383 C336.70581847 352.40460387 336.70670835 356.38352643 336.7207756 360.36258698 C336.73355505 364.01085523 336.73228186 367.65884834 336.72018489 371.30711643 C336.71731657 373.24033205 336.72913302 375.1735526 336.74160695 377.1067301 C336.66338044 390.97580595 333.00280703 403.94543645 323.35360718 414.26153564 C311.43167824 425.4397965 298.56865114 428.29335342 282.69940186 428.28088379 C280.92806694 428.28534047 280.92806694 428.28534047 279.12094748 428.28988719 C275.85120609 428.29705121 272.58149678 428.29974524 269.31174874 428.30048466 C265.7819334 428.30233997 262.25212934 428.30988973 258.72232056 428.31661987 C251.00724171 428.33018468 243.29216808 428.3362251 235.5770793 428.34063053 C230.75635767 428.34339625 225.93563803 428.34763422 221.11491776 428.3521347 C207.75819462 428.36432525 194.40147307 428.37462479 181.04474449 428.3780098 C180.1903667 428.37822936 179.33598891 428.37844893 178.45572088 428.37867515 C177.17114967 428.37900256 177.17114967 428.37900256 175.86062753 428.3793366 C174.12537726 428.37978006 172.39012698 428.38022662 170.65487671 428.38067627 C169.79413916 428.3808977 168.93340161 428.38111913 168.0465811 428.38134727 C154.10674759 428.38529335 140.16696641 428.40274254 126.22715311 428.42603579 C111.90286594 428.44977755 97.57860501 428.46221294 83.25429785 428.46337771 C75.21679878 428.46429292 67.1793679 428.47000616 59.14188766 428.48819733 C52.29636633 428.50363653 45.45093426 428.50869635 38.60539882 428.50045922 C35.1162941 428.49656611 31.62736894 428.49741629 28.13828659 428.51151657 C24.34600519 428.52425283 20.55418047 428.51834949 16.76190186 428.50793457 C15.67257367 428.51599097 14.58324548 428.52404738 13.46090734 428.53234792 C-1.22779852 428.43840534 -13.89341174 424.23765938 -24.70498657 414.17950439 C-26.87311031 411.90689277 -28.50750068 409.52996503 -30.21670532 406.90997314 C-32.06004743 404.63467621 -34.18492444 403.08410271 -36.52529907 401.32794189 C-46.38236249 393.70045235 -51.56194052 383.32259797 -53.65029907 371.14044189 C-53.7398484 369.22928874 -53.77932903 367.31544535 -53.78172684 365.40219688 C-53.78556798 364.24950479 -53.78940913 363.09681269 -53.79336667 361.90919054 C-53.79250019 360.64724512 -53.79163371 359.38529971 -53.79074097 358.08511353 C-53.79332571 356.72745289 -53.79633918 355.36979302 -53.79974437 354.01213419 C-53.8078049 350.2821445 -53.80960341 346.55217406 -53.81034184 342.82217669 C-53.81219406 338.79883481 -53.81974229 334.77550287 -53.82647705 330.75216675 C-53.84005458 321.95448554 -53.8460843 313.15680888 -53.85048771 304.35911894 C-53.85325134 298.86418403 -53.85748894 293.36925089 -53.86199188 287.87431717 C-53.87418422 272.65612842 -53.88448333 257.43794107 -53.88786697 242.21974754 C-53.88808654 241.24587862 -53.88830611 240.27200969 -53.88853233 239.26862959 C-53.8887506 238.2924473 -53.88896888 237.31626502 -53.88919377 236.31050146 C-53.88963724 234.33242822 -53.8900838 232.35435498 -53.89053345 230.37628174 C-53.89075488 229.39509179 -53.89097631 228.41390183 -53.89120445 227.40297885 C-53.8951512 211.50951819 -53.91260162 195.61610341 -53.93589297 179.72266047 C-53.95962077 163.39941811 -53.97206949 147.07619875 -53.97323489 130.75293887 C-53.97415089 121.59036741 -53.9798843 112.42785572 -53.9980545 103.26530075 C-54.01347483 95.46196519 -54.01856459 87.65870787 -54.0103164 79.85535996 C-54.00641662 75.87627992 -54.0073065 71.89735736 -54.02137375 67.91829681 C-54.03415319 64.27002856 -54.03288001 60.62203545 -54.02078304 56.97376736 C-54.01791472 55.04055174 -54.02973117 53.10733119 -54.0422051 51.17415369 C-53.9608067 36.74272301 -49.96498582 23.90100783 -39.95108032 13.24591064 C-28.13000354 2.42832086 -15.48784579 -0.01216994 0 0 Z " fill="#0089EE" transform="translate(114.65029907226563,41.85955810546875)"/>
<path d="M0 0 C1.46233315 -0.01073296 1.46233315 -0.01073296 2.95420837 -0.02168274 C6.16201291 -0.03852798 9.36841169 -0.01919074 12.57617188 0.00219727 C14.81384395 0.00136819 17.05151595 -0.00109266 19.28918457 -0.00511169 C23.97308743 -0.00796686 28.65651137 0.00670465 33.34033203 0.03417969 C39.33595746 0.06826135 45.33072671 0.06224122 51.32639313 0.04351711 C55.9453237 0.03293477 60.56405599 0.0418963 65.18296814 0.05690193 C67.39329947 0.06207509 69.60365157 0.06161249 71.8139801 0.05535698 C74.90638557 0.04989004 77.99757674 0.07032837 81.08984375 0.09765625 C81.9981041 0.09113037 82.90636444 0.08460449 83.84214783 0.07788086 C90.59009985 0.17897632 94.97003343 1.58957839 99.89984131 6.46589661 C103.27429115 11.20852446 105.82828578 15.9601795 108.06054688 21.33032227 C108.40245056 22.12839798 108.74435425 22.92647369 109.09661865 23.74873352 C110.17295377 26.2678121 111.23409005 28.79296311 112.29492188 31.31860352 C113.02049808 33.02279982 113.7470528 34.72657986 114.47460938 36.42993164 C119.69537776 48.68024507 119.69537776 48.68024507 122.04492188 54.63110352 C122.85832031 53.6552832 123.67171875 52.67946289 124.50976562 51.67407227 C127.67596706 48.51716405 129.96386033 47.87920684 134.37109375 47.85961914 C135.10908203 47.88733398 135.84707031 47.91504883 136.60742188 47.94360352 C137.34927734 47.9287793 138.09113281 47.91395508 138.85546875 47.89868164 C143.06275203 47.96237159 144.63625005 48.29781252 148.00976562 51.04907227 C150.84111954 54.64125065 151.43798058 56.89803116 151.40429688 61.52954102 C150.63976425 66.00039486 147.13859594 68.53742945 144.04492188 71.63110352 C144.45484375 72.0784082 144.86476563 72.52571289 145.28710938 72.98657227 C145.8259375 73.59114258 146.36476563 74.19571289 146.91992188 74.81860352 C147.45359375 75.4102832 147.98726562 76.00196289 148.53710938 76.61157227 C151.84595826 81.04337245 152.31955355 85.16557377 152.45898438 90.60766602 C152.47857712 91.2826564 152.49816986 91.95764679 152.51835632 92.65309143 C152.57910331 94.85397256 152.62553391 97.05483567 152.66992188 99.25610352 C152.70514518 100.7812541 152.74054726 102.30640057 152.77612305 103.83154297 C152.84542316 106.92982796 152.90644906 110.02813793 152.96142578 113.12670898 C153.01252242 116.00371859 153.07359658 118.88009045 153.14794922 121.7565918 C153.23940112 125.44391387 153.30328464 129.13056871 153.35742188 132.81860352 C153.38723145 133.91446777 153.41704102 135.01033203 153.44775391 136.1394043 C153.49537869 142.56672304 152.88363195 146.4098964 149.04492188 151.63110352 C143.7371897 156.54075578 140.29196799 157.90983606 133.04492188 157.63110352 C133.14804687 158.84797852 133.25117188 160.06485352 133.35742188 161.31860352 C133.62583027 164.48582255 133.04671238 165.62829101 131.30664062 168.36157227 C126.28767836 171.85380829 121.51319687 171.3584168 115.54492188 171.25610352 C114.41699219 171.27543945 113.2890625 171.29477539 112.12695312 171.31469727 C107.1984702 171.28553464 104.00431103 171.22729534 99.76367188 168.59204102 C98.04492188 165.63110352 98.04492188 165.63110352 98.04492188 157.63110352 C60.42492187 157.63110352 22.80492187 157.63110352 -15.95507812 157.63110352 C-15.95507812 160.27110352 -15.95507812 162.91110352 -15.95507812 165.63110352 C-17.67382812 168.59204102 -17.67382812 168.59204102 -20.95507812 170.63110352 C-25.13818221 171.35322331 -29.21975164 171.32870911 -33.45507812 171.25610352 C-34.58300781 171.27543945 -35.7109375 171.29477539 -36.87304688 171.31469727 C-45.04210243 171.26635966 -45.04210243 171.26635966 -49.21679688 168.36157227 C-51.76961503 164.35163992 -51.34866425 162.27541978 -50.95507812 157.63110352 C-52.44007813 157.78579102 -52.44007813 157.78579102 -53.95507812 157.94360352 C-58.79619942 157.92400383 -62.39882857 155.80383596 -65.95507812 152.63110352 C-71.68408093 146.49053442 -71.60397527 141.48718311 -71.33007812 133.31860352 C-71.30719727 132.116875 -71.28431641 130.91514648 -71.26074219 129.67700195 C-71.20679515 127.06423373 -71.14286299 124.4535496 -71.06542969 121.84155273 C-70.96103931 118.16941043 -70.91247584 114.49841872 -70.87747192 110.82502747 C-70.84575279 107.7598476 -70.79564509 104.69513757 -70.74151611 101.63027954 C-70.71742448 100.14319615 -70.69873673 98.65601437 -70.68572998 97.16879272 C-70.57381667 86.2384381 -69.37116324 79.10662936 -61.95507812 70.63110352 C-63.16164062 69.48641602 -63.16164062 69.48641602 -64.39257812 68.31860352 C-67.93105525 64.60751775 -68.29475428 61.70743409 -68.24804688 56.63500977 C-67.78766991 53.48603129 -66.18607467 51.79648251 -63.95507812 49.63110352 C-60.84020436 48.07366663 -57.55932004 48.36424121 -54.14257812 48.31860352 C-53.43037109 48.28959961 -52.71816406 48.2605957 -51.984375 48.23071289 C-48.23253238 48.1855936 -46.14623655 48.5108547 -42.94335938 50.52563477 C-40.95507812 52.63110352 -40.95507812 52.63110352 -40.95507812 54.63110352 C-40.29507813 54.63110352 -39.63507813 54.63110352 -38.95507812 54.63110352 C-38.8606543 53.97279541 -38.76623047 53.3144873 -38.66894531 52.63623047 C-37.73691769 48.71272568 -36.17481291 45.22275305 -34.53320312 41.54907227 C-34.19133972 40.77606277 -33.84947632 40.00305328 -33.49725342 39.20661926 C-32.7734982 37.57411648 -32.04714193 35.94276469 -31.31835938 34.3125 C-30.2150311 31.84089948 -29.12360993 29.36428631 -28.03320312 26.88696289 C-27.32558715 25.29484699 -26.61727567 23.70303999 -25.90820312 22.11157227 C-25.58716614 21.38109177 -25.26612915 20.65061127 -24.93536377 19.897995 C-23.32444192 16.31731781 -21.5991702 12.82052586 -19.64550781 9.41357422 C-19.29832703 8.80560501 -18.95114624 8.1976358 -18.59344482 7.57124329 C-13.1887308 1.17102736 -8.17869901 -0.10528587 0 0 Z " fill="#3C2E62" transform="translate(206.955078125,91.368896484375)"/>
<path d="M0 0 C10.57310898 5.06628139 16.85205523 14.2206276 21 25 C23.08727312 32.58480557 23.28439704 39.69558999 23.26069641 47.53634644 C23.2637211 48.89746056 23.26761216 50.25857298 23.27228898 51.61968243 C23.28253688 55.34066048 23.28039539 59.06154183 23.27610838 62.78252769 C23.27363532 66.80307783 23.28266251 70.82360505 23.29014587 74.84414673 C23.30287871 82.71336164 23.30468834 90.5825424 23.30234561 98.45176588 C23.30056073 104.84972568 23.30231573 111.24767513 23.30657005 117.6456337 C23.30716524 118.55710755 23.30776043 119.46858139 23.30837366 120.40767566 C23.30958544 122.25948881 23.31079957 124.11130196 23.31201603 125.96311511 C23.32288609 143.31953829 23.32073159 160.67594202 23.31463119 178.03236629 C23.30946232 193.89970986 23.32071763 209.76699204 23.33972941 225.63432346 C23.35911569 241.93961624 23.36736243 258.24487999 23.36360615 274.55018437 C23.36169534 283.69927753 23.36417007 292.84831844 23.37832069 301.99740219 C23.39024552 309.78600745 23.39162701 317.57452828 23.37953053 325.36313473 C23.37364962 329.33413741 23.3725205 333.30498576 23.38453293 337.27597809 C23.39541795 340.91669188 23.39225757 344.55712295 23.37827124 348.19782366 C23.3743885 350.12686704 23.38514998 352.0559231 23.39656812 353.98493659 C23.31089172 367.84563098 19.64692995 380.81159757 10.00390625 391.12109375 C-1.91802268 402.2993546 -14.78104979 405.15291153 -30.65029907 405.14044189 C-32.42163399 405.14489858 -32.42163399 405.14489858 -34.22875345 405.1494453 C-37.49849483 405.15660932 -40.76820415 405.15930335 -44.03795218 405.16004276 C-47.56776753 405.16189808 -51.09757159 405.16944784 -54.62738037 405.17617798 C-62.34245921 405.18974279 -70.05753285 405.19578321 -77.77262163 405.20018864 C-82.59334326 405.20295435 -87.41406289 405.20719232 -92.23478317 405.21169281 C-105.59150631 405.22388336 -118.94822786 405.2341829 -132.30495644 405.2375679 C-133.15933423 405.23778747 -134.01371202 405.23800703 -134.89398005 405.23823325 C-136.17855126 405.23856067 -136.17855126 405.23856067 -137.4890734 405.2388947 C-139.22432367 405.23933816 -140.95957395 405.23978472 -142.69482422 405.24023438 C-143.55556177 405.2404558 -144.41629932 405.24067723 -145.30311982 405.24090537 C-159.24295334 405.24485146 -173.18273451 405.26230064 -187.12254782 405.2855939 C-201.44683499 405.30933566 -215.77109592 405.32177105 -230.09540308 405.32293582 C-238.13290215 405.32385102 -246.17033303 405.32956427 -254.20781326 405.34775543 C-261.0533346 405.36319463 -267.89876666 405.36825445 -274.74430211 405.36001733 C-278.23340683 405.35612421 -281.72233199 405.35697439 -285.21141434 405.37107468 C-289.00369574 405.38381094 -292.79552045 405.37790759 -296.58779907 405.36749268 C-298.22179136 405.37957728 -298.22179136 405.37957728 -299.88879359 405.39190602 C-314.530163 405.29826619 -327.29539669 401.1123829 -338.08203125 391.0703125 C-340.69725619 388.24736093 -342.34101487 385.46222984 -344 382 C-343.21625 382.268125 -342.4325 382.53625 -341.625 382.8125 C-340.42875 383.204375 -339.2325 383.59625 -338 384 C-336.95811999 384.37526657 -336.95811999 384.37526657 -335.89519191 384.75811428 C-329.03980126 387.07022646 -322.77483253 387.43096732 -315.57843018 387.40113831 C-314.36286525 387.40793498 -313.14730031 387.41473164 -311.89490008 387.42173427 C-308.54669168 387.43735899 -305.19896936 387.43970313 -301.85075951 387.43615115 C-298.22960377 387.43553581 -294.60851859 387.45212678 -290.98739624 387.46632385 C-283.90271342 387.49117342 -276.81810551 387.49948518 -269.73338273 387.50116099 C-263.97095399 387.50258974 -258.20854981 387.50877028 -252.44612885 387.51826286 C-236.08553367 387.54466304 -219.72499738 387.55852397 -203.36438075 387.55627144 C-202.48358823 387.55615157 -201.6027957 387.5560317 -200.6953125 387.5559082 C-199.81343666 387.55578556 -198.93156082 387.55566292 -198.02296147 387.55553656 C-183.73546315 387.55431756 -169.44820216 387.58302136 -155.16077247 387.6253233 C-140.46795017 387.66848008 -125.77524347 387.68913029 -111.08235621 387.68654197 C-102.84245315 387.68554834 -94.60279894 387.69368887 -86.36295319 387.72607613 C-79.34695491 387.75347772 -72.33131832 387.7598467 -65.31528953 387.73954786 C-61.74066202 387.72979514 -58.16672723 387.72942234 -54.5921669 387.7556076 C-36.36040431 387.88074134 -22.441641 387.54604293 -8.11328125 375.1171875 C3.18119231 363.80183691 5.63310312 350.31452657 5.65542603 334.9990387 C5.64251944 332.90536191 5.62910548 330.8116882 5.61523438 328.71801758 C5.61874037 326.48291605 5.62440432 324.24781703 5.63204956 322.01272583 C5.64622912 315.97826209 5.62930848 309.94425768 5.60576439 303.90983796 C5.58559486 297.58871306 5.59153764 291.26760608 5.59387207 284.94645691 C5.59381861 274.34566037 5.57424249 263.74502297 5.54199219 253.14428711 C5.5088208 242.23668948 5.49474974 231.3292779 5.50097656 220.42163086 C5.50845472 207.25734141 5.5011183 194.09315026 5.47932434 180.92886925 C5.47113656 175.9037633 5.46844326 170.87869826 5.47001648 165.8535862 C5.47089234 159.94947304 5.45676012 154.04558332 5.43078995 148.14152908 C5.42360189 145.97025447 5.42155711 143.79895612 5.42490768 141.6276722 C5.42859635 138.67514491 5.41396723 135.72327935 5.39440918 132.77082825 C5.39973711 131.90227622 5.40506503 131.0337242 5.41055441 130.13885242 C5.41619997 127.52119283 5.41619997 127.52119283 5 124 C4.01 123.34 3.02 122.68 2 122 C1.6015625 120.125 1.6015625 120.125 1.625 118 C1.61726563 117.29875 1.60953125 116.5975 1.6015625 115.875 C2 114 2 114 5 112 C5.46510953 109.7129546 5.46510953 109.7129546 5.3984375 107.0625 C5.40230469 106.08539063 5.40617187 105.10828125 5.41015625 104.1015625 C5.39855469 103.07804687 5.38695312 102.05453125 5.375 101 C5.39240234 99.46472656 5.39240234 99.46472656 5.41015625 97.8984375 C5.40628906 96.92132813 5.40242188 95.94421875 5.3984375 94.9375 C5.39505371 94.03902344 5.39166992 93.14054687 5.38818359 92.21484375 C5.19603271 91.11849609 5.19603271 91.11849609 5 90 C4.01 89.34 3.02 88.68 2 88 C1.6015625 85.6875 1.6015625 85.6875 1.625 83 C1.61726563 82.113125 1.60953125 81.22625 1.6015625 80.3125 C1.79878906 79.1678125 1.79878906 79.1678125 2 78 C3.485 77.01 3.485 77.01 5 76 C5.47409761 73.38122164 5.47409761 73.38122164 5.41992188 70.27197266 C5.44378967 68.46836777 5.44378967 68.46836777 5.46813965 66.62832642 C5.46834106 65.32011932 5.46854248 64.01191223 5.46875 62.6640625 C5.47585479 61.30561001 5.48355425 59.94716051 5.49182129 58.5887146 C5.50529487 55.73207296 5.50682619 52.87570756 5.50097656 50.01904297 C5.49513096 46.38993446 5.52543958 42.76218737 5.56609344 39.13334084 C5.5922075 36.3208017 5.59482576 33.50857791 5.59120178 30.6959343 C5.59368286 28.71759411 5.61825118 26.73932038 5.64343262 24.76113892 C5.5853663 17.06138234 4.40711572 11.26994936 1.07287598 4.30477905 C0 2 0 2 0 0 Z " fill="#E2E3E5" transform="translate(428,65)"/>
<path d="M0 0 C1.77133492 -0.00445668 1.77133492 -0.00445668 3.57845438 -0.0090034 C6.84819576 -0.01616742 10.11790508 -0.01886145 13.38765311 -0.01960087 C16.91746845 -0.02145618 20.44727251 -0.02900595 23.9770813 -0.03573608 C31.69216014 -0.0493009 39.40723378 -0.05534132 47.12232256 -0.05974674 C51.94304419 -0.06251246 56.76376382 -0.06675043 61.5844841 -0.07125092 C74.94120724 -0.08344147 88.29792878 -0.09374101 101.65465736 -0.09712601 C102.50903516 -0.09734557 103.36341295 -0.09756514 104.24368098 -0.09779136 C105.52825218 -0.09811878 105.52825218 -0.09811878 106.83877432 -0.09845281 C108.5740246 -0.09889627 110.30927487 -0.09934283 112.04452515 -0.09979248 C112.9052627 -0.10001391 113.76600025 -0.10023534 114.65282075 -0.10046348 C128.59265426 -0.10440956 142.53243544 -0.12185875 156.47224875 -0.145152 C170.79653591 -0.16889377 185.12079685 -0.18132915 199.445104 -0.18249393 C207.48260307 -0.18340913 215.52003396 -0.18912238 223.55751419 -0.20731354 C230.40303552 -0.22275274 237.24846759 -0.22781256 244.09400304 -0.21957543 C247.58310775 -0.21568232 251.07203292 -0.2165325 254.56111526 -0.23063278 C258.35339667 -0.24336904 262.14522138 -0.2374657 265.9375 -0.22705078 C267.57149229 -0.23913539 267.57149229 -0.23913539 269.23849452 -0.25146413 C283.98879765 -0.1571276 296.35630453 4.10947502 307.34188843 13.98028564 C321.41017807 29.1160136 320.18256336 47.57629018 319.87826538 66.79467773 C319.83985179 69.69711986 319.83194505 72.59931062 319.82483673 75.50197315 C319.81456088 78.97142257 319.78552035 82.44064473 319.75595093 85.90997314 C319.74745117 87.20876907 319.73895142 88.507565 319.73019409 89.84571838 C319.710979 91.03843857 319.69176392 92.23115875 319.67196655 93.46002197 C319.65148254 95.03763054 319.65148254 95.03763054 319.63058472 96.64710999 C319.34970093 99.14044189 319.34970093 99.14044189 317.34970093 101.14044189 C314.41516832 100.77362532 313.48532847 100.27606944 311.34970093 98.14044189 C311.09141541 95.76531982 311.09141541 95.76531982 311.07846069 92.74786377 C311.06318077 91.05470032 311.06318077 91.05470032 311.04759216 89.32733154 C311.04545212 88.10034546 311.04331207 86.87335938 311.04110718 85.60919189 C311.0159296 83.01804398 310.99053186 80.4268982 310.9649353 77.83575439 C310.93425869 73.745616 310.91207773 69.65545535 310.8934021 65.56524658 C310.87431085 61.62138664 310.83217035 57.67788415 310.79110718 53.73419189 C310.79093346 51.91800354 310.79093346 51.91800354 310.79075623 50.06512451 C310.64737288 37.66043512 308.05786025 29.34383446 299.60360718 20.26544189 C290.85387825 11.82495494 280.56647705 9.38774176 268.72558594 9.49206543 C267.51239571 9.48285434 266.29920548 9.47364326 265.04925191 9.46415305 C261.71664054 9.44393412 258.38543073 9.44578233 255.05287218 9.45750046 C251.44535259 9.46474382 247.83798221 9.44313097 244.23051453 9.42544556 C237.17680036 9.39560222 230.12333034 9.39286104 223.06956674 9.40045872 C217.33243756 9.40629901 211.59538093 9.40306771 205.85825729 9.39348602 C204.63033586 9.39147061 204.63033586 9.39147061 203.37760793 9.38941447 C201.71423757 9.38667106 200.05086721 9.38391858 198.38749687 9.38115713 C182.81212534 9.35659079 167.23689193 9.36413638 151.66151933 9.38172719 C137.43553072 9.39682599 123.2099295 9.3726323 108.98400779 9.32969478 C94.34986095 9.28586306 79.71589551 9.26807478 65.08168352 9.27847075 C56.87644402 9.28386312 48.67151549 9.27924766 40.46632767 9.24750519 C33.48142297 9.22078929 26.49703622 9.21892542 19.51213385 9.24836627 C15.95361825 9.26270736 12.39603552 9.26616899 8.83757591 9.23871231 C-8.29409314 9.11578543 -20.89405695 9.26126996 -34.21279907 20.95294189 C-39.98119231 27.29074734 -43.76750715 35.12462829 -43.78731346 43.70788479 C-43.792388 44.87339507 -43.79746255 46.03890534 -43.80269086 47.23973411 C-43.80318862 48.52627783 -43.80368638 49.81282155 -43.80419922 51.13835144 C-43.80821379 52.51419768 -43.812652 53.89004274 -43.81747878 55.26588637 C-43.82945127 59.05546734 -43.83509432 62.84503557 -43.83965993 66.63463175 C-43.84561366 70.71869978 -43.85722427 74.80275256 -43.86795044 78.8868103 C-43.89248271 88.75592507 -43.90710435 98.62504489 -43.92001051 108.49418077 C-43.92372233 111.28209193 -43.92769559 114.07000259 -43.93176317 116.85791326 C-43.95700348 134.17220994 -43.97905566 151.48650742 -43.99149132 168.80081844 C-43.99442101 172.81221965 -43.99738267 176.82362083 -44.00039673 180.83502197 C-44.00114278 181.83203369 -44.00188883 182.82904541 -44.00265749 183.85626961 C-44.01530424 199.99817588 -44.0485173 216.13997182 -44.09019856 232.28182655 C-44.13264748 248.8570021 -44.15618992 265.43212123 -44.16141188 282.00735098 C-44.16482303 291.31255688 -44.17654292 300.6175905 -44.20951462 309.92274284 C-44.23755718 317.84983085 -44.24849613 325.77671127 -44.23731916 333.70384502 C-44.23214289 337.7459253 -44.23495139 341.78757116 -44.2597847 345.82958794 C-44.28236959 349.53673671 -44.28146685 353.24314135 -44.26258083 356.95030398 C-44.25848238 358.91272514 -44.27885833 360.87515147 -44.30036771 362.83745903 C-44.20287626 373.80189614 -41.30251648 383.34377543 -33.60342407 391.39434814 C-24.26597787 399.74202505 -15.94813952 402.59315921 -3.61399841 402.53485107 C-2.40366918 402.54094218 -1.19333994 402.54703328 0.05366594 402.55330896 C3.40111748 402.56705121 6.74807708 402.56739833 10.09551966 402.56193399 C13.71054939 402.55925909 17.32551685 402.57380441 20.94052124 402.58602905 C28.01893474 402.60706759 35.09726629 402.61162475 42.17570736 402.60984117 C47.93202681 402.60853246 53.68832074 402.61234323 59.44463539 402.61976624 C61.10411161 402.62186549 62.76358783 402.62396309 64.42306405 402.62605906 C65.24910417 402.62710258 66.07514429 402.62814611 66.92621592 402.62922126 C82.54439288 402.64811812 98.16252285 402.64707547 113.7807065 402.64025193 C128.05355226 402.63467993 142.32621833 402.65548823 156.59902211 402.6886124 C171.26687808 402.72238811 185.93464808 402.7375127 200.60254365 402.73289537 C208.83233152 402.73065421 217.06195343 402.73584172 225.29170799 402.76078796 C232.30012231 402.78185158 239.30827972 402.78534342 246.31670477 402.76648837 C249.88895714 402.75736051 253.46073117 402.75609551 257.03294563 402.77684402 C260.91501929 402.79914171 264.79638609 402.7822626 268.67848206 402.76190186 C269.79436476 402.7744197 270.91024747 402.78693755 272.05994481 402.79983473 C282.77791376 402.67980442 291.74845383 399.3135313 299.63095093 391.98419189 C311.08027722 379.70218732 311.06787748 367.06375383 310.96151733 351.17144775 C310.96506273 348.95782015 310.97084516 346.74419518 310.97868347 344.53057861 C310.99081673 339.78502684 310.98744948 335.03983526 310.97185135 330.29429436 C310.94747155 322.7943043 310.9590533 315.29462779 310.9755249 307.79463196 C310.99498243 297.28626004 310.99928354 286.7779734 310.98934937 276.26959229 C310.98872554 275.60427691 310.98810172 274.93896154 310.98745899 274.25348509 C310.98618761 272.9068047 310.98491338 271.56012432 310.98363628 270.21344394 C310.9830039 269.54566796 310.98237152 268.87789198 310.98171997 268.18988037 C310.98108182 267.52145208 310.98044368 266.8530238 310.97978619 266.1643401 C310.97296549 258.72221115 310.97098898 251.28008349 310.97079468 243.83795166 C310.97077185 243.17072655 310.97074901 242.50350143 310.97072549 241.81605738 C310.97079467 230.69971591 310.98286324 219.5834042 311.00175416 208.46707827 C311.01328794 201.00645508 311.00880395 193.54606058 310.99173379 186.08545005 C310.98386013 181.45713346 310.98807139 176.82888411 310.99544334 172.20056915 C310.99625635 170.04905059 310.99186931 167.89752308 310.98200035 165.74602699 C310.96921427 162.8179304 310.97461502 159.89042006 310.98461914 156.96232605 C310.97636097 156.10378664 310.96810279 155.24524724 310.95959437 154.36069149 C311.00673655 148.5736536 311.00673655 148.5736536 312.74006307 146.38422114 C314.34970093 145.14044189 314.34970093 145.14044189 316.47470093 145.39044189 C318.34970093 146.14044189 318.34970093 146.14044189 319.34970093 147.14044189 C319.45876864 150.03152968 319.50194928 152.8990903 319.50360107 155.79101562 C319.50798333 156.70966408 319.51236558 157.62831254 319.51688063 158.57479882 C319.53032235 161.67838755 319.53645967 164.78194785 319.54257202 167.88555908 C319.55046921 170.10103994 319.55873791 172.3165195 319.56735229 174.53199768 C319.59363228 181.83375816 319.60889291 189.13552452 319.62313843 196.43731689 C319.62849699 198.94968927 319.63387449 201.4620616 319.63927078 203.9744339 C319.66091455 214.42974683 319.67980018 224.88505962 319.69089317 235.34038925 C319.69382282 238.05580398 319.69678447 240.77121867 319.69979858 243.4866333 C319.70054463 244.16152732 319.70129069 244.83642133 319.70205934 245.53176668 C319.71468733 256.44173082 319.74787208 267.35153101 319.78960042 278.26141867 C319.83211845 289.47009703 319.85519315 300.67871672 319.86081374 311.88748097 C319.86446239 318.17745277 319.87643123 324.46714739 319.90891647 330.75704193 C319.93908122 336.68322491 319.94527867 342.60896429 319.93353271 348.53520775 C319.93331264 350.70349217 319.94156271 352.87179765 319.95918655 355.04001045 C320.08677877 371.65008931 318.23506872 385.12068763 306.68173218 397.99981689 C299.62327261 404.80242611 288.24770005 411.2581477 278.35451412 411.27186966 C277.31665608 411.2757108 276.27879804 411.27955195 275.20948976 411.28350949 C274.06554689 411.28264301 272.92160402 411.28177653 271.74299622 411.28088379 C270.53059 411.28385491 269.31818378 411.28682603 268.06903797 411.28988719 C264.69743754 411.29707564 261.32588805 411.29974715 257.9542836 411.30048466 C254.32015846 411.30233409 250.6860444 411.30988102 247.05192566 411.31661987 C239.10127373 411.33021 231.15062685 411.33622937 223.19996524 411.34063053 C218.23471453 411.34339259 213.26946577 411.34762996 208.30421638 411.3521347 C194.55557979 411.36432975 180.80694476 411.37462763 167.05830288 411.3780098 C166.17807571 411.37822936 165.29784854 411.37844893 164.39094782 411.37867515 C163.06744441 411.37900256 163.06744441 411.37900256 161.71720356 411.3793366 C159.92925672 411.37978006 158.14130988 411.38022662 156.35336304 411.38067627 C155.46647944 411.3808977 154.57959585 411.38111913 153.665837 411.38134727 C139.30413811 411.38529289 124.94249004 411.40273866 110.58081078 411.42603579 C95.83400366 411.44976435 81.08722202 411.46221238 66.34039551 411.46337771 C58.06146578 411.46429379 49.7826022 411.47002879 41.50369072 411.48819733 C34.45162861 411.50361883 27.39965309 411.50870682 20.34757733 411.50045922 C16.75140417 411.49655955 13.15540527 411.4974486 9.55925369 411.51151657 C5.65452489 411.52665143 1.75003962 411.51836842 -2.15470886 411.50793457 C-3.84720059 411.52001918 -3.84720059 411.52001918 -5.57388407 411.53234792 C-18.62412325 411.45091809 -31.09658192 407.22386273 -40.76748657 398.21856689 C-49.11607036 389.00394744 -53.76616293 377.8208859 -53.78172684 365.40219688 C-53.78556798 364.24950479 -53.78940913 363.09681269 -53.79336667 361.90919054 C-53.79250019 360.64724512 -53.79163371 359.38529971 -53.79074097 358.08511353 C-53.79332571 356.72745289 -53.79633918 355.36979302 -53.79974437 354.01213419 C-53.8078049 350.2821445 -53.80960341 346.55217406 -53.81034184 342.82217669 C-53.81219406 338.79883481 -53.81974229 334.77550287 -53.82647705 330.75216675 C-53.84005458 321.95448554 -53.8460843 313.15680888 -53.85048771 304.35911894 C-53.85325134 298.86418403 -53.85748894 293.36925089 -53.86199188 287.87431717 C-53.87418422 272.65612842 -53.88448333 257.43794107 -53.88786697 242.21974754 C-53.88808654 241.24587862 -53.88830611 240.27200969 -53.88853233 239.26862959 C-53.8887506 238.2924473 -53.88896888 237.31626502 -53.88919377 236.31050146 C-53.88963724 234.33242822 -53.8900838 232.35435498 -53.89053345 230.37628174 C-53.89075488 229.39509179 -53.89097631 228.41390183 -53.89120445 227.40297885 C-53.8951512 211.50951819 -53.91260162 195.61610341 -53.93589297 179.72266047 C-53.95962077 163.39941811 -53.97206949 147.07619875 -53.97323489 130.75293887 C-53.97415089 121.59036741 -53.9798843 112.42785572 -53.9980545 103.26530075 C-54.01347483 95.46196519 -54.01856459 87.65870787 -54.0103164 79.85535996 C-54.00641662 75.87627992 -54.0073065 71.89735736 -54.02137375 67.91829681 C-54.03415319 64.27002856 -54.03288001 60.62203545 -54.02078304 56.97376736 C-54.01791472 55.04055174 -54.02973117 53.10733119 -54.0422051 51.17415369 C-53.9608067 36.74272301 -49.96498582 23.90100783 -39.95108032 13.24591064 C-28.13000354 2.42832086 -15.48784579 -0.01216994 0 0 Z " fill="#3B3166" transform="translate(114.65029907226563,41.85955810546875)"/>
<path d="M0 0 C1.12143979 -0.00935994 1.12143979 -0.00935994 2.26553494 -0.01890898 C4.7544225 -0.03478083 7.24232274 -0.02225817 9.73121643 -0.00964355 C11.52220732 -0.01506732 13.31319374 -0.02219141 15.10417175 -0.03088379 C19.95755705 -0.04909108 24.81060153 -0.04205996 29.66399264 -0.02936745 C34.74915899 -0.01922479 39.83429659 -0.02863679 44.91946411 -0.03491211 C53.45946987 -0.04218548 61.99933717 -0.03260962 70.5393219 -0.0135498 C80.40338826 0.00821134 90.2671238 0.00117179 100.13118213 -0.02085543 C108.60868926 -0.03902656 117.08609697 -0.04155915 125.56361729 -0.03110075 C130.62310872 -0.02487436 135.68244483 -0.02400657 140.74192619 -0.0372467 C145.50023831 -0.04882924 150.25812539 -0.04073557 155.01639175 -0.01766968 C156.75942976 -0.01239512 158.50250373 -0.01387485 160.24552727 -0.02272034 C177.06793054 -0.10019818 177.06793054 -0.10019818 183.2646637 4.50793457 C187.2646637 10.50793457 187.2646637 10.50793457 187.2646637 43.50793457 C119.2846637 43.50793457 51.3046637 43.50793457 -18.7353363 43.50793457 C-18.7353363 10.50793457 -18.7353363 10.50793457 -14.7353363 4.50793457 C-10.38169144 0.70009953 -5.6712693 -0.07374576 0 0 Z " fill="#F6739C" transform="translate(163.73533630371094,165.4920654296875)"/>
<path d="M0 0 C0.82148529 -0.00997513 1.64297058 -0.01995026 2.48934937 -0.03022766 C3.38708069 -0.03089233 4.28481201 -0.03155701 5.20974731 -0.03224182 C6.63213211 -0.0447271 6.63213211 -0.0447271 8.08325195 -0.0574646 C11.22457967 -0.08160182 14.36569992 -0.09034119 17.5071106 -0.09693909 C19.68802962 -0.10590239 21.868948 -0.11502418 24.04986572 -0.1242981 C28.62465918 -0.14080064 33.19937934 -0.14849055 37.77420044 -0.15138245 C43.63788209 -0.15676831 49.50087551 -0.19445191 55.36436272 -0.24012661 C59.86993936 -0.2698604 64.37534953 -0.27710521 68.88101578 -0.2781086 C71.04279865 -0.28231799 73.20458169 -0.29478095 75.36626816 -0.31562614 C78.39013105 -0.34246428 81.41238888 -0.33773732 84.43630981 -0.32521057 C85.32999268 -0.34004486 86.22367554 -0.35487915 87.1444397 -0.37016296 C91.57877162 -0.31781872 93.37125312 -0.18744198 96.95166016 2.65631104 C103.65269984 11.42410341 107.40013462 22.68846346 111.70388794 32.80345154 C112.71048418 35.16809132 113.72362912 37.52984771 114.73757935 39.89134216 C115.38770323 41.41201125 116.03745635 42.93283893 116.6867981 44.45384216 C117.13524078 45.49929703 117.13524078 45.49929703 117.59274292 46.56587219 C119.23799163 50.44201962 120.61605691 54.2650561 121.9524231 58.27415466 C71.1324231 58.27415466 20.3124231 58.27415466 -32.0475769 58.27415466 C-26.2753307 43.26631453 -26.2753307 43.26631453 -23.4538269 36.88352966 C-23.13981934 36.16860352 -22.82581177 35.45367737 -22.50228882 34.71708679 C-21.84851316 33.23119978 -21.1932027 31.74598711 -20.53634644 30.26145935 C-19.54373098 28.01545244 -18.55910802 25.76605285 -17.57492065 23.51634216 C-7.25666965 0.04730299 -7.25666965 0.04730299 0 0 Z " fill="#D2F8FD" transform="translate(203.04757690429688,99.72584533691406)"/>
<path d="M0 0 C68.64 0 137.28 0 208 0 C208 5.94 208 11.88 208 18 C202.21445593 23.78554407 200.928578 24.14889375 193.3901825 24.15390015 C192.59570876 24.1582824 191.80123503 24.16266465 190.98268634 24.1671797 C188.30575666 24.18059348 185.62885991 24.18675231 182.9519043 24.19287109 C181.03856252 24.20076996 179.12522224 24.20903878 177.21188354 24.21765137 C170.9160098 24.24389406 164.62012932 24.25918019 158.32421875 24.2734375 C156.15929472 24.27879606 153.99437073 24.28417356 151.82944679 24.28956985 C142.82639359 24.31120093 133.8233422 24.32993905 124.82026958 24.34119225 C111.90457118 24.35744055 98.9891732 24.39063724 86.07358807 24.44759309 C76.99923464 24.48624977 67.9249617 24.50581981 58.85052806 24.51111281 C53.42712389 24.51477182 48.00403998 24.52685166 42.58072472 24.55921555 C37.4794122 24.58922129 32.37861498 24.59563478 27.27723312 24.58383179 C25.40390798 24.58361043 23.53055944 24.5919666 21.65731621 24.60948563 C19.10117568 24.63209191 16.5469172 24.6239232 13.99076843 24.60800171 C13.24796196 24.6218838 12.50515549 24.63576588 11.73983973 24.65006864 C7.74630755 24.58870182 6.1633276 24.13766704 3.06307697 21.52449989 C2.38226157 20.69141493 1.70144617 19.85832996 1 19 C0.67 18.67 0.34 18.34 0 18 C0 12.06 0 6.12 0 0 Z " fill="#F8749D" transform="translate(144,217)"/>
<path d="M0 0 C-0.58007812 0.4125 -1.16015625 0.825 -1.7578125 1.25 C-10.47315039 7.69302207 -17.75515598 16.08920696 -20 27 C-20.0936309 28.90027898 -20.13263561 30.80352885 -20.13701439 32.70610809 C-20.14208893 33.87709281 -20.14716347 35.04807754 -20.15239179 36.25454664 C-20.15288955 37.54206847 -20.15338731 38.82959029 -20.15390015 40.15612793 C-20.15791595 41.53696202 -20.16235437 42.91779493 -20.1671797 44.29862642 C-20.17913815 48.09734963 -20.18479197 51.89606014 -20.18936086 55.69479847 C-20.19531979 59.79043726 -20.20692899 63.88606089 -20.21765137 67.98168945 C-20.24216986 77.8756 -20.25680231 87.76951556 -20.26971143 97.66344714 C-20.27342396 100.4585573 -20.27739715 103.25366696 -20.2814641 106.04877663 C-20.30670272 123.41039917 -20.3287533 140.77202252 -20.34119225 158.13365936 C-20.34412189 162.15486148 -20.34708356 166.17606357 -20.35009766 170.19726562 C-20.35121673 171.69642087 -20.35121673 171.69642087 -20.35235842 173.22586209 C-20.36500724 189.40973704 -20.39822418 205.59350201 -20.43989949 221.77732557 C-20.4823477 238.39773327 -20.50589067 255.01808471 -20.51111281 271.63854647 C-20.51452379 280.96832949 -20.52624199 290.29794068 -20.55921555 299.62767029 C-20.58725698 307.57486271 -20.59819748 315.52184807 -20.58702008 323.46908611 C-20.58184375 327.52129926 -20.58465286 331.57307907 -20.60948563 335.62522888 C-20.63206961 339.34158928 -20.63116848 343.05720736 -20.61228175 346.77358156 C-20.60818312 348.7409258 -20.62855979 350.70827519 -20.65006864 352.67550611 C-20.54690401 364.3059557 -16.94489592 374.37296655 -9 383 C-7.06799885 384.79132146 -5.0846886 386.37857554 -3 388 C-1.98319689 388.98290968 -0.97261781 389.97334787 0 391 C-9.19714753 389.57877116 -17.41409143 383.27409427 -23 376 C-26.4778247 369.68454719 -29.12139694 363.67763319 -29.13422108 356.42417717 C-29.13867892 355.2568168 -29.14313676 354.08945642 -29.14772969 352.88672149 C-29.14754533 351.59813141 -29.14736097 350.30954134 -29.14717102 348.98190308 C-29.15046983 347.60391897 -29.15419543 346.22593582 -29.1583125 344.84795392 C-29.16833885 341.05257879 -29.17205032 337.25721949 -29.17470181 333.461833 C-29.17860302 329.37168899 -29.18818153 325.28155752 -29.19691467 321.19142151 C-29.21668496 311.30897103 -29.22674631 301.42651952 -29.23564246 291.54405421 C-29.24002471 286.89098302 -29.24539171 282.23791297 -29.25063133 277.58484268 C-29.26764468 262.11795984 -29.28213881 246.6510777 -29.28938007 231.18418694 C-29.29128999 227.16966628 -29.29321032 223.15514563 -29.29516602 219.140625 C-29.29564976 218.14282635 -29.2961335 217.1450277 -29.2966319 216.11699273 C-29.304932 199.95367869 -29.33026811 183.79043867 -29.36274669 167.62715696 C-29.39581529 151.03504495 -29.41382868 134.44297056 -29.41702431 117.85082543 C-29.41918967 108.53400657 -29.42794195 99.21729563 -29.45348549 89.90050888 C-29.47518981 81.96566757 -29.48324426 74.03096037 -29.47351871 66.09609275 C-29.46897313 62.04836946 -29.47087503 58.00092289 -29.49028015 53.95323753 C-29.50790662 50.24448088 -29.50691866 46.53620293 -29.49138286 42.82744123 C-29.48788366 40.8568522 -29.50403704 38.88625818 -29.52098733 36.91573894 C-29.46863104 29.6976264 -28.625471 24.28485686 -25 18 C-24.4225 16.989375 -23.845 15.97875 -23.25 14.9375 C-18.32641575 8.50948722 -9.07447672 -3.02482557 0 0 Z " fill="#F1F8FD" transform="translate(99,53)"/>
<path d="M0 0 C0.82148529 -0.00997513 1.64297058 -0.01995026 2.48934937 -0.03022766 C3.38708069 -0.03089233 4.28481201 -0.03155701 5.20974731 -0.03224182 C6.63213211 -0.0447271 6.63213211 -0.0447271 8.08325195 -0.0574646 C11.22457967 -0.08160182 14.36569992 -0.09034119 17.5071106 -0.09693909 C19.68802962 -0.10590239 21.868948 -0.11502418 24.04986572 -0.1242981 C28.62465918 -0.14080064 33.19937934 -0.14849055 37.77420044 -0.15138245 C43.63788209 -0.15676831 49.50087551 -0.19445191 55.36436272 -0.24012661 C59.86993936 -0.2698604 64.37534953 -0.27710521 68.88101578 -0.2781086 C71.04279865 -0.28231799 73.20458169 -0.29478095 75.36626816 -0.31562614 C78.39013105 -0.34246428 81.41238888 -0.33773732 84.43630981 -0.32521057 C85.32999268 -0.34004486 86.22367554 -0.35487915 87.1444397 -0.37016296 C91.57877162 -0.31781872 93.37125312 -0.18744198 96.95166016 2.65631104 C103.65269984 11.42410341 107.40013462 22.68846346 111.70388794 32.80345154 C112.71048418 35.16809132 113.72362912 37.52984771 114.73757935 39.89134216 C115.38770323 41.41201125 116.03745635 42.93283893 116.6867981 44.45384216 C117.13524078 45.49929703 117.13524078 45.49929703 117.59274292 46.56587219 C119.23799163 50.44201962 120.61605691 54.2650561 121.9524231 58.27415466 C71.1324231 58.27415466 20.3124231 58.27415466 -32.0475769 58.27415466 C-26.2753307 43.26631453 -26.2753307 43.26631453 -23.4538269 36.88352966 C-23.13981934 36.16860352 -22.82581177 35.45367737 -22.50228882 34.71708679 C-21.84851316 33.23119978 -21.1932027 31.74598711 -20.53634644 30.26145935 C-19.54373098 28.01545244 -18.55910802 25.76605285 -17.57492065 23.51634216 C-7.25666965 0.04730299 -7.25666965 0.04730299 0 0 Z M-1.0475769 13.27415466 C-2.34006486 15.14156769 -2.34006486 15.14156769 -3.17575073 17.18479919 C-3.51572586 17.93883026 -3.85570099 18.69286133 -4.20597839 19.46974182 C-4.55202621 20.27402618 -4.89807404 21.07831055 -5.25460815 21.90696716 C-5.62486618 22.74001373 -5.99512421 23.5730603 -6.37660217 24.43135071 C-7.15331625 26.18527423 -7.92365329 27.94203407 -8.68795776 29.70140076 C-9.86146271 32.40234425 -11.05325441 35.09460044 -12.24874878 37.78587341 C-13.00177114 39.49243326 -13.75376082 41.19944923 -14.50460815 42.90696716 C-15.03886162 44.1194664 -15.03886162 44.1194664 -15.58390808 45.35646057 C-17.39158384 49.17353807 -17.39158384 49.17353807 -18.0475769 53.27415466 C23.5324231 53.27415466 65.1124231 53.27415466 107.9524231 53.27415466 C106.05926982 47.59469484 104.18721808 42.1889107 101.7727356 36.75462341 C101.47809418 36.08876724 101.18345276 35.42291107 100.87988281 34.73687744 C100.26212006 33.34693676 99.64191366 31.95807969 99.01931763 30.57029724 C98.07409306 28.45419964 97.1480804 26.3303079 96.22195435 24.20579529 C95.61504631 22.84655061 95.0070125 21.48780791 94.3977356 20.12962341 C94.12672028 19.50041489 93.85570496 18.87120636 93.57647705 18.22293091 C91.67470229 14.06164249 89.80720641 11.72335688 85.9524231 9.27415466 C83.14682952 8.88698052 80.73711706 8.72597446 77.9367981 8.75657654 C77.14430664 8.74956726 76.35181519 8.74255798 75.53530884 8.7353363 C72.92398713 8.71777674 70.31375521 8.7293713 67.7024231 8.74290466 C65.88308505 8.74020915 64.06374841 8.73632623 62.24441528 8.73130798 C58.4347052 8.72541571 54.62537071 8.73396706 50.81570435 8.75267029 C45.93631087 8.77545978 41.05779748 8.76233523 36.17843628 8.73838043 C32.42257068 8.72391506 28.66691318 8.72853181 24.91104126 8.7388916 C23.11213069 8.74155685 21.31320113 8.73829622 19.51431274 8.72897339 C16.99838332 8.71879544 14.48387209 8.73432506 11.9680481 8.75657654 C11.22711914 8.74847961 10.48619019 8.74038269 9.72280884 8.73204041 C4.84866232 8.81176241 2.33636668 9.76318453 -1.0475769 13.27415466 Z " fill="#F7759E" transform="translate(203.04757690429688,99.72584533691406)"/>
<path d="M0 0 C2.03954096 0.0084488 4.07621848 -0.0201578 6.11547852 -0.05200195 C15.48071533 -0.04738171 22.06001314 1.01147331 29.43774414 6.88354492 C32.91184262 11.60011612 32.10570933 17.9394612 31.37524414 23.44604492 C28.88348712 29.51293157 24.03705155 31.71192425 18.37524414 34.44604492 C19.10227539 34.96424805 19.82930664 35.48245117 20.57836914 36.01635742 C23.81174428 38.82523918 25.85824239 41.72590073 28.12524414 45.32104492 C28.52356445 45.92045898 28.92188477 46.51987305 29.33227539 47.13745117 C31.72694647 50.87963208 33.08904784 53.99699331 33.37524414 58.44604492 C32.37524414 60.32104492 32.37524414 60.32104492 30.37524414 61.44604492 C27.12524414 62.25854492 27.12524414 62.25854492 23.37524414 61.44604492 C20.51596491 58.44759724 18.49859006 54.98808656 16.37524414 51.44604492 C15.12950788 49.46419178 13.87960355 47.48495155 12.62524414 45.50854492 C11.79766602 44.16469727 11.79766602 44.16469727 10.95336914 42.79370117 C8.16897223 38.63321487 8.16897223 38.63321487 3.67602539 36.71557617 C2.68989258 36.56475586 1.70375977 36.41393555 0.68774414 36.25854492 C-1.08308919 35.98771159 -2.85392253 35.71687826 -4.62475586 35.44604492 C-4.60119019 36.41429199 -4.60119019 36.41429199 -4.57714844 37.40209961 C-4.51469784 40.33332522 -4.47573356 43.26441072 -4.43725586 46.19604492 C-4.39955078 47.7197168 -4.39955078 47.7197168 -4.36108398 49.27416992 C-4.34658203 50.74370117 -4.34658203 50.74370117 -4.33178711 52.24291992 C-4.30822144 53.59401855 -4.30822144 53.59401855 -4.28417969 54.97241211 C-4.69708701 57.97139207 -5.49174831 59.31578727 -7.62475586 61.44604492 C-11.18725586 61.88354492 -11.18725586 61.88354492 -14.62475586 61.44604492 C-16.84995784 58.10824195 -16.88436999 57.00249871 -16.9152832 53.10424805 C-16.92804291 52.01301636 -16.94080261 50.92178467 -16.95394897 49.79748535 C-16.95617462 48.61932251 -16.95840027 47.44115967 -16.96069336 46.22729492 C-16.96735016 45.01787231 -16.97400696 43.80844971 -16.98086548 42.56237793 C-16.9909971 40.00359623 -16.99568234 37.44478807 -16.99536133 34.88598633 C-16.99973856 30.96155568 -17.03606646 27.03824554 -17.07397461 23.11401367 C-17.07984167 20.63094461 -17.0838118 18.1478702 -17.08569336 15.66479492 C-17.10006439 14.48663208 -17.11443542 13.30846924 -17.12924194 12.09460449 C-17.12001205 10.45775696 -17.12001205 10.45775696 -17.1105957 8.7878418 C-17.11344574 7.82648315 -17.11629578 6.86512451 -17.11923218 5.87463379 C-16.62475586 3.44604492 -16.62475586 3.44604492 -14.78596497 1.63743591 C-10.34342232 -0.81156602 -4.95245836 -0.03128117 0 0 Z " fill="#F8FBFE" transform="translate(211.624755859375,272.553955078125)"/>
<path d="M0 0 C0.8070639 0.00091644 1.61412781 0.00183289 2.44564819 0.0027771 C4.1451407 0.00879995 5.84462324 0.02450643 7.54394531 0.04931641 C10.14688117 0.08591562 12.7483957 0.09033491 15.3515625 0.08984375 C17.00522065 0.0996723 18.65886916 0.11132816 20.3125 0.125 C21.09066071 0.12722565 21.86882141 0.12945129 22.67056274 0.13174438 C26.4720471 0.19870412 28.28606579 0.30268969 31.5234375 2.4609375 C31.8984375 5.4609375 31.8984375 5.4609375 31.5234375 8.4609375 C27.84414305 10.91380046 26.04965843 10.69322628 21.66796875 10.65625 C21.00633224 10.6534201 20.34469574 10.65059021 19.66300964 10.64767456 C17.55380013 10.63649668 15.44501825 10.61139731 13.3359375 10.5859375 C11.90430302 10.57590457 10.47266186 10.56677926 9.04101562 10.55859375 C5.53485972 10.53826821 2.0296262 10.49911741 -1.4765625 10.4609375 C-1.4765625 15.4109375 -1.4765625 20.3609375 -1.4765625 25.4609375 C0.59367187 25.43773437 2.66390625 25.41453125 4.796875 25.390625 C6.79914877 25.37672032 8.80142373 25.36288573 10.80371094 25.35107422 C12.19664531 25.34100873 13.58955852 25.32735516 14.98242188 25.31005859 C16.9829811 25.2858353 18.98369365 25.27552936 20.984375 25.265625 C22.79107666 25.24991455 22.79107666 25.24991455 24.63427734 25.23388672 C27.5234375 25.4609375 27.5234375 25.4609375 29.5234375 27.4609375 C29.8359375 29.9609375 29.8359375 29.9609375 29.5234375 32.4609375 C25.93675437 34.85205959 24.35947181 34.69474777 20.10546875 34.65625 C18.22504883 34.64658203 18.22504883 34.64658203 16.30664062 34.63671875 C14.99630859 34.61996094 13.68597656 34.60320312 12.3359375 34.5859375 C11.00065763 34.57590389 9.66537061 34.5667787 8.33007812 34.55859375 C5.06112105 34.53499117 1.79225679 34.49911969 -1.4765625 34.4609375 C-1.4765625 40.0709375 -1.4765625 45.6809375 -1.4765625 51.4609375 C0.81023437 51.43773437 3.09703125 51.41453125 5.453125 51.390625 C7.66389409 51.3750349 9.8746571 51.36288653 12.08544922 51.35107422 C13.62388848 51.34100632 15.16230857 51.32735104 16.70068359 51.31005859 C18.90987883 51.28584433 21.11882145 51.27446259 23.328125 51.265625 C24.01776337 51.25530243 24.70740173 51.24497986 25.41793823 51.23434448 C27.12144656 51.23394272 28.82429693 51.33902724 30.5234375 51.4609375 C32.5234375 53.4609375 32.5234375 53.4609375 32.7109375 56.5234375 C32.5234375 59.4609375 32.5234375 59.4609375 31.5234375 60.4609375 C28.4560327 60.59939277 25.41279287 60.67414392 22.34375 60.69921875 C21.42004608 60.7072905 20.49634216 60.71536224 19.54464722 60.72367859 C17.58593635 60.73753578 15.62720117 60.74825059 13.66845703 60.75610352 C10.66783071 60.77332619 7.66830307 60.81719831 4.66796875 60.86132812 C2.7682373 60.87145364 0.86849645 60.87997019 -1.03125 60.88671875 C-1.93132782 60.90422684 -2.83140564 60.92173492 -3.75875854 60.93977356 C-5.01488449 60.93538521 -5.01488449 60.93538521 -6.29638672 60.9309082 C-7.40105789 60.93970757 -7.40105789 60.93970757 -8.52804565 60.94868469 C-10.4765625 60.4609375 -10.4765625 60.4609375 -12.21157837 58.75431824 C-13.70079304 56.05441382 -13.86783474 54.36910305 -13.89648438 51.296875 C-13.92035217 49.75507568 -13.92035217 49.75507568 -13.94470215 48.18212891 C-13.94490356 47.07788574 -13.94510498 45.97364258 -13.9453125 44.8359375 C-13.95292603 43.69688965 -13.96053955 42.5578418 -13.96838379 41.38427734 C-13.97918544 38.97691032 -13.98203765 36.56949643 -13.97753906 34.16210938 C-13.97656607 30.4744686 -14.01820466 26.78890319 -14.0625 23.1015625 C-14.06770636 20.76302518 -14.0703952 18.42448062 -14.0703125 16.0859375 C-14.08670776 14.98169434 -14.10310303 13.87745117 -14.11999512 12.73974609 C-14.05204782 5.23436401 -14.05204782 5.23436401 -11.46923828 1.76318359 C-7.59977468 0.0794082 -4.1447811 -0.07694593 0 0 Z " fill="#F7FBFE" transform="translate(324.4765625,272.5390625)"/>
<path d="M0 0 C0.8070639 0.00091644 1.61412781 0.00183289 2.44564819 0.0027771 C4.1451407 0.00879995 5.84462324 0.02450643 7.54394531 0.04931641 C10.14688117 0.08591562 12.7483957 0.09033491 15.3515625 0.08984375 C17.00522065 0.0996723 18.65886916 0.11132816 20.3125 0.125 C21.09066071 0.12722565 21.86882141 0.12945129 22.67056274 0.13174438 C26.4720471 0.19870412 28.28606579 0.30268969 31.5234375 2.4609375 C31.8984375 5.4609375 31.8984375 5.4609375 31.5234375 8.4609375 C27.84414305 10.91380046 26.04965843 10.69322628 21.66796875 10.65625 C21.00633224 10.6534201 20.34469574 10.65059021 19.66300964 10.64767456 C17.55380013 10.63649668 15.44501825 10.61139731 13.3359375 10.5859375 C11.90430302 10.57590457 10.47266186 10.56677926 9.04101562 10.55859375 C5.53485972 10.53826821 2.0296262 10.49911741 -1.4765625 10.4609375 C-1.4765625 15.4109375 -1.4765625 20.3609375 -1.4765625 25.4609375 C0.59367187 25.43773437 2.66390625 25.41453125 4.796875 25.390625 C6.79914877 25.37672032 8.80142373 25.36288573 10.80371094 25.35107422 C12.19664531 25.34100873 13.58955852 25.32735516 14.98242188 25.31005859 C16.9829811 25.2858353 18.98369365 25.27552936 20.984375 25.265625 C22.79107666 25.24991455 22.79107666 25.24991455 24.63427734 25.23388672 C27.5234375 25.4609375 27.5234375 25.4609375 29.5234375 27.4609375 C29.8359375 29.9609375 29.8359375 29.9609375 29.5234375 32.4609375 C25.93675437 34.85205959 24.35947181 34.69474777 20.10546875 34.65625 C18.22504883 34.64658203 18.22504883 34.64658203 16.30664062 34.63671875 C14.99630859 34.61996094 13.68597656 34.60320312 12.3359375 34.5859375 C11.00065763 34.57590389 9.66537061 34.5667787 8.33007812 34.55859375 C5.06112105 34.53499117 1.79225679 34.49911969 -1.4765625 34.4609375 C-1.4765625 40.0709375 -1.4765625 45.6809375 -1.4765625 51.4609375 C0.81023437 51.43773437 3.09703125 51.41453125 5.453125 51.390625 C7.66389409 51.3750349 9.8746571 51.36288653 12.08544922 51.35107422 C13.62388848 51.34100632 15.16230857 51.32735104 16.70068359 51.31005859 C18.90987883 51.28584433 21.11882145 51.27446259 23.328125 51.265625 C24.01776337 51.25530243 24.70740173 51.24497986 25.41793823 51.23434448 C27.12144656 51.23394272 28.82429693 51.33902724 30.5234375 51.4609375 C32.5234375 53.4609375 32.5234375 53.4609375 32.7109375 56.5234375 C32.5234375 59.4609375 32.5234375 59.4609375 31.5234375 60.4609375 C28.4560327 60.59939277 25.41279287 60.67414392 22.34375 60.69921875 C21.42004608 60.7072905 20.49634216 60.71536224 19.54464722 60.72367859 C17.58593635 60.73753578 15.62720117 60.74825059 13.66845703 60.75610352 C10.66783071 60.77332619 7.66830307 60.81719831 4.66796875 60.86132812 C2.7682373 60.87145364 0.86849645 60.87997019 -1.03125 60.88671875 C-1.93132782 60.90422684 -2.83140564 60.92173492 -3.75875854 60.93977356 C-5.01488449 60.93538521 -5.01488449 60.93538521 -6.29638672 60.9309082 C-7.40105789 60.93970757 -7.40105789 60.93970757 -8.52804565 60.94868469 C-10.4765625 60.4609375 -10.4765625 60.4609375 -12.21157837 58.75431824 C-13.70079304 56.05441382 -13.86783474 54.36910305 -13.89648438 51.296875 C-13.92035217 49.75507568 -13.92035217 49.75507568 -13.94470215 48.18212891 C-13.94490356 47.07788574 -13.94510498 45.97364258 -13.9453125 44.8359375 C-13.95292603 43.69688965 -13.96053955 42.5578418 -13.96838379 41.38427734 C-13.97918544 38.97691032 -13.98203765 36.56949643 -13.97753906 34.16210938 C-13.97656607 30.4744686 -14.01820466 26.78890319 -14.0625 23.1015625 C-14.06770636 20.76302518 -14.0703952 18.42448062 -14.0703125 16.0859375 C-14.08670776 14.98169434 -14.10310303 13.87745117 -14.11999512 12.73974609 C-14.05204782 5.23436401 -14.05204782 5.23436401 -11.46923828 1.76318359 C-7.59977468 0.0794082 -4.1447811 -0.07694593 0 0 Z " fill="#F7FBFE" transform="translate(268.4765625,272.5390625)"/>
<path d="M0 0 C1.77117187 -0.03673828 1.77117187 -0.03673828 3.578125 -0.07421875 C10.08900639 -0.09621497 14.33975076 -0.0911482 19.25 4.375 C20.178125 5.2103125 20.178125 5.2103125 21.125 6.0625 C22.94168433 9.79679556 22.99412873 13.31739239 22.25 17.375 C20.8928262 20.17054603 19.69190109 21.25160775 17.25 23.375 C13.9375 24.25 13.9375 24.25 11.25 24.375 C11.25 25.035 11.25 25.695 11.25 26.375 C11.83394531 26.60703125 12.41789062 26.8390625 13.01953125 27.078125 C15.803874 28.69704233 17.0976548 30.49094831 18.9375 33.125 C19.53949219 33.96546875 20.14148438 34.8059375 20.76171875 35.671875 C22.41098007 38.66738375 23.04537957 40.96783195 23.25 44.375 C21.25 46.375 21.25 46.375 18.80859375 46.71484375 C16.25 46.375 16.25 46.375 14.66015625 44.94140625 C14.21542969 44.28011719 13.77070313 43.61882812 13.3125 42.9375 C12.81363281 42.21433594 12.31476563 41.49117188 11.80078125 40.74609375 C11.28902344 39.96363281 10.77726562 39.18117188 10.25 38.375 C9.70730469 37.56160156 9.16460937 36.74820313 8.60546875 35.91015625 C7.57657819 34.36556871 6.55622005 32.81524276 5.546875 31.2578125 C3.52244668 28.27749802 3.52244668 28.27749802 0.3046875 26.9609375 C-1.71354167 26.765625 -3.73177083 26.5703125 -5.75 26.375 C-5.72679687 27.65117187 -5.70359375 28.92734375 -5.6796875 30.2421875 C-5.66093171 31.9114525 -5.64273131 33.5807238 -5.625 35.25 C-5.60824219 36.09175781 -5.59148437 36.93351562 -5.57421875 37.80078125 C-5.56777344 38.60644531 -5.56132812 39.41210938 -5.5546875 40.2421875 C-5.54421387 40.98581543 -5.53374023 41.72944336 -5.52294922 42.49560547 C-5.75 44.375 -5.75 44.375 -7.75 46.375 C-10.25 46.625 -10.25 46.625 -12.75 46.375 C-15.12046531 44.00453469 -15.00183138 43.54095828 -15.00878906 40.32421875 C-15.01509338 39.48995361 -15.02139771 38.65568848 -15.02789307 37.79614258 C-15.0238446 36.89404053 -15.01979614 35.99193848 -15.015625 35.0625 C-15.01753845 34.13783936 -15.0194519 33.21317871 -15.02142334 32.26049805 C-15.02278566 30.30354541 -15.01908596 28.34658376 -15.01074219 26.38964844 C-15.00004334 23.3871641 -15.01063591 20.38527813 -15.0234375 17.3828125 C-15.02211591 15.48437367 -15.01955354 13.58593522 -15.015625 11.6875 C-15.01967346 10.78539795 -15.02372192 9.8832959 -15.02789307 8.95385742 C-15.02158875 8.11959229 -15.01528442 7.28532715 -15.00878906 6.42578125 C-15.00719788 5.69012939 -15.00560669 4.95447754 -15.00396729 4.1965332 C-14.12600606 -2.10048068 -4.65287741 0.00501388 0 0 Z " fill="#F9FCFE" transform="translate(202.75,353.625)"/>
<path d="M0 0 C0.73951904 -0.00287018 1.47903809 -0.00574036 2.2409668 -0.00869751 C3.80095182 -0.01073453 5.3609626 -0.00522995 6.92089844 0.00732422 C9.30461908 0.0233844 11.6866444 0.00746471 14.0703125 -0.01171875 C15.5885454 -0.00973625 17.10677724 -0.00589244 18.625 0 C19.69077271 -0.00910904 19.69077271 -0.00910904 20.77807617 -0.0184021 C24.90292288 0.0400353 27.31342204 0.48705752 30.3125 3.3984375 C29.5625 8.1484375 29.5625 8.1484375 27.3125 10.3984375 C24.60693359 10.62548828 24.60693359 10.62548828 21.2109375 10.59375 C19.39335937 10.58408203 19.39335937 10.58408203 17.5390625 10.57421875 C16.26804688 10.55746094 14.99703125 10.54070312 13.6875 10.5234375 C12.40875 10.51441406 11.13 10.50539063 9.8125 10.49609375 C6.64575421 10.47246132 3.47910415 10.43658936 0.3125 10.3984375 C0.3125 15.3484375 0.3125 20.2984375 0.3125 25.3984375 C2.76816406 25.36363281 2.76816406 25.36363281 5.2734375 25.328125 C7.41145379 25.30937047 9.54947499 25.29116993 11.6875 25.2734375 C12.76773438 25.25667969 13.84796875 25.23992187 14.9609375 25.22265625 C15.9921875 25.21621094 17.0234375 25.20976562 18.0859375 25.203125 C19.51558838 25.18741455 19.51558838 25.18741455 20.97412109 25.17138672 C23.3125 25.3984375 23.3125 25.3984375 25.3125 27.3984375 C25.4375 30.5234375 25.4375 30.5234375 25.3125 33.3984375 C22.75526771 34.67705365 20.94512898 34.51180359 18.0859375 34.49609375 C17.0546875 34.49287109 16.0234375 34.48964844 14.9609375 34.48632812 C13.34058594 34.47375977 13.34058594 34.47375977 11.6875 34.4609375 C10.05554688 34.45416992 10.05554688 34.45416992 8.390625 34.44726562 C5.69786211 34.43545526 3.00520812 34.41898528 0.3125 34.3984375 C0.33606567 35.4654187 0.33606567 35.4654187 0.36010742 36.55395508 C0.42241915 39.77286854 0.46147867 42.99165518 0.5 46.2109375 C0.52513672 47.33048828 0.55027344 48.45003906 0.57617188 49.60351562 C0.59067383 51.21323242 0.59067383 51.21323242 0.60546875 52.85546875 C0.62903442 54.3401062 0.62903442 54.3401062 0.65307617 55.85473633 C0.3125 58.3984375 0.3125 58.3984375 -0.9831543 60.22143555 C-3.82635141 62.18491546 -6.3617607 61.76124542 -9.6875 61.3984375 C-11.91270198 58.06063453 -11.94711413 56.95489129 -11.97802734 53.05664062 C-11.99078705 51.96540894 -12.00354675 50.87417725 -12.01669312 49.74987793 C-12.01891876 48.57171509 -12.02114441 47.39355225 -12.0234375 46.1796875 C-12.0300943 44.97026489 -12.0367511 43.76084229 -12.04360962 42.51477051 C-12.05374124 39.9559888 -12.05842648 37.39718065 -12.05810547 34.83837891 C-12.0624827 30.91394826 -12.0988106 26.99063812 -12.13671875 23.06640625 C-12.14258581 20.58333719 -12.14655594 18.10026278 -12.1484375 15.6171875 C-12.16280853 14.43902466 -12.17717957 13.26086182 -12.19198608 12.04699707 C-12.1827562 10.41014954 -12.1827562 10.41014954 -12.17333984 8.74023438 C-12.17618988 7.77887573 -12.17903992 6.81751709 -12.18197632 5.82702637 C-11.6875 3.3984375 -11.6875 3.3984375 -9.87661743 1.58883667 C-6.67090286 -0.15436811 -3.55785744 -0.03040861 0 0 Z " fill="#F8FCFE" transform="translate(155.6875,272.6015625)"/>
<path d="M0 0 C4.82048282 1.83355788 6.49486811 5.2997716 9.12109375 9.5859375 C9.60771484 10.34777344 10.09433594 11.10960937 10.59570312 11.89453125 C11.59804988 13.46833388 12.59190819 15.04757175 13.57763672 16.63183594 C15.3870196 19.53763112 17.22296742 22.42570649 19.0625 25.3125 C19.95497437 26.71363037 19.95497437 26.71363037 20.86547852 28.14306641 C21.30045654 28.82546387 21.73543457 29.50786133 22.18359375 30.2109375 C22.19817627 29.40873779 22.21275879 28.60653809 22.2277832 27.7800293 C22.30216094 24.15234051 22.39885618 20.52558246 22.49609375 16.8984375 C22.51865234 15.63580078 22.54121094 14.37316406 22.56445312 13.07226562 C22.59990234 11.86376953 22.63535156 10.65527344 22.671875 9.41015625 C22.69805908 8.29471436 22.72424316 7.17927246 22.7512207 6.0300293 C23.18359375 3.2109375 23.18359375 3.2109375 24.55151367 1.30786133 C26.18359375 0.2109375 26.18359375 0.2109375 28.80859375 0.4609375 C31.18359375 1.2109375 31.18359375 1.2109375 32.18359375 2.2109375 C32.29722343 5.27836597 32.34778607 8.32241895 32.3515625 11.390625 C32.3565551 12.77618088 32.3565551 12.77618088 32.36164856 14.18972778 C32.36672233 16.14845276 32.36905675 18.10718642 32.36889648 20.06591797 C32.37107941 23.06622571 32.38922049 26.06616383 32.40820312 29.06640625 C32.41113763 30.96614457 32.41312204 32.86588465 32.4140625 34.765625 C32.42124802 35.66570282 32.42843353 36.56578064 32.43583679 37.49313354 C32.43276016 38.33055084 32.42968353 39.16796814 32.42651367 40.03076172 C32.42793869 40.76720917 32.42936371 41.50365662 32.43083191 42.26242065 C32.18359375 44.2109375 32.18359375 44.2109375 30.18359375 47.2109375 C27.43359375 47.8359375 27.43359375 47.8359375 24.18359375 47.2109375 C19.38804861 42.88709873 15.96982466 37.0688256 12.55859375 31.6484375 C11.6292454 30.18858613 10.69956385 28.72894681 9.76953125 27.26953125 C9.33350586 26.5822998 8.89748047 25.89506836 8.44824219 25.18701172 C6.73036354 22.50274342 4.96288836 19.85481892 3.18359375 17.2109375 C3.16377441 18.04866699 3.14395508 18.88639648 3.12353516 19.74951172 C3.04548763 22.85459584 2.9587974 25.95928289 2.86621094 29.06396484 C2.80905339 31.06980721 2.76190779 33.07592668 2.71484375 35.08203125 C2.65683594 36.96728516 2.65683594 36.96728516 2.59765625 38.890625 C2.56623535 40.05319824 2.53481445 41.21577148 2.50244141 42.41357422 C2.18359375 45.2109375 2.18359375 45.2109375 0.18359375 47.2109375 C-4.37196181 46.65538194 -4.37196181 46.65538194 -5.81640625 45.2109375 C-5.94244882 42.14351968 -6.0051071 39.09986925 -6.01953125 36.03125 C-6.02523132 35.10754608 -6.0309314 34.18384216 -6.0368042 33.23214722 C-6.0462697 31.27342887 -6.05279431 29.31469448 -6.05664062 27.35595703 C-6.06634295 24.35551202 -6.09735026 21.3557527 -6.12890625 18.35546875 C-6.13543627 16.45573325 -6.14068675 14.55599283 -6.14453125 12.65625 C-6.15687805 11.75617218 -6.16922485 10.85609436 -6.1819458 9.92874146 C-6.17744415 8.67261551 -6.17744415 8.67261551 -6.17285156 7.39111328 C-6.17649719 6.65466583 -6.18014282 5.91821838 -6.18389893 5.15945435 C-5.48161428 1.4358061 -3.64394858 0.27291709 0 0 Z " fill="#F7FBFE" transform="translate(306.81640625,352.7890625)"/>
<path d="M0 0 C1.03318359 -0.01998047 2.06636719 -0.03996094 3.13085938 -0.06054688 C9.1394752 -0.05669273 13.03822265 0.23171492 17.6875 4.4375 C20.4659215 7.35660107 21.09994577 9.30580258 21.0625 13.3125 C20.88631064 17.74986169 20.50530016 20.85120888 17.6875 24.4375 C10.96732852 29.24836101 3.63426063 28.87966906 -4.3125 28.4375 C-4.27769531 29.48550781 -4.24289063 30.53351563 -4.20703125 31.61328125 C-4.17889063 32.99217147 -4.15159076 34.37107902 -4.125 35.75 C-4.08729492 36.78543945 -4.08729492 36.78543945 -4.04882812 37.84179688 C-3.97494194 42.93994333 -3.97494194 42.93994333 -5.6640625 45.4296875 C-7.3125 46.4375 -7.3125 46.4375 -9.875 46.25 C-12.3125 45.4375 -12.3125 45.4375 -14.3125 43.4375 C-14.52486892 40.45961584 -14.61645649 37.57713953 -14.61328125 34.59765625 C-14.61756638 33.71975937 -14.6218515 32.84186249 -14.62626648 31.93736267 C-14.632015 30.07877465 -14.63250621 28.22016413 -14.62817383 26.36157227 C-14.62501636 23.51474668 -14.64845737 20.66896243 -14.67382812 17.82226562 C-14.67610128 16.01823048 -14.67680454 14.21419254 -14.67578125 12.41015625 C-14.684991 11.55696304 -14.69420074 10.70376984 -14.70368958 9.82472229 C-14.65697661 3.86898966 -14.65697661 3.86898966 -12.93652344 1.71395874 C-9.45690455 -1.02097097 -4.23143552 -0.02871424 0 0 Z " fill="#F2F9FE" transform="translate(119.3125,353.5625)"/>
<path d="M0 0 C4.49234613 1.52418887 5.13840209 3.13609797 7.5 7.1875 C8.65097565 9.72431991 9.72295043 12.22687584 10.734375 14.81640625 C11.15870819 15.88458839 11.15870819 15.88458839 11.59161377 16.97434998 C12.18325322 18.46970998 12.77132021 19.96648795 13.35595703 21.46459961 C14.25051785 23.75132376 15.16160593 26.03097638 16.07421875 28.31054688 C16.64944383 29.77043722 17.22369649 31.23071117 17.796875 32.69140625 C18.20459137 33.70721519 18.20459137 33.70721519 18.62054443 34.74354553 C20.000647 38.31957997 21.02388561 41.34407676 20.5 45.1875 C18.5 47.1875 18.5 47.1875 15.875 47.3125 C15.09125 47.27125 14.3075 47.23 13.5 47.1875 C12.82591692 45.92058493 12.16099503 44.64879251 11.5 43.375 C11.12875 42.66730469 10.7575 41.95960938 10.375 41.23046875 C9.5 39.1875 9.5 39.1875 9.5 36.1875 C2.9 36.1875 -3.7 36.1875 -10.5 36.1875 C-10.995 38.6625 -10.995 38.6625 -11.5 41.1875 C-12.45394836 43.20987052 -13.44535351 45.2157696 -14.5 47.1875 C-16.875 47.3125 -16.875 47.3125 -19.5 47.1875 C-20.16 46.5275 -20.82 45.8675 -21.5 45.1875 C-21.16545232 39.93032221 -19.63056284 35.31389771 -17.69921875 30.4609375 C-17.42157181 29.75023102 -17.14392487 29.03952454 -16.85786438 28.30728149 C-16.2723814 26.81502102 -15.68306178 25.32426065 -15.09008789 23.83496094 C-14.18907215 21.56645822 -13.30579017 19.29159273 -12.42382812 17.015625 C-11.8500139 15.55947943 -11.27517828 14.10373585 -10.69921875 12.6484375 C-10.43864182 11.97436859 -10.17806488 11.30029968 -9.90959167 10.60580444 C-5.76406867 0.30878939 -5.76406867 0.30878939 0 0 Z " fill="#F5FAFE" transform="translate(160.5,352.8125)"/>
<path d="M0 0 C3.99438442 2.14172586 6.77480495 4.16304156 9.25 8.0234375 C9.5625 10.6484375 9.5625 10.6484375 9.25 13.0234375 C7.25 15.0234375 7.25 15.0234375 5 15.5859375 C1.16218933 14.80093077 -0.09839431 12.6818671 -2.41796875 9.65234375 C-3.67224334 7.89177655 -3.67224334 7.89177655 -5.75 7.0234375 C-10.52255923 6.62572423 -12.83482672 6.54890321 -17.125 8.7734375 C-20.66422082 11.80705534 -21.61822451 13.60300037 -22.05078125 18.265625 C-22.05464844 19.46445312 -22.05851562 20.66328125 -22.0625 21.8984375 C-22.07925781 23.09210938 -22.09601563 24.28578125 -22.11328125 25.515625 C-21.63806896 30.10423403 -20.14216834 33.41708942 -17.125 36.8984375 C-11.21918538 39.69592864 -4.67132863 38.03920895 1.25 36.0234375 C1.58 33.3834375 1.91 30.7434375 2.25 28.0234375 C-1.38 28.0234375 -5.01 28.0234375 -8.75 28.0234375 C-9.245 25.5484375 -9.245 25.5484375 -9.75 23.0234375 C-8.2279041 21.5013416 -6.86789918 21.89384229 -4.75 21.890625 C-3.945625 21.88933594 -3.14125 21.88804687 -2.3125 21.88671875 C-1.466875 21.89058594 -0.62125 21.89445312 0.25 21.8984375 C1.5184375 21.89263672 1.5184375 21.89263672 2.8125 21.88671875 C3.616875 21.88800781 4.42125 21.88929688 5.25 21.890625 C5.9925 21.89175293 6.735 21.89288086 7.5 21.89404297 C9.25 22.0234375 9.25 22.0234375 10.25 23.0234375 C10.32325168 25.88611317 10.34238205 28.7241565 10.3125 31.5859375 C10.30798828 32.39224609 10.30347656 33.19855469 10.29882812 34.02929688 C10.28700518 36.02737506 10.26906914 38.02541533 10.25 40.0234375 C8.6470947 40.83842312 7.04262722 41.65033677 5.4375 42.4609375 C4.54417969 42.91339844 3.65085937 43.36585938 2.73046875 43.83203125 C-3.93106524 47.03166568 -12.15024907 47.26950006 -19.2734375 45.33984375 C-25.11854921 42.64123854 -28.93728609 38.25655372 -31.5625 32.3984375 C-33.94937532 25.16882671 -33.85576129 17.64056725 -30.8125 10.6484375 C-24.7642287 -0.11367276 -11.46703271 -4.07209968 0 0 Z " fill="#F6FBFE" transform="translate(379.75,353.9765625)"/>
<path d="M0 0 C3.0625 0.25 3.0625 0.25 6 1 C7.6498007 4.29960141 7.38258361 7.99127884 7.5625 11.625 C7.60568359 12.42679687 7.64886719 13.22859375 7.69335938 14.0546875 C7.79951457 16.0362511 7.90026855 18.01810271 8 20 C9.89907134 18.12818806 11.79426404 16.25269944 13.6875 14.375 C14.21794922 13.85292969 14.74839844 13.33085937 15.29492188 12.79296875 C17.9054733 10.19843297 20.38825121 7.58699982 22.70703125 4.7265625 C25 2 25 2 28 0 C30.6875 0.375 30.6875 0.375 33 1 C33.875 3.0625 33.875 3.0625 34 6 C30.99754511 10.86375533 26.4455025 14.50710518 22 18 C23.37681366 20.91277294 24.95921544 23.48972052 26.8203125 26.1171875 C27.62275391 27.27541016 27.62275391 27.27541016 28.44140625 28.45703125 C29.56270662 30.06743712 30.69293262 31.67166521 31.83203125 33.26953125 C36.91868054 40.67165286 36.91868054 40.67165286 36 46 C35 47 35 47 32.1875 47.3671875 C29 47 29 47 26.875 44.9453125 C26.25625 44.01460938 25.6375 43.08390625 25 42.125 C24.3296875 41.13113281 23.659375 40.13726562 22.96875 39.11328125 C20.232559 34.78640779 17.54428236 30.44285669 15 26 C12.18953509 27.67307049 9.99093924 29.38869564 8 32 C7.34257801 35.15812211 7.1882349 38.07065081 7.16796875 41.29296875 C7 44 7 44 5 47 C2.5 47.3125 2.5 47.3125 0 47 C-2.38846827 44.61153173 -2.2519244 44.10779425 -2.25878906 40.85742188 C-2.26509338 40.00313599 -2.27139771 39.1488501 -2.27789307 38.26867676 C-2.2738446 37.34470093 -2.26979614 36.4207251 -2.265625 35.46875 C-2.26753845 34.52189331 -2.2694519 33.57503662 -2.27142334 32.5994873 C-2.27278573 30.59545628 -2.26908556 28.59141646 -2.26074219 26.58740234 C-2.25004347 23.51249447 -2.26063572 20.43817086 -2.2734375 17.36328125 C-2.27211591 15.41926954 -2.26955354 13.47525819 -2.265625 11.53125 C-2.27169769 10.14528625 -2.27169769 10.14528625 -2.27789307 8.73132324 C-2.27158875 7.87703735 -2.26528442 7.02275146 -2.25878906 6.14257812 C-2.25719788 5.38916138 -2.25560669 4.63574463 -2.25396729 3.85949707 C-2 2 -2 2 0 0 Z " fill="#F9FCFE" transform="translate(236,353)"/>
<path d="M0 0 C2.8763988 3.43861639 4.59308029 7.24064007 6.35546875 11.3203125 C6.66196854 12.0201828 6.96846832 12.7200531 7.28425598 13.44113159 C7.92795221 14.91424261 8.56907369 16.38848108 9.20776367 17.86376953 C10.18838357 20.12703928 11.1785188 22.38596734 12.16992188 24.64453125 C12.79483835 26.0778777 13.4192066 27.51146333 14.04296875 28.9453125 C14.3397905 29.62240265 14.63661224 30.2994928 14.94242859 30.99710083 C17 35.76909215 17 35.76909215 17 38 C2.15 38 -12.7 38 -28 38 C-21.25185685 27.87778528 -21.25185685 27.87778528 -18.125 23.80859375 C-17.44953125 22.92623047 -16.7740625 22.04386719 -16.078125 21.13476562 C-15.04945313 19.79961914 -15.04945313 19.79961914 -14 18.4375 C-12.62473049 16.64473796 -11.24972645 14.85177224 -9.875 13.05859375 C-9.22273438 12.20894043 -8.57046875 11.35928711 -7.8984375 10.48388672 C-5.2413303 7.00736812 -2.61555804 3.50784476 0 0 Z " fill="#6EC8F6" transform="translate(294,115)"/>
<path d="M0 0 C1.07121094 -0.00945648 2.14242187 -0.01891296 3.24609375 -0.02865601 C4.98052734 -0.01954697 4.98052734 -0.01954697 6.75 -0.01025391 C7.93722656 -0.01312408 9.12445313 -0.01599426 10.34765625 -0.01895142 C12.85937985 -0.02099417 15.37111928 -0.01544963 17.8828125 -0.00292969 C21.73473572 0.01311999 25.58560955 -0.00277228 29.4375 -0.02197266 C31.87500232 -0.01999026 34.31250399 -0.01614667 36.75 -0.01025391 C37.90628906 -0.0163266 39.06257813 -0.02239929 40.25390625 -0.02865601 C41.32511719 -0.01919952 42.39632812 -0.00974304 43.5 0 C44.91539062 0.00358017 44.91539062 0.00358017 46.359375 0.00723267 C48.75 0.38818359 48.75 0.38818359 50.55078125 1.72885132 C52.44512855 4.35001749 52.197928 6.25268762 51.75 9.38818359 C49.74051642 11.93342393 48.53370186 13.22424918 45.32177734 13.89611816 C44.4189502 13.89930054 43.51612305 13.90248291 42.5859375 13.90576172 C41.55807129 13.91837036 40.53020508 13.930979 39.47119141 13.94396973 C37.81482666 13.93182434 37.81482666 13.93182434 36.125 13.91943359 C34.41642822 13.92517395 34.41642822 13.92517395 32.67333984 13.93103027 C30.26594153 13.93375134 27.85851374 13.9263767 25.45117188 13.90966797 C21.76365318 13.88826285 18.07808301 13.90946492 14.390625 13.93505859 C12.05207903 13.93241535 9.71353427 13.92729046 7.375 13.91943359 C6.27075684 13.92753052 5.16651367 13.93562744 4.02880859 13.94396973 C3.00094238 13.93136108 1.97307617 13.91875244 0.9140625 13.90576172 C-0.44017822 13.90098816 -0.44017822 13.90098816 -1.82177734 13.89611816 C-5.03370186 13.22424918 -6.24051642 11.93342393 -8.25 9.38818359 C-8.697928 6.25268762 -8.94512855 4.35001749 -7.05078125 1.72885132 C-4.61290596 -0.086128 -3.02428233 0.00764979 0 0 Z " fill="#FED0E0" transform="translate(226.25,221.61181640625)"/>
<path d="M0 0 C1.11503906 0.00966797 2.23007813 0.01933594 3.37890625 0.02929688 C5.11720703 0.06700195 5.11720703 0.06700195 6.890625 0.10546875 C8.06496094 0.11900391 9.23929688 0.13253906 10.44921875 0.14648438 C13.34681798 0.18182095 16.24348927 0.23115896 19.140625 0.29296875 C18.03654297 1.39511719 18.03654297 1.39511719 16.91015625 2.51953125 C15.25636222 4.17565785 13.60648849 5.83573583 11.96484375 7.50390625 C10.90716797 8.57511719 10.90716797 8.57511719 9.828125 9.66796875 C9.13074219 10.37695312 8.43335938 11.0859375 7.71484375 11.81640625 C5.6507737 13.80217319 3.56012167 15.69072131 1.3984375 17.56640625 C-3.06821619 21.44450403 -7.37557057 25.47797462 -11.671875 29.54296875 C-12.42146484 30.249375 -13.17105469 30.95578125 -13.94335938 31.68359375 C-17.78349559 35.27090409 -17.78349559 35.27090409 -21.4675293 39.01464844 C-22.859375 40.29296875 -22.859375 40.29296875 -24.859375 40.29296875 C-24.859375 40.95296875 -24.859375 41.61296875 -24.859375 42.29296875 C-25.519375 41.96296875 -26.179375 41.63296875 -26.859375 41.29296875 C-24.52579427 35.92976698 -22.17767989 30.5732639 -19.81591797 25.22241211 C-19.01469581 23.40158532 -18.21745974 21.57899906 -17.42431641 19.75463867 C-16.2829291 17.13116208 -15.1273113 14.51436696 -13.96875 11.8984375 C-13.61754089 11.08271774 -13.26633179 10.26699799 -12.90447998 9.42655945 C-9.91328576 2.73641331 -7.74257781 -0.11850884 0 0 Z " fill="#70C8F5" transform="translate(211.859375,109.70703125)"/>
<path d="M0 0 C2.51699173 2.58396269 2.97288323 3.7869397 3.4375 7.4375 C2.91403784 11.6999776 2.22526369 13.17789427 -1 16 C-8.530855 18.64128288 -16.10063948 18.22557952 -24 18.125 C-25.36067049 18.11494978 -26.72134817 18.10582754 -28.08203125 18.09765625 C-31.38820647 18.0742082 -34.6940088 18.04138856 -38 18 C-38.33 16.35 -38.66 14.7 -39 13 C-29.19491721 4.60800267 -13.31769933 -2.83662188 0 0 Z " fill="#FEF9FB" transform="translate(340,182)"/>
<path d="M0 0 C24.45075534 4.85198935 24.45075534 4.85198935 30 13 C29.72243828 14.6768567 29.39259422 16.34628943 29 18 C24.71333264 18.07462728 20.42701793 18.12882508 16.13989258 18.16479492 C14.68409632 18.17980313 13.22834468 18.20021633 11.77270508 18.22631836 C9.66997211 18.26305676 7.56784115 18.2798056 5.46484375 18.29296875 C3.57173462 18.31653442 3.57173462 18.31653442 1.64038086 18.34057617 C-3.23483265 17.88447512 -7.22673183 16.60166157 -10.9375 13.25 C-12.47226793 9.9999032 -12.38000524 7.54671553 -12 4 C-9.88636666 -1.49544669 -5.03550855 -0.67692708 0 0 Z " fill="#FEF9FB" transform="translate(164,182)"/>
<path d="M0 0 C1.25159912 0.00523682 2.50319824 0.01047363 3.79272461 0.01586914 C4.78942421 0.01799156 4.78942421 0.01799156 5.80625916 0.02015686 C7.93590735 0.02577021 10.06545175 0.03832485 12.19506836 0.05102539 C13.63582205 0.05603868 15.07657739 0.06060188 16.51733398 0.06469727 C20.05577938 0.07574394 23.59416375 0.09301747 27.13256836 0.11352539 C27.98584171 2.94238195 28.17417939 3.96959544 27.32397461 6.91040039 C25.37467813 10.44437674 23.73937516 13.22424564 20.13256836 15.11352539 C12.26645364 16.55940955 4.05662726 15.77976506 -3.86743164 15.11352539 C-3.89428576 12.80108747 -3.91376005 10.48856269 -3.92993164 8.17602539 C-3.9415332 6.88825195 -3.95313477 5.60047852 -3.96508789 4.27368164 C-3.8377164 0.15194024 -3.8377164 0.15194024 0 0 Z " fill="#3B2C60" transform="translate(253.867431640625,183.886474609375)"/>
<path d="M0 0 C4.25414623 -0.02465622 8.50825498 -0.04283899 12.76245117 -0.05493164 C14.21070073 -0.05997101 15.65894517 -0.06680253 17.10717773 -0.07543945 C19.18474588 -0.08752247 21.26224697 -0.09323211 23.33984375 -0.09765625 C24.59144287 -0.10289307 25.84304199 -0.10812988 27.13256836 -0.11352539 C30 0 30 0 31 1 C31.07271741 3.35313555 31.08370868 5.70833668 31.0625 8.0625 C31.05347656 9.35285156 31.04445312 10.64320313 31.03515625 11.97265625 C31.02355469 12.97167969 31.01195312 13.97070312 31 15 C10.31948526 16.73877799 10.31948526 16.73877799 5.06201172 13.98486328 C1.94558012 11.24674477 0.13888342 7.93932623 -1 4 C-0.55053711 1.82519531 -0.55053711 1.82519531 0 0 Z " fill="#3B2C60" transform="translate(215,184)"/>
<path d="M0 0 C2.375 0.75 2.375 0.75 3.375 1.75 C3.47801414 3.08993616 3.51348453 4.43517965 3.52026367 5.77905273 C3.52983345 7.06059486 3.52983345 7.06059486 3.53959656 8.36802673 C3.54070938 9.29716385 3.5418222 10.22630096 3.54296875 11.18359375 C3.54629715 12.13186539 3.54962555 13.08013702 3.55305481 14.05714417 C3.55812819 16.06714389 3.56046301 18.07715208 3.56030273 20.0871582 C3.56248822 23.17087619 3.58063683 26.25423606 3.59960938 29.33789062 C3.60254334 31.2864571 3.60452812 33.23502529 3.60546875 35.18359375 C3.61265427 36.11070663 3.61983978 37.03781952 3.62724304 37.99302673 C3.62416641 38.85054031 3.62108978 39.70805389 3.61791992 40.59155273 C3.61934494 41.34798569 3.62076996 42.10441864 3.62223816 42.8837738 C3.375 44.75 3.375 44.75 1.375 46.75 C-1.125 47.0625 -1.125 47.0625 -3.625 46.75 C-5.65038151 43.71192773 -5.87759698 43.10568826 -5.8996582 39.69335938 C-5.90919022 38.88241821 -5.91872223 38.07147705 -5.92854309 37.23596191 C-5.92763168 36.36403198 -5.92672028 35.49210205 -5.92578125 34.59375 C-5.93006638 33.69507202 -5.9343515 32.79639404 -5.93876648 31.8704834 C-5.94450843 29.97079308 -5.94501103 28.07108077 -5.94067383 26.17138672 C-5.93751196 23.26101319 -5.96098096 20.35165421 -5.98632812 17.44140625 C-5.9886009 15.59635545 -5.98930472 13.75130191 -5.98828125 11.90625 C-5.997491 11.03432007 -6.00670074 10.16239014 -6.01618958 9.26403809 C-6.00996078 8.45309692 -6.00373199 7.64215576 -5.99731445 6.80664062 C-5.99794388 6.09399048 -5.9985733 5.38134033 -5.9992218 4.64709473 C-5.28756262 1.03938168 -3.60357699 -0.34319781 0 0 Z " fill="#F8FCFE" transform="translate(286.625,353.25)"/>
<path d="M0 0 C3.2508878 -0.10796306 6.49819179 -0.18729295 9.75 -0.25 C10.67039063 -0.28351563 11.59078125 -0.31703125 12.5390625 -0.3515625 C19.34620696 -0.45021677 19.34620696 -0.45021677 22.609375 1.796875 C24.65618491 5.03957385 24.53576461 7.2496477 24 11 C21.78136971 13.90717073 20.48055071 14.83981643 17 16 C15.66474283 16.07973476 14.32587917 16.10771338 12.98828125 16.09765625 C11.85229492 16.09282227 11.85229492 16.09282227 10.69335938 16.08789062 C9.90767578 16.07951172 9.12199219 16.07113281 8.3125 16.0625 C7.51521484 16.05798828 6.71792969 16.05347656 5.89648438 16.04882812 C3.93095743 16.0370585 1.96546915 16.01912348 0 16 C0 10.72 0 5.44 0 0 Z " fill="#0189EF" transform="translate(207,283)"/>
<path d="M0 0 C1.794375 0.2165625 1.794375 0.2165625 3.625 0.4375 C-3.47756504 8.88379356 -10.89482807 17.07543559 -18.7734375 24.8046875 C-20.51359577 26.57880008 -22.13100214 28.42736551 -23.75 30.3125 C-24.95500364 31.69041896 -26.1635756 33.06522256 -27.375 34.4375 C-28.09945312 35.26507813 -28.82390625 36.09265625 -29.5703125 36.9453125 C-35.31269072 43.15486726 -35.31269072 43.15486726 -38.50390625 44.00390625 C-40.4375 44 -40.4375 44 -43.375 43.4375 C-39.35987265 37.63787161 -34.85513655 32.78828792 -29.83984375 27.87109375 C-26.38938962 24.48072215 -23.15572014 20.98637549 -20.01953125 17.30078125 C-17.57376667 14.52968931 -14.93023767 11.97376684 -12.27734375 9.40234375 C-10.4474005 7.51227916 -8.94081056 5.54646436 -7.375 3.4375 C-5.05976468 0.61700615 -3.65326281 0.00640923 0 0 Z " fill="#71CBF7" transform="translate(264.375,109.5625)"/>
<path d="M0 0 C2.4178712 -0.10826289 4.83087556 -0.18739789 7.25 -0.25 C8.27287109 -0.30027344 8.27287109 -0.30027344 9.31640625 -0.3515625 C12.78364708 -0.41888756 14.65332575 -0.25400975 17.484375 1.8203125 C19 4 19 4 19 7.125 C18 10 18 10 16.390625 11.171875 C13.10979127 12.30837296 10.21197082 12.18911057 6.75 12.125 C5.48671875 12.10695313 4.2234375 12.08890625 2.921875 12.0703125 C1.95765625 12.04710937 0.9934375 12.02390625 0 12 C0 8.04 0 4.08 0 0 Z " fill="#078CEF" transform="translate(197,361)"/>
<path d="M0 0 C11.77922369 -0.28045771 11.77922369 -0.28045771 15 2 C16.02897575 5.70431271 16.57483346 7.90781642 14.75 11.375 C11.69233946 14.21425622 8.78580264 14.11410133 4.8125 14.0625 C3.224375 14.041875 1.63625 14.02125 0 14 C0 9.38 0 4.76 0 0 Z " fill="#088CEF" transform="translate(115,361)"/>
<path d="M0 0 C1.875 0.75 1.875 0.75 2.875 1.75 C3.12656269 5.38899175 3.06022226 9.04083673 3.0625 12.6875 C3.07474609 13.71552734 3.08699219 14.74355469 3.09960938 15.80273438 C3.10250977 17.27516602 3.10250977 17.27516602 3.10546875 18.77734375 C3.10957764 19.68218506 3.11368652 20.58702637 3.11791992 21.51928711 C2.875 23.75 2.875 23.75 0.875 25.75 C-1.6875 25.5 -1.6875 25.5 -4.125 24.75 C-5.94689994 21.10620011 -5.35260405 16.82417515 -5.375 12.8125 C-5.395625 11.89275391 -5.41625 10.97300781 -5.4375 10.02539062 C-5.44265625 9.14173828 -5.4478125 8.25808594 -5.453125 7.34765625 C-5.4624707 6.53820557 -5.47181641 5.72875488 -5.48144531 4.89477539 C-4.92989153 1.57600826 -3.48654986 -0.41018234 0 0 Z " fill="#373268" transform="translate(431.125,153.25)"/>
<path d="M0 0 C0.66 0 1.32 0 2 0 C3.00399524 2.62353518 4.00334445 5.24867795 5 7.875 C5.28617188 8.62136719 5.57234375 9.36773437 5.8671875 10.13671875 C8 15.7734375 8 15.7734375 8 18 C3.38 18 -1.24 18 -6 18 C-4.2177429 11.88940424 -2.30678315 5.9317281 0 0 Z " fill="#1894F0" transform="translate(159,364)"/>
<path d="M0 0 C1.97909398 -0.02686553 3.95828971 -0.04633375 5.9375 -0.0625 C7.03964844 -0.07410156 8.14179688 -0.08570313 9.27734375 -0.09765625 C12 0 12 0 13 1 C13.04080783 2.99958364 13.04254356 5.00045254 13 7 C8.48289361 8.36882012 5.40216435 7.52382612 1 6 C0 5 0 5 -0.0625 2.4375 C-0.041875 1.633125 -0.02125 0.82875 0 0 Z " fill="#ED7099" transform="translate(147,148)"/>
<path d="M0 0 C1.51400391 0.01740234 1.51400391 0.01740234 3.05859375 0.03515625 C4.07050781 0.04417969 5.08242188 0.05320313 6.125 0.0625 C7.29869141 0.07990234 7.29869141 0.07990234 8.49609375 0.09765625 C8.82609375 1.74765625 9.15609375 3.39765625 9.49609375 5.09765625 C1.23413475 8.72635784 1.23413475 8.72635784 -3.50390625 7.09765625 C-3.54644981 5.09810879 -3.54471408 3.09723989 -3.50390625 1.09765625 C-2.50390625 0.09765625 -2.50390625 0.09765625 0 0 Z " fill="#F1719B" transform="translate(340.50390625,147.90234375)"/>
</svg>
