<?xml version="1.0" encoding="UTF-8"?>
<svg version="1.1" xmlns="http://www.w3.org/2000/svg" width="512" height="512">
<path d="M0 0 C1.20049406 -0.00872064 1.20049406 -0.00872064 2.42524052 -0.01761746 C5.12400532 -0.03228879 7.82187076 -0.01829931 10.52062988 -0.00457001 C12.46814186 -0.00917611 14.41565036 -0.01552706 16.36315155 -0.02347898 C21.72802851 -0.04023539 27.09262224 -0.03189731 32.45750046 -0.01953411 C38.23808498 -0.0105117 44.01861961 -0.02443935 49.79919434 -0.0354538 C61.12856818 -0.05327369 72.45783623 -0.04938359 83.78721428 -0.03780323 C92.99190008 -0.02878282 102.19655617 -0.02753887 111.40124512 -0.0318985 C113.3636556 -0.0328179 113.3636556 -0.0328179 115.36571074 -0.03375587 C118.02314568 -0.03503472 120.68058062 -0.03633158 123.33801556 -0.03764623 C147.56630949 -0.04913871 171.79454987 -0.03722043 196.02283466 -0.01627585 C218.1503859 0.00270724 240.27784507 0.00100876 262.40539551 -0.01811981 C287.25373009 -0.0395285 312.102013 -0.04796347 336.95035553 -0.03567076 C339.59821064 -0.03439651 342.24606577 -0.03313903 344.8939209 -0.0318985 C346.84829677 -0.03097285 346.84829677 -0.03097285 348.84215498 -0.03002849 C358.03959861 -0.02656961 367.23700966 -0.03241553 376.43444824 -0.04181671 C387.63759776 -0.05301593 398.84063513 -0.05004045 410.04377174 -0.02869374 C415.76371054 -0.01815534 421.4834621 -0.01410892 427.20339966 -0.02729034 C432.43410968 -0.03916237 437.66445797 -0.03273775 442.89513493 -0.01138014 C444.7927823 -0.00689197 446.69045991 -0.00922955 448.58808804 -0.01888329 C451.15755532 -0.03095757 453.72576562 -0.01866467 456.29516602 0 C457.41356542 -0.014047 457.41356542 -0.014047 458.55455875 -0.02837777 C461.88789372 0.02038548 463.84323195 0.29143828 466.60689878 2.21583986 C468.43468715 4.92964128 468.64858889 6.35467209 468.65094757 9.60712433 C468.66137856 10.64370682 468.67180955 11.68028931 468.68255663 12.74828339 C468.67363374 13.88562424 468.66471086 15.02296509 468.65551758 16.19477081 C468.66487752 18.00876122 468.66487752 18.00876122 468.67442656 19.85939789 C468.68763847 23.2178193 468.68286063 26.57534829 468.67048168 29.93371582 C468.6614457 33.55478261 468.67539366 37.17577041 468.68640137 40.79682159 C468.7042068 47.89104534 468.70033766 54.98510001 468.6887508 62.07933044 C468.67972468 67.84389893 468.67848891 73.60841995 468.68284607 79.37299347 C468.683459 80.19280354 468.68407193 81.01261362 468.68470344 81.85726643 C468.68598231 83.52258938 468.68727917 85.18791232 468.6885938 86.85323524 C468.70000553 102.47642533 468.68687663 118.0995216 468.66539234 133.7226963 C468.64752081 147.13400772 468.65062475 160.54518065 468.66906738 173.95648956 C468.69046366 189.52299531 468.69890684 205.0894188 468.68661833 220.65593719 C468.6853441 222.31520334 468.68408662 223.97446949 468.68284607 225.63373566 C468.68192042 226.85838642 468.68192042 226.85838642 468.68097606 228.1077776 C468.67751943 233.86677586 468.68335824 239.62572202 468.69276428 245.38471222 C468.70397187 252.40109803 468.7009705 259.4173048 468.67964131 266.43367004 C468.669114 270.01496487 468.66503726 273.59596097 468.67823792 277.17725372 C468.69231772 281.05565827 468.67552953 284.93357148 468.65551758 288.81195831 C468.66890191 290.51796959 468.66890191 290.51796959 468.68255663 292.25844574 C468.67212564 293.29502823 468.66169465 294.33161072 468.65094757 295.3996048 C468.65029816 296.29509537 468.64964875 297.19058594 468.64897966 298.11321259 C467.97699437 301.31655858 466.70549214 302.51871065 464.14758301 304.50336456 C461.4107533 304.79451666 459.10818262 304.88658874 456.39758301 304.75336456 C455.7002002 304.73531769 455.00281738 304.71727081 454.28430176 304.69867706 C452.57146761 304.6517501 450.85934477 304.58001061 449.14758301 304.50336456 C449.63364014 305.60519073 450.11969727 306.70701691 450.6204834 307.84223175 C452.51958449 312.93544374 452.59790003 317.69298184 452.58117676 323.08148956 C452.58641861 324.08814667 452.59166046 325.09480377 452.59706116 326.13196564 C452.60346195 328.25998773 452.60216964 330.3880453 452.59362793 332.51605988 C452.58521697 335.70261159 452.61374641 338.88730658 452.64562988 342.07367706 C452.76595786 377.37062863 441.04063964 409.55021455 418.14758301 436.50336456 C417.62680176 436.9970755 417.10602051 437.49078644 416.56945801 437.99945831 C413.06142895 441.3966014 412.83070644 444.22753835 412.58508301 448.87836456 C412.58379395 449.93797394 412.58250488 450.99758331 412.58117676 452.08930206 C412.17508247 455.28683724 411.57432086 456.92636863 410.1204834 459.71674347 C409.7531459 460.42843689 409.38580841 461.14013031 409.00733948 461.8733902 C408.72361984 462.41128174 408.43990021 462.94917328 408.14758301 463.50336456 C408.84027283 463.50701019 409.53296265 463.51065582 410.24664307 463.51441193 C417.44931722 463.55618752 424.65135121 463.62549888 431.8536377 463.71088409 C434.5424549 463.74134652 437.23108399 463.76201022 439.92004395 463.77436066 C443.78278498 463.79574114 447.64451749 463.84236964 451.50695801 463.89398956 C453.31338776 463.89583252 453.31338776 463.89583252 455.15631104 463.89771271 C456.27717102 463.91743134 457.39803101 463.93714996 458.55285645 463.95746613 C459.53880798 463.96634857 460.52475952 463.97523102 461.54058838 463.98438263 C464.85612546 464.64441615 466.05494231 465.90438721 468.14758301 468.50336456 C468.67883301 470.50336456 468.67883301 470.50336456 468.64758301 472.50336456 C468.65789551 473.16336456 468.66820801 473.82336456 468.67883301 474.50336456 C467.88037216 477.50933482 466.60190312 478.59942765 464.14758301 480.50336456 C461.3961211 480.89543718 459.04521061 481.04126944 456.29516602 481.00672913 C455.09467196 481.01544977 455.09467196 481.01544977 453.8699255 481.02434659 C451.1711607 481.03901792 448.47329526 481.02502843 445.77453613 481.01129913 C443.82702416 481.01590523 441.87951565 481.02225618 439.93201447 481.03020811 C434.5671375 481.04696451 429.20254377 481.03862644 423.83766556 481.02626324 C418.05708103 481.01724083 412.2765464 481.03116848 406.49597168 481.04218292 C395.16659784 481.06000282 383.83732978 481.05611271 372.50795174 481.04453236 C363.30326593 481.03551194 354.09860985 481.034268 344.8939209 481.03862762 C343.58564724 481.03924056 342.27737359 481.03985349 340.92945528 481.04048499 C338.27202033 481.04176385 335.61458539 481.0430607 332.95715046 481.04437536 C308.72885652 481.05586783 284.50061615 481.04394956 260.27233136 481.02300497 C238.14478012 481.00402189 216.01732094 481.00572037 193.88977051 481.02484894 C169.04143593 481.04625763 144.19315301 481.0546926 119.34481049 481.04239988 C116.69695537 481.04112564 114.04910025 481.03986816 111.40124512 481.03862762 C109.44686925 481.03770197 109.44686925 481.03770197 107.45301104 481.03675762 C98.2555674 481.03329873 89.05815636 481.03914465 79.86071777 481.04854584 C68.65756825 481.05974505 57.45453088 481.05676958 46.25139427 481.03542286 C40.53145548 481.02488446 34.81170392 481.02083805 29.09176636 481.03401947 C23.86105633 481.0458915 18.63070804 481.03946687 13.40003109 481.01810926 C11.50238371 481.0136211 9.60470611 481.01595868 7.70707798 481.02561241 C5.1376107 481.03768669 2.56940039 481.0253938 0 481.00672913 C-1.11839941 481.02077612 -1.11839941 481.02077612 -2.25939274 481.0351069 C-5.72533296 480.98440376 -7.53389184 480.7504602 -10.30998993 478.59690428 C-11.98280758 476.32638512 -12.39593466 475.28849541 -12.35241699 472.50336456 C-12.36272949 471.84336456 -12.37304199 471.18336456 -12.38366699 470.50336456 C-11.61147849 467.59630197 -10.14380712 466.40974882 -7.85241699 464.50336456 C-5.4352417 464.0223465 -5.4352417 464.0223465 -2.7166748 464.049263 C-1.18554047 464.04971619 -1.18554047 464.04971619 0.37652588 464.05017853 C1.47144348 464.07082367 2.56636108 464.09146881 3.69445801 464.11273956 C4.82079651 464.11839935 5.94713501 464.12405914 7.10760498 464.12989044 C10.70469683 464.15227911 14.30079227 464.20248243 17.89758301 464.25336456 C20.33637071 464.27342624 22.77517402 464.29167758 25.21398926 464.30805206 C31.19219375 464.35215213 37.1698172 464.41908993 43.14758301 464.50336456 C43.02577667 463.50354553 42.90397034 462.5037265 42.7784729 461.47360992 C41.17368434 447.90550628 40.17181206 434.30901406 39.20227051 420.68305206 C39.02606972 418.24252929 38.84956076 415.80202876 38.67276001 413.36154938 C38.21269869 406.99977745 37.75676897 400.63771622 37.30175781 394.27558136 C36.83493765 387.75887797 36.36412948 381.24246278 35.89367676 374.72602081 C34.97445272 361.98541137 34.05946602 349.24450143 33.14758301 336.50336456 C32.41120605 336.52431183 31.6748291 336.54525909 30.9161377 336.56684113 C27.57675858 336.650036 24.23759752 336.70203613 20.89758301 336.75336456 C19.73871582 336.78688019 18.57984863 336.82039581 17.38586426 336.85492706 C16.2708252 336.86781769 15.15578613 336.88070831 14.00695801 336.89398956 C12.98054199 336.91493683 11.95412598 336.93588409 10.89660645 336.95746613 C7.44031955 336.38653419 6.29494369 335.20926546 4.14758301 332.50336456 C3.61633301 330.50336456 3.61633301 330.50336456 3.64758301 328.50336456 C3.63727051 327.84336456 3.62695801 327.18336456 3.61633301 326.50336456 C4.39327965 323.57838897 5.82464569 322.40572796 8.14758301 320.50336456 C10.80480957 320.049263 10.80480957 320.049263 13.78820801 320.11273956 C15.39309082 320.1320755 15.39309082 320.1320755 17.03039551 320.15180206 C18.69715332 320.2020755 18.69715332 320.2020755 20.39758301 320.25336456 C21.52422363 320.27141144 22.65086426 320.28945831 23.81164551 320.30805206 C26.5906548 320.35515392 29.3692267 320.42689604 32.14758301 320.50336456 C31.81758301 315.22336456 31.48758301 309.94336456 31.14758301 304.50336456 C29.98710449 304.52431183 28.82662598 304.54525909 27.63098145 304.56684113 C23.32235063 304.63928263 19.01377356 304.68517927 14.70471191 304.72309113 C12.840362 304.74319718 10.97607506 304.77048636 9.11193848 304.80512238 C6.43095353 304.85368577 3.75080278 304.87634294 1.06945801 304.89398956 C0.23702576 304.9146347 -0.59540649 304.93527985 -1.45306396 304.9565506 C-2.62382477 304.95700378 -2.62382477 304.95700378 -3.8182373 304.95746613 C-4.50218567 304.96634857 -5.18613403 304.97523102 -5.89080811 304.98438263 C-8.79373989 304.27253704 -9.9593218 302.7733826 -11.85241699 300.50336456 C-12.35381365 298.11321259 -12.35381365 298.11321259 -12.35578156 295.3996048 C-12.36621254 294.36302231 -12.37664353 293.32643982 -12.38739061 292.25844574 C-12.37846773 291.12110489 -12.36954484 289.98376404 -12.36035156 288.81195831 C-12.36659153 287.60263138 -12.37283149 286.39330444 -12.37926054 285.14733124 C-12.39247246 281.78890983 -12.38769461 278.43138083 -12.37531567 275.07301331 C-12.36627968 271.45194651 -12.38022764 267.83095872 -12.39123535 264.20990753 C-12.40904078 257.11568378 -12.40517165 250.02162911 -12.39358479 242.92739868 C-12.38455867 237.1628302 -12.3833229 231.39830917 -12.38768005 225.63373566 C-12.38829299 224.81392558 -12.38890592 223.99411551 -12.38953742 223.1494627 C-12.3908163 221.48413975 -12.39211315 219.81881681 -12.39342779 218.15349388 C-12.40483951 202.53030379 -12.39171062 186.90720752 -12.37022632 171.28403282 C-12.35235479 157.87272141 -12.35545873 144.46154848 -12.37390137 131.05023956 C-12.39529765 115.48373381 -12.40374082 99.91731033 -12.39145231 84.35079193 C-12.39017809 82.69152579 -12.38892061 81.03225964 -12.38768005 79.37299347 C-12.38706295 78.55655963 -12.38644585 77.74012579 -12.38581005 76.89895153 C-12.38235341 71.13995327 -12.38819223 65.3810071 -12.39759827 59.62201691 C-12.40880585 52.6056311 -12.40580448 45.58942433 -12.38447529 38.57305908 C-12.37394799 34.99176426 -12.36987125 31.41076816 -12.3830719 27.8294754 C-12.39715171 23.95107085 -12.38036351 20.07315765 -12.36035156 16.19477081 C-12.36927445 15.05742996 -12.37819734 13.92008911 -12.38739061 12.74828339 C-12.37695962 11.7117009 -12.36652864 10.67511841 -12.35578156 9.60712433 C-12.35513215 8.71163376 -12.35448274 7.81614319 -12.35381365 6.89351654 C-10.94374317 0.17172711 -5.92478477 -0.07441477 0 0 Z M4.14758301 16.50336456 C4.14758301 106.26336456 4.14758301 196.02336456 4.14758301 288.50336456 C12.72758301 288.50336456 21.30758301 288.50336456 30.14758301 288.50336456 C29.81758301 283.22336456 29.48758301 277.94336456 29.14758301 272.50336456 C26.83758301 271.84336456 24.52758301 271.18336456 22.14758301 270.50336456 C18.48746355 263.18312564 22.42317486 253.19633369 24.40075684 245.7445755 C24.9633729 243.61591724 25.50271139 241.48224917 26.04016113 239.34711456 C26.39361198 237.98478004 26.74838257 236.62278708 27.10461426 235.26117706 C27.42406006 234.03543976 27.74350586 232.80970245 28.07263184 231.54682159 C29.15781371 228.47439886 29.57658739 227.37863393 32.14758301 225.50336456 C35.01396179 225.10463715 35.01396179 225.10463715 38.54675293 225.07099152 C39.51301353 225.05570404 39.51301353 225.05570404 40.49879456 225.04010773 C42.6253017 225.00994417 44.75135867 225.00070725 46.87805176 224.99164581 C48.35351564 224.9748015 49.82896514 224.95665159 51.30439758 224.93724823 C55.18577585 224.88971463 59.06709586 224.8599273 62.94866943 224.8338089 C66.91027332 224.80402012 70.87167638 224.75748409 74.83312988 224.71234894 C82.60451469 224.62627773 90.37591403 224.55894976 98.14758301 224.50336456 C97.42543903 212.81931577 97.42543903 212.81931577 96.21008301 201.17914581 C96.12508545 200.49958328 96.04008789 199.82002075 95.95251465 199.11986542 C95.77644493 197.71952303 95.59833112 196.31943602 95.41809082 194.91962433 C95.14291448 192.77955711 94.87528276 190.63863603 94.60852051 188.49750519 C93.91583705 182.99536723 93.91583705 182.99536723 93.14758301 177.50336456 C93.0998877 176.77609161 93.05219238 176.04881866 93.00305176 175.29950714 C91.54222388 172.23235226 88.46790407 171.27095335 85.52258301 169.90180206 C84.52944092 169.41799576 84.52944092 169.41799576 83.51623535 168.92441559 C81.3995495 167.89559926 79.27439688 166.88605551 77.14758301 165.87836456 C75.0222533 164.86081737 72.89902495 163.83930206 70.77893066 162.8108902 C69.45904657 162.17172693 68.13585702 161.53933738 66.8092041 160.91434479 C62.25897623 158.72615101 62.25897623 158.72615101 61.14758301 156.50336456 C60.69687878 149.40477301 60.69687878 149.40477301 62.14758301 146.50336456 C65.88801689 144.63314762 70.23639932 144.90582635 74.16094971 146.13285065 C76.25113084 147.03006166 78.27107279 148.01030708 80.29602051 149.04633331 C81.03462311 149.41180771 81.77322571 149.7772821 82.53421021 150.15383148 C84.08261412 150.92532712 85.62705708 151.7048195 87.16760254 152.49188995 C89.52590065 153.69255365 91.89944263 154.85792101 94.27648926 156.02094269 C95.78403055 156.77735516 97.2905786 157.53575115 98.79602051 158.29633331 C99.50431 158.64238113 100.21259949 158.98842896 100.94235229 159.34496307 C105.83651574 161.88629507 105.83651574 161.88629507 107.29554749 164.7806015 C108.18269209 167.61555908 108.64985799 170.24693921 109.00134277 173.19574738 C109.20649254 174.87208252 109.20649254 174.87208252 109.41578674 176.58228302 C109.62527199 178.37626526 109.62527199 178.37626526 109.83898926 180.20648956 C110.06424538 182.05678772 110.06424538 182.05678772 110.29405212 183.94446564 C110.69126868 187.21172406 111.08307772 190.47956442 111.47155762 193.7478714 C112.02101418 198.36763696 112.57596503 202.98671503 113.13682556 207.60511017 C113.43506348 210.06295375 113.72899354 212.5213244 114.01832581 214.98023224 C114.15194016 216.08518036 114.2855545 217.19012848 114.42321777 218.32855988 C114.539319 219.30609222 114.65542023 220.28362457 114.77503967 221.29077911 C114.92229235 223.47136906 114.92229235 223.47136906 116.14758301 224.50336456 C118.24816104 224.611488 120.35236054 224.64966299 122.45568848 224.66107941 C123.11425842 224.66616013 123.77282837 224.67124084 124.45135498 224.67647552 C125.88586966 224.68719984 127.3204013 224.69581189 128.75494003 224.70259476 C131.02426751 224.71435126 133.29340186 224.73379545 135.56265259 224.75571442 C142.0161905 224.81743929 148.46971013 224.87139359 154.92346191 224.90473175 C158.86699519 224.92565489 162.8101793 224.96094069 166.75351334 225.00548935 C168.2581789 225.01967107 169.76290628 225.02837669 171.26763535 225.03154373 C173.37235889 225.03644208 175.47615315 225.0595704 177.58068848 225.08686066 C178.77902313 225.09494751 179.97735779 225.10303436 181.21200562 225.11136627 C184.14758301 225.50336456 184.14758301 225.50336456 185.99082947 226.83917999 C187.80791704 229.45336615 188.39086249 232.19270985 189.19055176 235.26117706 C189.45053703 236.25490829 189.45053703 236.25490829 189.71577454 237.2687149 C190.0796231 238.67112622 190.43820422 240.07491329 190.79187012 241.47992706 C191.3289588 243.60414299 191.88830214 245.72156346 192.45031738 247.83930206 C195.96847155 261.37895579 195.96847155 261.37895579 195.14758301 268.50336456 C192.71962208 271.83991895 191.58881537 271.61511809 187.14758301 272.50336456 C186.81758301 277.78336456 186.48758301 283.06336456 186.14758301 288.50336456 C192.26713316 288.7267755 198.3842843 288.88958338 204.50695801 288.99774933 C206.58680592 289.04285797 208.6663708 289.10416546 210.74523926 289.18231964 C222.45489065 290.08966759 222.45489065 290.08966759 233.19616699 286.54560089 C235.33142344 284.21753891 235.33142344 284.21753891 236.79187012 281.69037628 C239.01577169 278.10281816 242.30629766 276.91939847 246.14758301 275.50336456 C247.22008301 275.09086456 248.29258301 274.67836456 249.39758301 274.25336456 C257.80593521 272.57169412 264.58536709 272.77141431 272.25305176 276.66742706 C274.22198193 277.69627715 274.22198193 277.69627715 276.89758301 277.44086456 C278.01133301 276.97680206 278.01133301 276.97680206 279.14758301 276.50336456 C280.03445801 276.21461456 280.92133301 275.92586456 281.83508301 275.62836456 C285.1439291 272.58780328 285.01376888 269.55785929 285.63586426 265.22602081 C286.83421384 258.85006923 291.16552571 255.16365156 296.14758301 251.50336456 C297.01383301 251.23523956 297.88008301 250.96711456 298.77258301 250.69086456 C301.58714507 249.28358353 301.7769555 248.54547028 303.02258301 245.75336456 C305.44207348 240.36583517 309.17942565 236.97734747 314.44445801 234.36273956 C320.95316702 232.29349681 329.35711788 232.23089672 335.64758301 235.06586456 C340.33083752 237.89993703 344.31453316 241.94471147 346.02258301 247.19086456 C347.3752033 249.97125072 348.14766075 250.14868235 350.89758301 251.37836456 C356.38327575 253.8419393 359.63733784 257.69862354 362.46008301 262.94086456 C363.14758301 265.50336456 363.14758301 265.50336456 363.23352051 267.44867706 C363.36699647 271.61654951 363.36699647 271.61654951 365.58898926 274.97602081 C367.62342867 276.36302795 367.62342867 276.36302795 371.14758301 277.50336456 C373.82832231 276.99775569 373.82832231 276.99775569 376.14758301 275.50336456 C383.50201217 271.9251773 392.8048901 272.4079105 400.61633301 274.37836456 C408.40557132 277.36817321 413.55084137 281.60825211 418.14758301 288.50336456 C429.36758301 288.50336456 440.58758301 288.50336456 452.14758301 288.50336456 C452.14758301 198.74336456 452.14758301 108.98336456 452.14758301 16.50336456 C304.30758301 16.50336456 156.46758301 16.50336456 4.14758301 16.50336456 Z M43.14758301 240.50336456 C39.99851181 249.05615097 39.99851181 249.05615097 39.14758301 256.50336456 C84.68758301 256.50336456 130.22758301 256.50336456 177.14758301 256.50336456 C175.67907408 246.35042846 175.67907408 246.35042846 173.14758301 240.50336456 C130.24758301 240.50336456 87.34758301 240.50336456 43.14758301 240.50336456 Z M318.96008301 250.94086456 C317.1278039 253.53132813 316.7715776 254.98378327 316.08508301 258.00336456 C315.39758301 260.38617706 315.39758301 260.38617706 314.14758301 262.50336456 C311.35196718 263.99492788 308.70422804 264.84703559 305.64367676 265.65180206 C302.82266801 266.33165894 302.82266801 266.33165894 301.14758301 269.50336456 C300.70950854 272.93494791 300.66515849 274.76924029 302.58508301 277.69086456 C305.61714098 279.83549094 308.49569596 280.65912246 312.02648926 281.71430206 C314.76864968 282.73440594 316.29255191 284.27732724 318.14758301 286.50336456 C321.32739729 288.0932717 324.67960434 287.7727892 328.14758301 287.50336456 C330.86438607 286.59776354 331.95144341 285.72856188 333.83508301 283.56586456 C336.72657421 280.986967 339.42652805 280.30085601 343.12414551 279.31195831 C345.50415196 278.58254783 345.50415196 278.58254783 347.14758301 275.50336456 C347.58565748 272.07178122 347.63000753 270.23748883 345.71008301 267.31586456 C343.11961945 265.48358546 341.6671643 265.12735916 338.64758301 264.44086456 C336.26477051 263.75336456 336.26477051 263.75336456 334.14758301 262.50336456 C332.65601969 259.70774874 331.80391198 257.0600096 330.99914551 253.99945831 C330.31928863 251.17844957 330.31928863 251.17844957 327.14758301 249.50336456 C323.71599966 249.06529009 321.88170728 249.02094004 318.96008301 250.94086456 Z M46.14758301 272.50336456 C46.14758301 278.57533251 46.19070329 284.33773013 46.63438416 290.3471756 C46.68676477 291.07019167 46.73914539 291.79320774 46.79311329 292.53813338 C46.96696729 294.92557519 47.14599593 297.31259839 47.32507324 299.69965363 C47.45183441 301.42533915 47.57828048 303.15104784 47.70443726 304.87677765 C48.04614269 309.53785168 48.39243341 314.19857443 48.73972964 318.85923481 C49.10326088 323.74627955 49.46304462 328.6336004 49.82337952 333.52088165 C50.42862853 341.72194058 51.0368412 349.92277562 51.64685059 358.12348175 C52.35167352 367.59928369 53.05190457 377.07541645 53.74966472 386.55174088 C54.42197934 395.68116973 55.09742698 404.81036414 55.77433968 413.93945312 C56.06200095 417.81961333 56.34858597 421.6998508 56.63430595 425.58015442 C56.9707503 430.14729354 57.3099453 434.71422032 57.65125656 439.28099823 C57.77596514 440.95547471 57.89973682 442.63002128 58.02249718 444.30464172 C58.19036741 446.59245666 58.36165386 448.87999136 58.53379822 451.1674881 C58.6287429 452.44685368 58.72368757 453.72621925 58.82150936 455.04435349 C59.12031819 458.21413759 59.62416343 461.3628471 60.14758301 464.50336456 C91.82758301 464.50336456 123.50758301 464.50336456 156.14758301 464.50336456 C157.38078169 452.17137777 158.56761736 439.87421699 159.47619629 427.52045441 C159.59451037 425.93767532 159.71303743 424.35491214 159.83175659 422.77216339 C160.14808742 418.54571519 160.46123296 414.31903719 160.77351999 410.09228849 C161.03603087 406.54310169 161.30011114 402.99403229 161.56415546 399.44495928 C162.18692987 391.07348788 162.80703285 382.70182162 163.42541504 374.33002472 C164.06124875 365.72261952 164.70169974 357.11556648 165.34437001 348.50866926 C165.89909376 341.07737052 166.45094955 333.64586255 167.00052822 326.21418154 C167.32750477 321.79303038 167.65554172 317.37196472 167.98636246 312.9510994 C168.29666011 308.80284135 168.60335601 304.65433204 168.90735245 300.5056076 C169.0189497 298.99066698 169.13178348 297.47581682 169.24599457 295.96107101 C169.40259302 293.88144231 169.55456423 291.80152184 169.70547485 289.72147369 C169.79136934 288.56202429 169.87726383 287.40257488 169.96576118 286.20799065 C170.18971752 281.64487247 170.14758301 277.07197528 170.14758301 272.50336456 C129.22758301 272.50336456 88.30758301 272.50336456 46.14758301 272.50336456 Z M245.60070801 295.73773956 C244.74015041 297.32724006 243.921669 298.94054448 243.15539551 300.57758331 C242.14758301 302.50336456 242.14758301 302.50336456 240.14758301 303.50336456 C236.64073156 303.87698481 233.13666639 304.22128616 229.62023926 304.48969269 C224.47667594 304.99686778 221.26872202 306.15687574 217.14758301 309.50336456 C210.39356954 318.08278708 212.14758301 325.02919947 212.14758301 336.50336456 C286.06758301 336.50336456 359.98758301 336.50336456 436.14758301 336.50336456 C437.07782852 322.38699204 437.07782852 322.38699204 431.85852051 309.92523956 C425.88168957 304.36391024 418.53598258 304.24833967 410.81945801 303.94477081 C407.76896547 303.44081517 406.97202337 302.93780018 405.14758301 300.50336456 C404.34857282 299.18672318 403.57847099 297.85219224 402.83508301 296.50336456 C400.45225616 292.65690223 398.59708335 290.87244159 394.14758301 289.50336456 C389.2879759 288.81288082 386.1173282 288.96461723 381.77258301 291.37836456 C380.90633301 292.07961456 380.04008301 292.78086456 379.14758301 293.50336456 C376.02579376 295.5845574 374.13975567 296.02741174 370.42102051 295.97211456 C366.03045708 295.06684375 362.62861345 292.21083269 359.14758301 289.50336456 C358.56879395 289.79340363 357.99000488 290.08344269 357.39367676 290.38227081 C355.99213826 291.08182133 354.58878604 291.77776387 353.18273926 292.46820831 C349.39716469 294.33475894 345.74493826 296.28960749 342.14758301 298.50336456 C333.72457152 303.59545787 327.00345529 304.28843943 317.14758301 303.50336456 C312.95222045 302.41267829 308.75829738 301.17006633 305.68664551 297.99164581 C303.70747809 296.07778087 301.7903654 295.4345943 299.21008301 294.50336456 C295.71077997 293.23664853 293.03673814 291.86295297 290.14758301 289.50336456 C289.42312988 290.00867706 288.69867676 290.51398956 287.95227051 291.03461456 C286.98547363 291.68430206 286.01867676 292.33398956 285.02258301 293.00336456 C283.59559082 293.97789581 283.59559082 293.97789581 282.13977051 294.97211456 C278.71491431 296.72478249 276.93985945 297.06149198 273.14758301 296.50336456 C270.40148926 294.97211456 270.40148926 294.97211456 267.71008301 293.00336456 C264.37603573 290.7821682 262.43591029 289.5571205 258.46008301 288.81586456 C253.16310846 289.91523664 248.79686282 291.1210715 245.60070801 295.73773956 Z M185.14758301 304.50336456 C184.22720924 309.91056045 184.06317101 315.01658501 184.14758301 320.50336456 C188.10758301 320.50336456 192.06758301 320.50336456 196.14758301 320.50336456 C196.45695801 318.79148956 196.76633301 317.07961456 197.08508301 315.31586456 C197.73807818 311.70262463 198.42735531 308.10450308 199.14758301 304.50336456 C194.52758301 304.50336456 189.90758301 304.50336456 185.14758301 304.50336456 Z M183.14758301 336.50336456 C181.95512402 338.88828255 181.88274595 340.64184751 181.68565369 343.3038559 C181.60855164 344.31749207 181.53144958 345.33112823 181.45201111 346.37548065 C181.37144974 347.49187424 181.29088837 348.60826782 181.20788574 349.75849152 C181.11995758 350.93093414 181.03202942 352.10337677 180.94143677 353.31134796 C180.70077877 356.53231611 180.4639157 359.75353615 180.22882724 362.97491479 C179.9820661 366.34538027 179.73080724 369.71551058 179.4801178 373.08568573 C179.0595218 378.74903581 178.64217117 384.41261762 178.22692871 390.07636261 C177.74712842 396.62036502 177.26313428 403.1640461 176.77666706 409.70755607 C176.25874215 416.67454717 175.74364136 423.64174487 175.22950101 430.60901618 C175.08129215 432.615084 174.93258619 434.62111447 174.78378105 436.62713814 C174.50660016 440.37130788 174.23187515 444.11564955 173.95788574 447.86005402 C173.87530014 448.97037491 173.79271454 450.0806958 173.70762634 451.22466278 C173.63334412 452.24675842 173.55906189 453.26885406 173.48252869 454.3219223 C173.41745841 455.20701131 173.35238813 456.09210032 173.28534603 457.0040102 C173.1477449 459.50042736 173.14758301 462.00315803 173.14758301 464.50336456 C202.84758301 464.50336456 232.54758301 464.50336456 263.14758301 464.50336456 C259.98635873 461.97438514 256.82287683 459.49117613 253.59387207 457.05438995 C224.22571856 434.79129331 202.96950218 402.03789977 197.63586426 365.14398956 C196.50414295 355.65543352 196.37997013 346.04726322 196.14758301 336.50336456 C191.85758301 336.50336456 187.56758301 336.50336456 183.14758301 336.50336456 Z M213.14758301 352.50336456 C213.95938865 363.81932533 213.95938865 363.81932533 216.21008301 374.69086456 C216.42632324 375.48839142 216.64256348 376.28591827 216.86535645 377.10761261 C225.88095829 408.70885148 247.19777172 435.56917146 275.71228027 451.79120636 C294.42578516 462.02984278 314.94212221 466.02782418 336.14758301 463.50336456 C335.65258301 462.47211456 335.15758301 461.44086456 334.64758301 460.37836456 C331.98244761 453.21182823 331.55461006 444.07597634 334.71008301 437.00336456 C337.54415548 432.32011005 341.58892992 428.33641441 346.83508301 426.62836456 C349.61546917 425.27574427 349.79290079 424.50328682 351.02258301 421.75336456 C353.44207348 416.36583517 357.17942565 412.97734747 362.44445801 410.36273956 C368.95316702 408.29349681 377.35711788 408.23089672 383.64758301 411.06586456 C388.4461247 413.96970309 392.2252786 418.06197054 394.21008301 423.31586456 C394.9844804 425.7250296 394.9844804 425.7250296 397.52258301 426.87836456 C400.39341899 427.56189694 401.43497105 427.55770053 404.14758301 426.50336456 C421.04429909 409.89062691 433.04477392 382.10558385 435.14758301 358.50336456 C435.14758301 356.52336456 435.14758301 354.54336456 435.14758301 352.50336456 C361.88758301 352.50336456 288.62758301 352.50336456 213.14758301 352.50336456 Z M366.96008301 426.94086456 C365.1278039 429.53132813 364.7715776 430.98378327 364.08508301 434.00336456 C363.39758301 436.38617706 363.39758301 436.38617706 362.14758301 438.50336456 C359.35196718 439.99492788 356.70422804 440.84703559 353.64367676 441.65180206 C350.82266801 442.33165894 350.82266801 442.33165894 349.14758301 445.50336456 C348.70950854 448.93494791 348.66515849 450.76924029 350.58508301 453.69086456 C353.61714098 455.83549094 356.49569596 456.65912246 360.02648926 457.71430206 C362.76864968 458.73440594 364.29255191 460.27732724 366.14758301 462.50336456 C369.32739729 464.0932717 372.67960434 463.7727892 376.14758301 463.50336456 C378.86438607 462.59776354 379.95144341 461.72856188 381.83508301 459.56586456 C384.72657421 456.986967 387.42652805 456.30085601 391.12414551 455.31195831 C393.50415196 454.58254783 393.50415196 454.58254783 395.14758301 451.50336456 C395.58565748 448.07178122 395.63000753 446.23748883 393.71008301 443.31586456 C391.11961945 441.48358546 389.6671643 441.12735916 386.64758301 440.44086456 C384.26477051 439.75336456 384.26477051 439.75336456 382.14758301 438.50336456 C380.65601969 435.70774874 379.80391198 433.0600096 378.99914551 429.99945831 C378.31928863 427.17844957 378.31928863 427.17844957 375.14758301 425.50336456 C371.71599966 425.06529009 369.88170728 425.02094004 366.96008301 426.94086456 Z " fill="#000000" transform="translate(27.8524169921875,15.496635437011719)"/>
<path d="M0 0 C1.27922927 1.07340623 2.55013137 2.15681479 3.8125 3.25 C4.60527344 3.84683594 5.39804687 4.44367188 6.21484375 5.05859375 C15.93504199 13.25864069 22.35794315 24.51012742 26.8125 36.25 C27.245625 37.36117187 27.67875 38.47234375 28.125 39.6171875 C34.65578831 59.61772671 32.0564283 81.98347413 23 100.625 C18.77632191 108.8801468 13.62131356 115.91621995 6.8125 122.25 C5.82056641 123.24966797 5.82056641 123.24966797 4.80859375 124.26953125 C-12.07577368 140.59757686 -32.85098127 144.79710753 -55.640625 144.51953125 C-72.58212119 144.03074164 -89.64801314 136.71401992 -102.1875 125.25 C-103.07953125 124.44949219 -103.9715625 123.64898437 -104.890625 122.82421875 C-119.08989646 109.42026167 -128.81071223 90.65448383 -129.62109375 70.91796875 C-129.6447833 68.75794201 -129.64561186 66.5975583 -129.625 64.4375 C-129.61597656 63.29748535 -129.60695312 62.1574707 -129.59765625 60.98291016 C-129.21608177 42.35730594 -122.46034033 25.3155024 -110.1875 11.25 C-109.02927734 9.79787109 -109.02927734 9.79787109 -107.84765625 8.31640625 C-99.83367411 -1.28413081 -88.67753866 -7.32843272 -77.1875 -11.75 C-76.07503906 -12.18441406 -74.96257812 -12.61882812 -73.81640625 -13.06640625 C-49.10163881 -21.1176415 -20.46360477 -15.78039174 0 0 Z M-92.1875 17.25 C-104.47011897 29.13457113 -112.08593435 43.47552866 -112.53100586 60.69995117 C-112.75006899 80.61092185 -107.37184294 95.20422391 -93.5703125 109.96484375 C-80.27910061 122.71133384 -64.67225159 127.8036709 -46.60131836 127.73974609 C-28.43233496 127.23808703 -13.7235668 119.32179616 -1.1875 106.25 C11.79808167 90.40404653 15.7164543 73.3931787 13.8125 53.25 C10.99785698 36.07400112 0.46765277 21.61344766 -13.375 11.4375 C-38.19987637 -5.36295385 -70.13159754 -2.3658098 -92.1875 17.25 Z " fill="#000000" transform="translate(305.1875,87.75)"/>
<path d="M0 0 C8.80288754 6.34043826 15.4186507 14.72648904 17.58203125 25.4921875 C18.92007691 37.90936834 17.85729499 48.88109459 10.39453125 59.2421875 C3.58210875 67.3274193 -4.72289951 73.55522767 -15.48876953 74.71533203 C-28.40007937 75.61089799 -39.16843729 74.04490094 -49.3515625 65.46484375 C-57.86959925 57.33325857 -62.42046403 48.68416257 -62.88867188 36.85693359 C-63.04371176 24.34263074 -60.22647828 14.71931927 -51.41796875 5.4921875 C-37.63784493 -7.66275112 -16.31305228 -10.17259803 0 0 Z M-35.41796875 14.4921875 C-31.73163519 18.41906698 -27.89647639 21.40602735 -23.40234375 24.35546875 C-22.74590881 24.79231491 -22.08947388 25.22916107 -21.41314697 25.679245 C-20.03668073 26.59366162 -18.65837406 27.50531339 -17.27832031 28.41430664 C-15.15655274 29.8122088 -13.04077726 31.21883165 -10.92578125 32.62695312 C-9.5849734 33.51613486 -8.2438392 34.40482473 -6.90234375 35.29296875 C-6.26697693 35.71475906 -5.63161011 36.13654938 -4.97698975 36.57112122 C-2.39862214 38.59988437 -2.39862214 38.59988437 0.58203125 39.4921875 C1.05913733 32.28258446 1.06824904 26.41549455 -3.41796875 20.4921875 C-8.02742957 15.62290321 -12.4251958 11.91104788 -19.28515625 11.19140625 C-25.46646993 11.16732321 -29.96033957 11.51529886 -35.41796875 14.4921875 Z M-45.41796875 29.4921875 C-45.89507483 36.70179054 -45.90418654 42.56888045 -41.41796875 48.4921875 C-36.80850793 53.36147179 -32.4107417 57.07332712 -25.55078125 57.79296875 C-19.36946757 57.81705179 -14.87559793 57.46907614 -9.41796875 54.4921875 C-13.10430231 50.56530802 -16.93946111 47.57834765 -21.43359375 44.62890625 C-22.09002869 44.19206009 -22.74646362 43.75521393 -23.42279053 43.30513 C-24.79925677 42.39071338 -26.17756344 41.47906161 -27.55761719 40.57006836 C-29.67938476 39.1721662 -31.79516024 37.76554335 -33.91015625 36.35742188 C-35.2509641 35.46824014 -36.5920983 34.57955027 -37.93359375 33.69140625 C-38.56896057 33.26961594 -39.20432739 32.84782562 -39.85894775 32.41325378 C-42.43731536 30.38449063 -42.43731536 30.38449063 -45.41796875 29.4921875 Z " fill="#000000" transform="translate(158.41796875,325.5078125)"/>
<path d="M0 0 C4.95409033 3.00021419 9.82038832 7.54413145 11.25390625 13.25390625 C11.40666016 14.36572266 11.40666016 14.36572266 11.5625 15.5 C12.30371094 15.60183594 13.04492188 15.70367187 13.80859375 15.80859375 C19.51836855 17.24211168 24.06228581 22.10840967 27.0625 27.0625 C29.84968052 33.4456411 29.64733809 41.27591171 27.9375 47.93359375 C24.50199667 55.80150987 17.52047725 60.44746503 9.80078125 63.52734375 C6.76842285 64.84507018 4.11837012 66.59948417 1.38671875 68.44921875 C-5.02175172 72.14060752 -14.5762012 71.5038383 -21.47265625 69.7109375 C-27.63373347 67.33361463 -27.63373347 67.33361463 -29.91015625 64.97265625 C-31.85035151 63.1019309 -33.63725042 62.58952315 -36.1875 61.75 C-42.92526472 59.16309179 -46.87401592 55.36638747 -50.3125 49.0625 C-52.64131085 41.68793231 -52.94523352 35.81876576 -50.4375 28.5 C-47.78224926 23.48452638 -44.11341993 19.68338299 -39.4375 16.5 C-36.5 15.625 -36.5 15.625 -34.4375 15.5 C-34.33566406 14.75878906 -34.23382813 14.01757812 -34.12890625 13.25390625 C-32.69538832 7.54413145 -27.82909033 3.00021419 -22.875 0 C-16.0623237 -2.97473585 -6.8126763 -2.97473585 0 0 Z M-16.625 16.9375 C-18.4572791 19.52796356 -18.81350541 20.98041871 -19.5 24 C-20.1875 26.3828125 -20.1875 26.3828125 -21.4375 28.5 C-24.23311582 29.99156332 -26.88085497 30.84367103 -29.94140625 31.6484375 C-32.762415 32.32829438 -32.762415 32.32829438 -34.4375 35.5 C-34.87557447 38.93158334 -34.91992452 40.76587573 -33 43.6875 C-29.96794202 45.83212637 -27.08938705 46.65575789 -23.55859375 47.7109375 C-20.81643333 48.73104138 -19.2925311 50.27396268 -17.4375 52.5 C-14.25768572 54.08990714 -10.90547867 53.76942464 -7.4375 53.5 C-4.72069694 52.59439898 -3.6336396 51.72519731 -1.75 49.5625 C1.14149121 46.98360244 3.84144504 46.29749144 7.5390625 45.30859375 C9.91906895 44.57918327 9.91906895 44.57918327 11.5625 41.5 C12.00057447 38.06841666 12.04492452 36.23412427 10.125 33.3125 C7.53453644 31.4802209 6.08208129 31.12399459 3.0625 30.4375 C0.6796875 29.75 0.6796875 29.75 -1.4375 28.5 C-2.92906332 25.70438418 -3.78117103 23.05664503 -4.5859375 19.99609375 C-5.26579438 17.175085 -5.26579438 17.175085 -8.4375 15.5 C-11.86908334 15.06192553 -13.70337573 15.01757548 -16.625 16.9375 Z " fill="#000000" transform="translate(435.4375,193.5)"/>
<path d="M0 0 C5.03619191 1.00196454 9.47468313 3.5034824 14.00897217 5.83291626 C15.64958115 6.65459541 15.64958115 6.65459541 17.32333374 7.49287415 C19.62487697 8.64967004 21.92254105 9.81421242 24.2164917 10.98599243 C27.73591513 12.7823292 31.267562 14.55254588 34.80194092 16.31924438 C37.03838048 17.44729128 39.27408424 18.57679839 41.50897217 19.70791626 C42.56724213 20.23927689 43.62551208 20.77063751 44.71585083 21.31809998 C45.69091583 21.81839218 46.66598083 22.31868439 47.67059326 22.83413696 C48.53026703 23.27159744 49.3899408 23.70905792 50.27566528 24.15977478 C52.36053467 25.46963501 52.36053467 25.46963501 54.36053467 28.46963501 C54.8968983 34.10145319 54.8968983 34.10145319 54.36053467 36.46963501 C51.72889653 39.44773401 49.15414223 41.33055586 45.62713623 43.12686157 C44.69226379 43.6070575 43.75739136 44.08725342 42.79418945 44.58200073 C41.78998962 45.08632629 40.78578979 45.59065186 39.75115967 46.11026001 C38.71038269 46.6373053 37.66960571 47.16435059 36.59729004 47.70736694 C34.39712273 48.81756276 32.19477313 49.92344286 29.99041748 51.02529907 C26.62816447 52.71079719 23.27953716 54.42144467 19.93084717 56.13369751 C17.78840587 57.21078693 15.64520069 58.28635851 13.50115967 59.36026001 C12.50505676 59.8726825 11.50895386 60.38510498 10.48266602 60.91305542 C4.84765164 63.69396694 0.66500478 65.47966691 -5.63946533 64.46963501 C-8.30419905 62.41320659 -9.49055998 61.22600693 -10.1473999 57.88955688 C-10.15058228 56.91567017 -10.15376465 55.94178345 -10.15704346 54.93838501 C-10.1696521 53.83043579 -10.18226074 52.72248657 -10.19525146 51.58096313 C-10.18715454 50.38922485 -10.17905762 49.19748657 -10.17071533 47.96963501 C-10.17454224 46.74180298 -10.17836914 45.51397095 -10.18231201 44.24893188 C-10.18503375 41.65322042 -10.17765444 39.05748165 -10.16094971 36.46182251 C-10.13954608 32.48463902 -10.16074496 28.50926219 -10.18634033 24.53213501 C-10.18369711 22.01129768 -10.17857224 19.49046148 -10.17071533 16.96963501 C-10.17881226 15.77789673 -10.18690918 14.58615845 -10.19525146 13.35830688 C-10.18264282 12.25035767 -10.17003418 11.14240845 -10.15704346 10.00088501 C-10.15386108 9.02699829 -10.15067871 8.05311157 -10.1473999 7.04971313 C-9.06147333 1.53369677 -5.40525798 -0.29501213 0 0 Z M6.36053467 22.46963501 C6.36053467 29.06963501 6.36053467 35.66963501 6.36053467 42.46963501 C11.34891248 40.83389073 11.34891248 40.83389073 16.00897217 38.74307251 C16.62127686 38.43369751 17.23358154 38.12432251 17.86444092 37.80557251 C18.48190186 37.48846313 19.09936279 37.17135376 19.73553467 36.84463501 C20.37619873 36.51979126 21.01686279 36.19494751 21.67694092 35.86026001 C23.24000967 35.06706094 24.80054089 34.2688647 26.36053467 33.46963501 C26.36053467 32.80963501 26.36053467 32.14963501 26.36053467 31.46963501 C23.40545561 29.96315903 20.44596126 28.46557136 17.48553467 26.96963501 C16.64377686 26.5403772 15.80201904 26.11111938 14.93475342 25.66885376 C13.72625732 25.05977173 13.72625732 25.05977173 12.49334717 24.43838501 C11.74971924 24.06133423 11.00609131 23.68428345 10.2399292 23.29580688 C8.39754567 22.33549243 8.39754567 22.33549243 6.36053467 22.46963501 Z " fill="#000000" transform="translate(241.63946533203125,119.53036499023438)"/>
</svg>
