<?xml version="1.0" encoding="UTF-8"?>
<svg version="1.1" xmlns="http://www.w3.org/2000/svg" width="512" height="512">
<path d="M0 0 C0.96574331 -0.00679667 0.96574331 -0.00679667 1.95099658 -0.01373065 C4.10035462 -0.02635324 6.24945857 -0.0247557 8.39884949 -0.02310181 C9.94324061 -0.02908844 11.48762873 -0.0358943 13.03201294 -0.04345703 C17.22221905 -0.06111142 21.41234346 -0.0658122 25.60258317 -0.0670886 C28.22236557 -0.06851118 30.84212727 -0.07278283 33.46190453 -0.07808304 C42.6069152 -0.0965821 51.7518676 -0.10475389 60.89689636 -0.10317993 C69.41239357 -0.10197886 77.92763718 -0.12307478 86.44307023 -0.15466726 C93.76129432 -0.18084749 101.07943567 -0.19154648 108.39770621 -0.19026911 C112.765328 -0.18975995 117.13272443 -0.19541748 121.50029945 -0.21662521 C125.61015651 -0.23603691 129.71957392 -0.23611227 133.82944679 -0.22159195 C135.33383834 -0.21950631 136.83825762 -0.22419021 138.34260178 -0.23631287 C147.49883263 -0.30529126 154.50132179 -0.07287525 161.69645691 6.23226929 C162.23528503 6.88324585 162.77411316 7.53422241 163.32926941 8.20492554 C163.88356628 8.85332397 164.43786316 9.50172241 165.00895691 10.16976929 C168.85508002 15.75184526 168.77490554 20.96931331 168.79020691 27.53695679 C168.79686371 28.53192673 168.80352051 29.52689667 168.81037903 30.55201721 C168.82048839 32.65415605 168.82519658 34.75632687 168.82487488 36.85848999 C168.82924018 40.05849726 168.86555702 43.25711592 168.90348816 46.45687866 C168.9093584 48.50440001 168.9133264 50.55192788 168.91520691 52.59945679 C168.92957794 53.54867508 168.94394897 54.49789337 168.95875549 55.47587585 C168.91522619 61.8724393 167.53473081 65.68530563 164.45426941 71.26742554 C164.94581024 73.9963972 164.94581024 73.9963972 166.45426941 76.26742554 C169.46933655 82.38495306 168.57927597 88.57957445 168.45426941 95.26742554 C173.73426941 95.59742554 179.01426941 95.92742554 184.45426941 96.26742554 C184.43332214 93.69365112 184.41237488 91.11987671 184.39079285 88.46810913 C184.32447485 79.9585652 184.2803148 71.44900977 184.24702072 62.93927574 C184.22615774 57.78045339 184.19786344 52.62189612 184.1525116 47.46322632 C184.10900817 42.48357162 184.0851226 37.50417167 184.07476044 32.52434158 C184.06737717 30.62573868 184.05295927 28.72714951 184.03134918 26.82865524 C184.00225533 24.16650151 183.99831589 21.50539661 184.00016785 18.84310913 C183.98578674 18.06051727 183.97140564 17.27792542 183.95658875 16.47161865 C183.9955059 11.29178764 184.95354098 8.31624966 188.45426941 4.26742554 C192.97853528 0.45126932 196.15859961 -0.23601539 202.01676941 -0.25015259 C202.74927917 -0.25716187 203.48178894 -0.26417114 204.23649597 -0.27139282 C206.64281323 -0.28890843 209.04794149 -0.27737401 211.45426941 -0.26382446 C213.13526127 -0.26652125 214.81625161 -0.27040523 216.49723816 -0.27542114 C220.01431684 -0.28130744 223.53098821 -0.27278155 227.04801941 -0.25405884 C231.5472913 -0.23126947 236.04560868 -0.24439727 240.54484558 -0.26834869 C244.01423788 -0.28283037 247.48340535 -0.2781899 250.95280457 -0.26783752 C252.61133437 -0.26517677 254.26988485 -0.26841703 255.9283905 -0.27775574 C258.25006362 -0.28796093 260.57020952 -0.27236725 262.89176941 -0.25015259 C264.21048035 -0.24697021 265.52919128 -0.24378784 266.88786316 -0.24050903 C272.38142277 0.5418945 275.22586114 2.84669007 278.80088806 6.98144531 C280.89633641 11.14600289 280.99270888 14.25360336 280.90837097 18.84310913 C280.90895508 19.68279236 280.90953918 20.52247559 280.91014099 21.38760376 C280.9073668 24.14745234 280.87630691 26.90620446 280.84489441 29.66586304 C280.83742964 31.58542287 280.83173782 33.50499035 280.82774353 35.42456055 C280.81250579 40.46517146 280.77323994 45.50531786 280.72892761 50.54574585 C280.6879348 55.69379392 280.66972395 60.84191739 280.64958191 65.99008179 C280.60674394 76.08273326 280.5385151 86.1750407 280.45426941 96.26742554 C281.48487488 96.25002319 282.51548035 96.23262085 283.57731628 96.21469116 C284.94254657 96.20061662 286.30778128 96.18696715 287.67301941 96.17367554 C288.68960632 96.154823 288.68960632 96.154823 289.72673035 96.1355896 C296.56776085 96.08565507 300.52296581 97.47042469 305.41520691 102.13851929 C310.50539014 107.63383955 312.70184824 111.97205019 312.71153831 119.57627583 C312.71798721 120.85622026 312.7244361 122.13616469 312.73108041 123.45489532 C312.72813821 124.87314411 312.72500277 126.29139251 312.72169495 127.7096405 C312.72543142 129.21793349 312.73003294 130.72622454 312.73542559 132.23451251 C312.74767135 136.38076905 312.74739327 140.526945 312.74503684 144.67321551 C312.74462907 149.1443644 312.755664 153.61548732 312.76515198 158.08662415 C312.78177159 166.84706143 312.78726196 175.60747181 312.78837673 184.36792354 C312.78932675 191.48825895 312.79343474 198.60858547 312.79977798 205.72891808 C312.81739301 225.91239194 312.82661645 246.09584452 312.82511704 266.27932612 C312.82503712 267.3676377 312.82495721 268.45594927 312.82487488 269.57723999 C312.82479312 270.66687901 312.82471136 271.75651802 312.82462712 272.8791764 C312.82381414 290.54004093 312.84295403 308.20082018 312.87115161 325.86166004 C312.89987025 343.99178201 312.91369247 362.12186237 312.91196406 380.25200766 C312.9112998 390.43227627 312.91680761 400.61245549 312.93832016 410.79270363 C312.95651852 419.46021681 312.96089036 428.12760009 312.94730131 436.79512409 C312.94076487 441.21739778 312.94067881 445.63942214 312.95800781 450.06167221 C312.97371379 454.11138633 312.97090045 458.16065292 312.95343955 462.21035596 C312.95036417 463.67400198 312.95402234 465.13768119 312.9651597 466.60128806 C313.03025283 475.76353796 312.73210105 482.38576478 306.48942566 489.50961304 C305.8384491 490.04844116 305.18747253 490.58726929 304.51676941 491.14242554 C303.86837097 491.69672241 303.21997253 492.25101929 302.55192566 492.82211304 C298.3554957 495.71350798 294.69977784 496.51763243 289.64517498 496.52469444 C288.47669921 496.53114334 287.30822343 496.53759223 286.1043393 496.54423654 C284.82478374 496.54113934 283.54522817 496.53804213 282.22689819 496.53485107 C280.8505986 496.53858807 279.47430113 496.54318978 278.09800702 496.54858172 C274.31659868 496.56082115 270.53527875 496.56055015 266.75385511 496.55819297 C262.67534671 496.55778504 258.59686675 496.56882167 254.51837158 496.57830811 C246.52796487 496.59492428 238.53758766 496.60041793 230.54716512 496.60153286 C224.05230617 496.60248305 217.55745696 496.60659188 211.06260109 496.61293411 C192.64992771 496.63054826 174.23727764 496.63977272 155.82459577 496.63827316 C154.83186805 496.63819325 153.83914033 496.63811334 152.81632996 496.63803101 C151.32542094 496.63790836 151.32542094 496.63790836 149.80439255 496.63778324 C133.69549084 496.63697031 117.58668263 496.65610939 101.47780796 496.68430774 C84.93874287 496.71303076 68.39972339 496.72684835 51.86063272 496.72512019 C42.57462225 496.72445608 33.2887098 496.72995739 24.00272179 496.75147629 C16.09643906 496.76968043 8.19029877 496.77404175 0.28400417 496.76045744 C-3.74942712 496.75392387 -7.78258509 496.75382443 -11.81599045 496.77116394 C-15.51043796 496.78688284 -19.20439515 496.78404356 -22.89883061 496.76659568 C-24.86409178 496.76207067 -26.82936807 496.77719244 -28.79457027 496.79307497 C-36.93226873 496.72944554 -42.49459738 495.81746039 -48.78791809 490.30258179 C-49.32674622 489.65160522 -49.86557434 489.00062866 -50.42073059 488.32992554 C-50.97502747 487.6815271 -51.52932434 487.03312866 -52.10041809 486.36508179 C-54.7544038 482.51321604 -55.79788505 479.04207771 -55.77278137 474.38534546 C-55.77263031 473.44474777 -55.77247925 472.50415009 -55.77232361 471.53504944 C-55.76200104 470.53278824 -55.75167847 469.53052704 -55.74104309 468.49789429 C-55.7382132 467.46175491 -55.7353833 466.42561554 -55.73246765 465.358078 C-55.72129513 462.05690847 -55.69619564 458.75601273 -55.67073059 455.45492554 C-55.66069702 453.213393 -55.65157183 450.97185621 -55.64338684 448.73031616 C-55.62136538 443.24259294 -55.5879168 437.7550288 -55.54573059 432.26742554 C-56.19861053 432.27331696 -56.85149048 432.27920837 -57.52415466 432.28527832 C-60.52352141 432.30887187 -63.52286854 432.32336489 -66.52229309 432.33773804 C-67.54911194 432.34716431 -68.57593079 432.35659058 -69.63386536 432.36630249 C-100.63797602 432.47751692 -128.69057212 417.47342089 -150.54573059 396.26742554 C-163.27652953 383.57978185 -172.49446426 367.42564858 -178.52619934 350.54867554 C-179.47920327 348.11297253 -179.47920327 348.11297253 -181.5740509 345.96420288 C-184.94778261 340.92060968 -184.13515678 334.6688178 -184.11213684 328.83773804 C-184.11833542 327.53343842 -184.124534 326.22913879 -184.13092041 324.88531494 C-184.14130098 322.12985522 -184.13679942 319.37491262 -184.12214661 316.61947632 C-184.10498539 313.10660635 -184.12842961 309.59537627 -184.16363621 306.08268929 C-184.19102003 302.70927879 -184.18086613 299.33625423 -184.17463684 295.96273804 C-184.18789505 294.71042389 -184.20115326 293.45810974 -184.21481323 292.16784668 C-184.14623565 285.70425102 -183.78697606 281.15183906 -179.78712463 275.93077087 C-177.58529014 272.98053026 -176.52201189 269.50076479 -175.23323059 266.07992554 C-163.57720332 236.59095188 -139.5664694 213.71398563 -110.82307434 201.02133179 C-96.52534704 194.99900515 -82.39123747 191.89511496 -66.85823059 192.14242554 C-65.763172 192.15144897 -64.6681134 192.16047241 -63.53987122 192.16976929 C-60.87491705 192.193044 -58.21044925 192.22573419 -55.54573059 192.26742554 C-55.55461304 191.29547241 -55.56349548 190.32351929 -55.57264709 189.32211304 C-55.65389572 180.14179712 -55.71377392 170.96155459 -55.75297928 161.78096008 C-55.77381315 157.06161459 -55.80205364 152.34256043 -55.8474884 147.62338257 C-55.89109654 143.06516677 -55.91489927 138.5072304 -55.92523956 133.94882202 C-55.93260415 132.21375127 -55.94698543 130.47869501 -55.96865082 128.7437439 C-55.99788471 126.30469262 -56.0016784 123.86678135 -55.99983215 121.42758179 C-56.01421326 120.71763565 -56.02859436 120.00768951 -56.04341125 119.27622986 C-55.99120225 112.86040239 -53.76180336 107.79630381 -49.58088684 103.02523804 C-48.92991028 102.48640991 -48.27893372 101.94758179 -47.60823059 101.39242554 C-46.95983215 100.83812866 -46.31143372 100.28383179 -45.64338684 99.71273804 C-40.90089713 96.44510081 -36.38099549 95.9018444 -30.73323059 95.64242554 C-30.0403595 95.60375366 -29.3474884 95.56508179 -28.63362122 95.52523804 C-26.93806045 95.43168986 -25.24193347 95.3485019 -23.54573059 95.26742554 C-23.59213684 94.34961304 -23.63854309 93.43180054 -23.68635559 92.48617554 C-24.01749381 81.22747624 -24.01749381 81.22747624 -21.42073059 76.70492554 C-19.17769783 73.49934794 -19.17769783 73.49934794 -20.17073059 70.57992554 C-20.62448059 69.81680054 -21.07823059 69.05367554 -21.54573059 68.26742554 C-24.15606696 63.358533 -23.86903813 58.41891742 -23.88166809 52.99789429 C-23.89165329 51.50543938 -23.89165329 51.50543938 -23.90184021 49.98283386 C-23.91194957 47.88069502 -23.91665776 45.77852421 -23.91633606 43.67636108 C-23.92070136 40.47635382 -23.9570182 37.27773516 -23.99494934 34.07797241 C-24.00081958 32.03045106 -24.00478759 29.98292319 -24.00666809 27.93539429 C-24.02103912 26.98617599 -24.03541016 26.0369577 -24.05021667 25.05897522 C-24.00102661 17.83057139 -22.38612203 12.50874698 -17.58088684 7.02523804 C-16.604422 6.21699585 -16.604422 6.21699585 -15.60823059 5.39242554 C-14.95983215 4.83812866 -14.31143372 4.28383179 -13.64338684 3.71273804 C-9.18858757 0.64332327 -5.36031972 0.01562072 0 0 Z " fill="#010101" transform="translate(191.5457305908203,7.732574462890625)"/>
<path d="M0 0 C110.88 0 221.76 0 336 0 C336.061875 49.066875 336.12375 98.13375 336.1875 148.6875 C336.21481201 164.19967529 336.24212402 179.71185059 336.27026367 195.6940918 C336.28381348 214.58752441 336.28381348 214.58752441 336.28633118 223.42292786 C336.28913429 229.61440936 336.30016199 235.80581011 336.31672668 241.99726868 C336.33579163 249.1337781 336.34451513 256.27020979 336.34033485 263.40674489 C336.33852366 267.05921707 336.34144158 270.71151538 336.35764539 274.36395586 C336.37487468 278.27120201 336.36900021 282.1782149 336.36076355 286.085495 C336.37387054 287.80241153 336.37387054 287.80241153 336.38724232 289.55401325 C336.3782834 291.12651498 336.3782834 291.12651498 336.36914349 292.73078442 C336.37085223 294.08581641 336.37085223 294.08581641 336.37259549 295.4682228 C335.91206722 298.59750105 334.8827643 300.47388352 333 303 C329.9122933 304.02923557 327.80211839 304.1273287 324.56638432 304.13142776 C323.4307744 304.13526891 322.29516449 304.13911005 321.12514216 304.1430676 C319.87205096 304.14220112 318.61895977 304.14133463 317.32789612 304.14044189 C315.98759673 304.14302501 314.64729812 304.14603802 313.30700058 304.1494453 C309.61598573 304.1575246 305.92499031 304.15930538 302.23396766 304.16004276 C298.2563963 304.16189166 294.27883506 304.16943807 290.30126953 304.17617798 C281.60104424 304.18976753 272.90082356 304.19578674 264.20058942 304.20018864 C258.77104866 304.20294951 253.34150969 304.20718652 247.91197014 304.21169281 C232.88686135 304.22388534 217.86175399 304.2341853 202.83664036 304.2375679 C201.39384729 304.23789725 201.39384729 304.23789725 199.92190688 304.23823325 C198.47561895 304.23856067 198.47561895 304.23856067 197.00011307 304.2388947 C195.04621796 304.23933817 193.09232285 304.23978473 191.13842773 304.24023438 C189.68462165 304.24056652 189.68462165 304.24056652 188.20144575 304.24090537 C172.48742478 304.24485567 156.77345013 304.2623168 141.05944706 304.2855939 C124.93631398 304.30928486 108.81320417 304.32176869 92.6900534 304.32293582 C83.63330974 304.32385375 74.57662644 304.32963584 65.51989937 304.34775543 C57.8100053 304.36312588 50.10019024 304.36829495 42.39028377 304.36001733 C38.45461496 304.35610019 34.51910543 304.35709198 30.58345604 304.37107468 C26.9829667 304.38375001 23.38275736 304.38267272 19.78226876 304.37048396 C17.85770186 304.36758109 15.93313041 304.37951073 14.00860125 304.39190602 C12.87038359 304.38531618 11.73216593 304.37872633 10.55945683 304.3719368 C9.08326519 304.37283243 9.08326519 304.37283243 7.57725149 304.37374616 C4.54095714 303.93343083 3.18867338 303.12386951 1 301 C0.05662624 298.16987873 -0.12172829 296.45700082 -0.11352539 293.52856445 C-0.11344986 292.62785721 -0.11337433 291.72714996 -0.11329651 290.79914856 C-0.10555458 289.34589424 -0.10555458 289.34589424 -0.09765625 287.86328125 C-0.0962413 286.86870407 -0.09482635 285.87412689 -0.09336853 284.84941101 C-0.08776761 281.67041018 -0.07521496 278.49147957 -0.0625 275.3125 C-0.05748512 273.15820414 -0.05292219 271.00390718 -0.04882812 268.84960938 C-0.03779788 263.56638226 -0.02105886 258.28319615 0 253 C0.56101913 252.83886215 1.12203827 252.6777243 1.70005798 252.51170349 C4.29037377 251.76341446 6.87756683 251.00482031 9.46484375 250.24609375 C10.34700562 249.99291382 11.22916748 249.73973389 12.13806152 249.47888184 C34.36804586 242.92198339 56.4699341 228.66121844 69.73828125 209.50390625 C70.15464844 209.00761719 70.57101563 208.51132812 71 208 C71.66 208 72.32 208 73 208 C74.34529989 209.55946198 75.62503002 211.17563455 76.875 212.8125 C84.5613957 222.38052537 92.9432657 229.9413911 103.796875 235.7578125 C106 238 106 238 106.421875 241.76953125 C106.31681521 243.51552488 106.17031902 245.25916033 106 247 C105.85062988 248.75231934 105.85062988 248.75231934 105.69824219 250.54003906 C105.33371437 254.55185343 104.92317011 258.55658427 104.5 262.5625 C104.35505104 263.96675382 104.21051655 265.37105049 104.06640625 266.77539062 C103.71499949 270.18403622 103.35942101 273.59219173 103 277 C103.95253662 276.51587646 103.95253662 276.51587646 104.92431641 276.02197266 C107.82240399 274.5520508 110.72365372 273.08847858 113.625 271.625 C114.62402344 271.11710937 115.62304688 270.60921875 116.65234375 270.0859375 C117.62558594 269.59609375 118.59882813 269.10625 119.6015625 268.6015625 C120.93695068 267.92601318 120.93695068 267.92601318 122.29931641 267.23681641 C133.21040895 262.23992662 146.12711154 262.53151109 157.421875 266.3984375 C161.42865457 268.88749754 162.11643616 271.95267298 163.2578125 276.37109375 C164.60580295 281.14581782 167.77554342 283.1929718 171.75 285.8125 C177.86387763 288.04641683 183.6973379 287.69252635 189.75 285.203125 C193.85184516 283.00977724 197.59705924 280.26665633 201.36328125 277.546875 C202.23339844 277.03640625 203.10351562 276.5259375 204 276 C207 277 207 277 209.0625 279.25 C214.08581601 284.37796843 220.40510124 287.27457315 227.5625 287.6875 C237.20123719 287.25051062 249.83347658 283.67707707 256.77734375 276.640625 C262.46073769 269.01434559 263.73258871 261.33909723 263 252 C262.06083925 247.00063618 260.79875264 242.10420643 259.5 237.1875 C258.83470787 234.64146592 258.18104171 232.09306967 257.53125 229.54296875 C257.23798828 228.42946045 256.94472656 227.31595215 256.64257812 226.16870117 C255.99392319 222.97003383 255.73349934 220.25182059 256 217 C257.59425933 214.632056 259.1363399 212.62846237 261 210.5 C281.45869709 185.75258553 289.32983515 153.67839101 287 122 C282.78104644 90.451275 266.27050284 60.58860118 241 41 C214.45626095 22.06129194 182.36761204 12.75021953 149.86767578 17.92407227 C146.5559875 18.53150783 143.28271401 19.24996439 140 20 C138.44345703 20.30744141 138.44345703 20.30744141 136.85546875 20.62109375 C113.77761625 25.59503519 87.84058764 41.52693622 74.8046875 61.3359375 C73.91136719 62.65464844 73.91136719 62.65464844 73 64 C72.34 64 71.68 64 71 64 C69.54597658 62.3623728 68.16151322 60.66265804 66.8125 58.9375 C49.52128811 37.49421196 26.41240132 25.60310033 0 19 C0 12.73 0 6.46 0 0 Z " fill="#E5E8EC" transform="translate(152,184)"/>
<path d="M0 0 C12.37996123 9.61673934 21.9245824 21.35426671 27.25 36.25 C27.54777344 37.06855469 27.84554687 37.88710938 28.15234375 38.73046875 C33.99421892 57.81751712 30.24893805 77.82485471 21.09765625 95.09765625 C18.50447184 99.52196877 15.66673442 103.43129683 12.25 107.25 C11.59515625 107.99765625 10.9403125 108.7453125 10.265625 109.515625 C-1.47738269 122.11578653 -19.29057007 130.79173951 -36.6328125 131.5859375 C-56.65531387 131.93321432 -74.50454302 126.89067204 -89.75 113.25 C-90.87148437 112.26773438 -90.87148437 112.26773438 -92.015625 111.265625 C-104.61578653 99.52261731 -113.29173951 81.70942993 -114.0859375 64.3671875 C-114.42449704 44.95705363 -109.75033098 26.24668047 -96.25 11.6875 C-94.44967375 9.83599697 -92.60966046 8.0435392 -90.75 6.25 C-90.11707031 5.58613281 -89.48414062 4.92226563 -88.83203125 4.23828125 C-65.53826923 -18.6441119 -25.65960534 -17.8642822 0 0 Z " fill="#68D5F2" transform="translate(169.75,260.75)"/>
<path d="M0 0 C0.98266389 0.00027238 1.96532779 0.00054477 2.97776937 0.00082541 C4.11674469 -0.01097993 5.25572 -0.02278527 6.42920971 -0.03494835 C8.29908479 -0.01617158 8.29908479 -0.01617158 10.20673513 0.00298452 C11.5480556 -0.00134485 12.8893705 -0.00786119 14.23067093 -0.01637554 C17.91547064 -0.03338262 21.59959179 -0.01917567 25.28435588 0.00013924 C29.2585244 0.01555303 33.23260905 0.00216781 37.20678091 -0.00760508 C44.99173194 -0.02214114 52.77642243 -0.00988812 60.5613488 0.01150817 C69.62442627 0.03550421 78.68744386 0.03380465 87.75054604 0.03120226 C103.91987515 0.02751092 120.0890814 0.04834764 136.25837088 0.0824523 C151.95338945 0.11554439 167.64827906 0.12971072 183.34333181 0.12346792 C200.42825859 0.11670573 217.51313132 0.11915928 234.59805012 0.13882732 C235.50128406 0.13986681 236.40451801 0.1409063 237.33512267 0.14197728 C239.14929308 0.1440682 240.96346346 0.14617917 242.77763382 0.14831045 C249.09721125 0.15520958 255.41677204 0.15587477 261.73635244 0.15442801 C269.43631255 0.15298912 277.13616741 0.16266417 284.83609259 0.18637437 C288.76580707 0.19824424 292.69537476 0.20535297 296.62510633 0.1995368 C300.22127812 0.19437153 303.81713959 0.20302968 307.41325825 0.2228114 C309.33299271 0.22980939 311.2527633 0.22209504 313.17249298 0.21389008 C314.88095595 0.22747504 314.88095595 0.22747504 316.62393332 0.24133444 C317.60659721 0.24290564 318.5892611 0.24447684 319.60170269 0.24609566 C322.80380684 0.69494546 324.69726417 1.73627951 327.30085135 3.62444448 C334.01071142 17.04416463 328.30085135 33.62074124 328.30085135 48.62444448 C217.42085135 48.62444448 106.54085135 48.62444448 -7.69914865 48.62444448 C-7.69914865 1.7811879 -7.69914865 1.7811879 0 0 Z " fill="#CBD0D8" transform="translate(159.69914865493774,119.3755555152893)"/>
<path d="M0 0 C12.37996123 9.61673934 21.9245824 21.35426671 27.25 36.25 C27.54777344 37.06855469 27.84554687 37.88710938 28.15234375 38.73046875 C30.23463516 45.53390012 30.53101183 52.12688446 30.5625 59.1875 C30.56797852 60.09983398 30.57345703 61.01216797 30.57910156 61.95214844 C30.53058276 66.47108956 30.39617864 70.15430451 28.25 74.25 C27.26 73.198125 27.26 73.198125 26.25 72.125 C18.11867612 64.08503931 10.71381456 60.21008398 -0.8125 59.75 C-15.30767762 60.08239191 -28.62699646 66.61425467 -41.75 72.25 C-42.55050781 71.45335937 -42.55050781 71.45335937 -43.3671875 70.640625 C-49.82155432 64.52125992 -56.19894214 60.20874165 -65.3125 59.8125 C-73.60902621 60.26530337 -80.86899791 63.35699586 -86.75 69.25 C-94.52727334 79.20173547 -98.26462022 89.7029328 -98.75 102.25 C-108.85590433 93.3197266 -112.94955426 77.89524427 -113.92138672 64.97070312 C-114.99190829 46.30324518 -110.19423224 27.54670141 -97.66943359 13.21826172 C-95.43779631 10.81159406 -93.11274941 8.52874054 -90.75 6.25 C-90.11707031 5.58613281 -89.48414063 4.92226563 -88.83203125 4.23828125 C-65.53826923 -18.6441119 -25.65960534 -17.8642822 0 0 Z " fill="#68D4F2" transform="translate(361.75,260.75)"/>
<path d="M0 0 C2.9375 1.5 2.9375 1.5 5 3 C1.2971891 6.25847359 -0.69639395 6.48468398 -6 8 C-4.02 12.62 -2.04 17.24 0 22 C6.29511437 19.98230995 12.35265972 17.68117216 18.41796875 15.05859375 C19.27884598 14.69024918 20.13972321 14.3219046 21.02668762 13.94239807 C23.74842291 12.7774795 26.46812473 11.60791602 29.1875 10.4375 C31.91776467 9.26394192 34.64847987 8.09147909 37.38044739 6.92189026 C39.07214589 6.1975262 40.76286549 5.47087024 42.45243835 4.74156189 C51.27343031 0.96171262 59.77236011 -2.16361388 69.4140625 0.72265625 C73.75928628 2.73252568 76.38686283 4.90539924 79 9 C80.36275112 12.95458072 81.30001052 16.99180645 82.25 21.0625 C82.54519531 22.28332275 82.84039062 23.50414551 83.14453125 24.76196289 C85.92128708 36.30991969 88.4669377 47.91363953 91.00097656 59.5168457 C92.60657397 66.85168482 94.2553602 74.16892153 96.0625 81.45703125 C96.22717773 82.12351181 96.39185547 82.78999237 96.56152344 83.47666931 C97.33371675 86.59340278 98.11752179 89.70655338 98.91796875 92.81616211 C102.54738734 107.31786194 102.54738734 107.31786194 99.125 113.25 C94.67133053 117.86768562 88.06960329 120.1361073 81.75 120.5 C77.29171691 119.90556225 75.3273576 119.02487055 72 116 C67.54671262 108.92582264 66.89866214 101.83735366 66.078125 93.6484375 C65.92815596 92.26163324 65.77690844 90.87496671 65.62445068 89.48843384 C65.30952208 86.59637858 65.00443882 83.7035293 64.70751953 80.80957031 C64.32813543 77.11187527 63.93262969 73.41614902 63.53081131 69.72083092 C63.14579778 66.17639258 62.7674799 62.63125142 62.390625 59.0859375 C62.31917519 58.41645458 62.24772537 57.74697166 62.17411041 57.05720139 C61.97218715 55.15097826 61.77554189 53.2441983 61.57910156 51.33740234 C61.46681213 50.25566742 61.35452271 49.1739325 61.23883057 48.05941772 C61.00372563 45.04772531 61 42.0208551 61 39 C53.08 39.99 53.08 39.99 45 41 C45.25394531 42.78019531 45.50789063 44.56039062 45.76953125 46.39453125 C47.56424341 59.10182803 49.28839236 71.81197954 50.75 84.5625 C50.87737549 85.63540283 51.00475098 86.70830566 51.13598633 87.8137207 C51.47681243 90.87351268 51.74804059 93.93173273 52 97 C52.12012451 98.06226807 52.24024902 99.12453613 52.36401367 100.21899414 C52.90605594 107.8128598 52.90605594 107.8128598 50.48193359 110.98901367 C48.34858562 112.7002705 46.21405 114.00666946 43.8125 115.3125 C43.04357422 115.79138672 42.27464844 116.27027344 41.48242188 116.76367188 C35.94873173 120.04588637 35.94873173 120.04588637 32.01171875 119.85546875 C30 119 30 119 29 118 C28.90474633 115.07805335 28.87447264 112.17979671 28.88647461 109.25756836 C28.88632858 108.3405867 28.88618256 107.42360504 28.8860321 106.47883606 C28.8867316 103.43248164 28.89452572 100.38618755 28.90234375 97.33984375 C28.9042078 95.23377007 28.90563176 93.12769597 28.90663147 91.0216217 C28.91045769 85.46657117 28.92028886 79.91154659 28.93133545 74.35650635 C28.94154733 68.6927526 28.94612861 63.02899467 28.95117188 57.36523438 C28.96191104 46.24347815 28.9789887 35.12174123 29 24 C23.72 24 18.44 24 13 24 C13 48.75 13 73.5 13 99 C10.03 98.34 7.06 97.68 4 97 C1.1589745 96.70575277 1.1589745 96.70575277 -1.41015625 96.734375 C-2.33763672 96.73179687 -3.26511719 96.72921875 -4.22070312 96.7265625 C-5.62739258 96.73816406 -5.62739258 96.73816406 -7.0625 96.75 C-8.47499023 96.73839844 -8.47499023 96.73839844 -9.91601562 96.7265625 C-15.61975645 96.7424393 -20.52976976 97.37632742 -26 99 C-26.17204102 90.91348817 -25.6321812 82.93961512 -24.9765625 74.8828125 C-24.86905385 73.53581296 -24.76174794 72.18879723 -24.65463257 70.84176636 C-24.43029676 68.03279808 -24.20299507 65.2240895 -23.97363281 62.41552734 C-23.68280276 58.85044836 -23.40022915 55.28477096 -23.12001991 51.71884346 C-22.9006041 48.94040145 -22.67630614 46.16236882 -22.45066452 43.38442612 C-22.29382739 41.44183076 -22.14130699 39.4988884 -21.98892212 37.55593872 C-19.81650942 11.29852818 -19.81650942 11.29852818 -10.625 2.4375 C-7.08912202 -0.32970885 -4.49825985 -0.74970998 0 0 Z " fill="#EC7183" transform="translate(299,336)"/>
<path d="M0 0 C1.75341665 1.53523734 3.48196611 3.0992375 5.1875 4.6875 C5.67557129 5.13464355 6.16364258 5.58178711 6.66650391 6.04248047 C21.40640983 19.65178188 31.78214985 36.29330386 37.1875 55.6875 C37.4865625 56.71746094 37.785625 57.74742187 38.09375 58.80859375 C44.92131569 85.64472 38.43069777 113.95443332 25.1875 137.6875 C22.28570057 142.37982248 18.88203394 146.59338224 15.1875 150.6875 C14.69233887 151.23631836 14.19717773 151.78513672 13.68701172 152.35058594 C-4.3758352 172.00737912 -29.17520211 185.37846846 -56.17431641 186.81298828 C-86.046082 187.94505481 -112.7108647 179.05019812 -135.1015625 158.75 C-146.017989 148.49749652 -154.29551437 136.65418468 -159.8125 122.6875 C-159.00425781 122.62691406 -158.19601563 122.56632813 -157.36328125 122.50390625 C-156.29464844 122.42011719 -155.22601563 122.33632813 -154.125 122.25 C-153.06925781 122.16878906 -152.01351562 122.08757812 -150.92578125 122.00390625 C-148.16163703 121.72298319 -145.52304259 121.28593148 -142.8125 120.6875 C-142.33941406 121.49832031 -141.86632812 122.30914062 -141.37890625 123.14453125 C-129.25641794 143.44320076 -112.24723191 160.40383484 -88.8125 166.6875 C-64.46842183 172.425747 -40.67825107 170.23285226 -18.6328125 157.91015625 C4.17366339 143.42656312 16.88618949 122.39237297 22.73168945 96.25415039 C26.72452221 73.77067378 20.56359217 50.78310474 7.8359375 32.15625 C-5.34951043 13.79080467 -22.45003488 3.68159795 -43.8125 -2.3125 C-44.71355469 -2.57933594 -45.61460937 -2.84617188 -46.54296875 -3.12109375 C-67.24636872 -8.28803522 -91.22102772 -3.00135028 -109.22900391 7.76220703 C-124.46127153 17.33329551 -133.92778564 29.13924988 -142.8125 44.6875 C-148.4225 44.0275 -154.0325 43.3675 -159.8125 42.6875 C-146.56894891 14.75564678 -126.33654954 -5.99283459 -96.875 -16.6875 C-64.06708224 -26.43154097 -27.23921287 -21.59540473 0 0 Z " fill="#A7AFBA" transform="translate(191.8125,237.3125)"/>
<path d="M0 0 C1.25335648 -0.0112088 2.50671295 -0.0224176 3.79804993 -0.03396606 C5.17929541 -0.0210561 6.56053626 -0.00764202 7.94177246 0.00622559 C9.40236556 0.00272308 10.86295485 -0.00293697 12.3235321 -0.0105896 C16.28444302 -0.02482899 20.24465901 -0.00778496 24.20550346 0.01569557 C28.35249436 0.03581408 32.49945667 0.0299245 36.64648438 0.02758789 C43.61042735 0.02764145 50.5740989 0.04739183 57.53796387 0.07946777 C65.58658225 0.11636019 73.63484511 0.12514323 81.68353701 0.11817026 C89.4293882 0.11186269 97.1751176 0.12262425 104.92094421 0.14213562 C108.21589393 0.15030552 111.51078136 0.15301992 114.80574036 0.15144348 C118.68659242 0.15056384 122.56710719 0.16480184 126.44787025 0.19067001 C127.87125831 0.19782561 129.29468227 0.19991834 130.71808434 0.19655228 C132.6625838 0.19283137 134.60709037 0.20944302 136.55151367 0.22705078 C138.18302494 0.23264385 138.18302494 0.23264385 139.84749603 0.23834991 C143.1860126 0.67513452 145.07926517 1.63601755 147.77575684 3.62145996 C149.36582215 6.80159059 148.9599276 10.24116653 148.97888184 13.73474121 C148.98458191 14.54130661 148.99028198 15.34787201 148.99615479 16.17887878 C149.00560879 17.88783454 149.01214036 19.59680856 149.01599121 21.30578613 C149.02568003 23.91329037 149.05669183 26.52000074 149.08825684 29.12731934 C149.09478868 30.78812195 149.10003844 32.4489302 149.10388184 34.10974121 C149.11622864 34.88699051 149.12857544 35.66423981 149.14129639 36.46504211 C149.12270112 41.01261479 148.69925765 44.0604236 145.77575684 47.62145996 C142.53888557 48.70041705 140.19070441 48.75261528 136.78529358 48.76190186 C135.53324127 48.767612 134.28118896 48.77332214 132.99119568 48.77920532 C131.60110484 48.78045065 130.21101388 48.78157575 128.82092285 48.78259277 C127.35900751 48.78722134 125.89709339 48.79224605 124.43518066 48.79763794 C120.46207641 48.81075818 116.48898905 48.81720588 112.51586652 48.8216486 C110.03449542 48.82457925 107.55312895 48.828684 105.07176018 48.83315277 C97.31046907 48.84682522 89.54918852 48.85649375 81.7878862 48.86035466 C72.8237996 48.86483831 63.85986526 48.88240141 54.89582497 48.91135526 C47.96921683 48.93295311 41.04265159 48.94305789 34.11601013 48.94439578 C29.97767182 48.94544495 25.83947669 48.95137675 21.70117378 48.96921539 C17.80974702 48.98566393 13.91857158 48.9878674 10.0271225 48.97907639 C8.59845495 48.97830434 7.16977407 48.98267077 5.74114037 48.99253464 C3.79186897 49.00520472 1.84249711 48.99760365 -0.10679626 48.98895264 C-1.19798987 48.9904192 -2.28918348 48.99188576 -3.41344357 48.99339676 C-6.60097484 48.57160924 -7.95555636 47.86904477 -10.22424316 45.62145996 C-12.18246271 39.74680133 -11.53130602 33.02613825 -11.57434082 26.86169434 C-11.59090958 25.12164952 -11.61821206 23.38167301 -11.65637207 21.64196777 C-11.71121197 19.1269621 -11.73302177 16.61354589 -11.74768066 14.09802246 C-11.77035004 13.32391022 -11.79301941 12.54979797 -11.81637573 11.75222778 C-11.80141017 7.91527974 -11.48756237 5.95326044 -9.07678986 2.91551971 C-5.71128533 0.20893177 -4.26068898 -0.00279107 0 0 Z " fill="#EE7284" transform="translate(195.2242431640625,23.3785400390625)"/>
<path d="M0 0 C2.74911267 2.17951235 5.3350625 4.44908707 7.90234375 6.83984375 C8.39041504 7.2869873 8.87848633 7.73413086 9.38134766 8.19482422 C24.13013468 21.81232552 34.47542402 38.44363064 39.90234375 57.83984375 C40.20140625 58.835 40.50046875 59.83015625 40.80859375 60.85546875 C44.97900169 76.84203251 44.36446478 94.9966043 39.90234375 110.83984375 C39.40927734 112.64388672 39.40927734 112.64388672 38.90625 114.484375 C36.71335256 121.73080078 33.84414975 128.33261438 30.33984375 135.02734375 C29.9639209 135.74647949 29.58799805 136.46561523 29.20068359 137.20654297 C27.15735539 140.96651747 25.16146643 143.97979732 21.90234375 146.83984375 C20.3126541 143.10511435 19.17485897 139.40793065 18.21484375 135.46484375 C17.94285156 134.38460937 17.67085937 133.304375 17.390625 132.19140625 C16.31150464 124.78432409 18.90503034 118.75845683 21.64257812 112.06445312 C29.56056658 92.0042392 27.45930029 69.11702288 19.140625 49.5625 C9.83388796 29.10503373 -6.47828063 12.04058848 -27.70703125 4.015625 C-32.12298426 2.45209061 -36.58834885 1.10511113 -41.09765625 -0.16015625 C-41.99871094 -0.42699219 -42.89976562 -0.69382813 -43.828125 -0.96875 C-63.64540675 -5.91454321 -86.47207023 -1.12212671 -104.08984375 8.46875 C-119.09166735 17.62708707 -130.68867543 29.38919607 -139.09765625 44.83984375 C-141.48300983 41.85815177 -143.219761 38.85443926 -144.84765625 35.40234375 C-145.29625 34.47550781 -145.74484375 33.54867187 -146.20703125 32.59375 C-147.22964007 29.43173588 -147.15431142 27.96408861 -146.09765625 24.83984375 C-133.79300987 3.83991393 -110.17356991 -10.33245535 -87.25268555 -16.4206543 C-57.11485568 -23.75991857 -25.48515937 -17.77212249 0 0 Z " fill="#A7AFBA" transform="translate(381.09765625,235.16015625)"/>
<path d="M0 0 C21.12 0 42.24 0 64 0 C64 26.4 64 52.8 64 80 C51 80 51 80 46.95385742 77.4296875 C45.80384045 76.27765265 44.68797682 75.09068894 43.60546875 73.875 C43.00237381 73.25351074 42.39927887 72.63202148 41.77790833 71.99169922 C39.88138594 70.02309326 38.03538965 68.01421179 36.1875 66 C34.9008829 64.64808801 33.61119081 63.29909546 32.31835938 61.953125 C29.17570784 58.66807203 26.07752746 55.34609203 23 52 C19.81913482 53.50946511 17.70130094 55.07941825 15.25 57.625 C14.63640625 58.25664063 14.0228125 58.88828125 13.390625 59.5390625 C12.93171875 60.02117187 12.4728125 60.50328125 12 61 C13.35638495 64.04251032 14.87280651 66.10267832 17.2578125 68.41796875 C17.88300781 69.03220703 18.50820313 69.64644531 19.15234375 70.27929688 C19.80332031 70.90900391 20.45429688 71.53871094 21.125 72.1875 C22.42139448 73.44964531 23.71578482 74.71385362 25.0078125 75.98046875 C25.58160645 76.53629639 26.15540039 77.09212402 26.74658203 77.66479492 C28 79 28 79 28 80 C18.76 80 9.52 80 0 80 C0 53.6 0 27.2 0 0 Z " fill="#EAC09B" transform="translate(392,24)"/>
<path d="M0 0 C1.25335648 -0.0112088 2.50671295 -0.0224176 3.79804993 -0.03396606 C5.17929541 -0.0210561 6.56053626 -0.00764202 7.94177246 0.00622559 C9.40236556 0.00272308 10.86295485 -0.00293697 12.3235321 -0.0105896 C16.28444302 -0.02482899 20.24465901 -0.00778496 24.20550346 0.01569557 C28.35249436 0.03581408 32.49945667 0.0299245 36.64648438 0.02758789 C43.61042735 0.02764145 50.5740989 0.04739183 57.53796387 0.07946777 C65.58658225 0.11636019 73.63484511 0.12514323 81.68353701 0.11817026 C89.4293882 0.11186269 97.1751176 0.12262425 104.92094421 0.14213562 C108.21589393 0.15030552 111.51078136 0.15301992 114.80574036 0.15144348 C118.68659242 0.15056384 122.56710719 0.16480184 126.44787025 0.19067001 C127.87125831 0.19782561 129.29468227 0.19991834 130.71808434 0.19655228 C132.6625838 0.19283137 134.60709037 0.20944302 136.55151367 0.22705078 C138.18302494 0.23264385 138.18302494 0.23264385 139.84749603 0.23834991 C143.1860126 0.67513452 145.07926517 1.63601755 147.77575684 3.62145996 C149.18033421 6.4306147 149.02470841 8.5095653 148.77575684 11.62145996 C146.99591279 14.75737566 146.25267477 15.46248732 142.77575684 16.62145996 C140.78311742 16.72325096 138.78723426 16.76515567 136.79202271 16.77536011 C135.54141556 16.78396057 134.29080841 16.79256104 133.00230408 16.80142212 C131.61380046 16.80585718 130.22529641 16.81015555 128.83679199 16.81433105 C127.37649847 16.82223344 125.91620689 16.83050247 124.45591736 16.83911133 C119.6589036 16.86530987 114.8618812 16.88063413 110.06481934 16.89489746 C108.41344573 16.90025753 106.76207219 16.90563504 105.1106987 16.91102982 C98.2427604 16.93265298 91.37482444 16.95139077 84.50686073 16.96265221 C74.66261755 16.97890028 64.81876847 17.01210499 54.97467387 17.06905305 C48.05314869 17.10773055 41.13172904 17.12728212 34.21009862 17.13257277 C30.07552121 17.13622851 25.94136435 17.14827325 21.80690384 17.18067551 C17.91781774 17.21071899 14.02940752 17.21708175 10.14023018 17.20529175 C8.71357645 17.20507071 7.28689169 17.21340069 5.86034584 17.23094559 C3.91151501 17.25360808 1.96237812 17.24236682 0.01345825 17.22946167 C-1.07681356 17.23277182 -2.16708538 17.23608196 -3.29039574 17.23949242 C-7.21830711 16.41205446 -8.73050354 14.69569406 -11.22424316 11.62145996 C-11.84924316 8.62145996 -11.84924316 8.62145996 -11.22424316 5.62145996 C-7.69844518 1.27800404 -5.57552245 -0.00365239 0 0 Z " fill="#FBD66F" transform="translate(195.2242431640625,87.3785400390625)"/>
<path d="M0 0 C34.32 0 68.64 0 104 0 C104 5.28 104 10.56 104 16 C69.68 16 35.36 16 0 16 C0 10.72 0 5.44 0 0 Z " fill="#000000" transform="translate(224,40)"/>
<path d="M0 0 C21.12 0 42.24 0 64 0 C64 5.28 64 10.56 64 16 C42.88 16 21.76 16 0 16 C0 10.72 0 5.44 0 0 Z " fill="#000000" transform="translate(376,136)"/>
<path d="M0 0 C2.63083981 1.00740725 3.99306548 2.32178812 5.97406006 4.32313538 C6.71452576 5.06382767 7.45499146 5.80451996 8.21789551 6.56765747 C9.0065802 7.37182602 9.79526489 8.17599457 10.60784912 9.00453186 C11.42344299 9.82437057 12.23903687 10.64420929 13.0793457 11.4888916 C15.68450518 14.11085323 18.27904492 16.74305009 20.87347412 19.37562561 C22.63710781 21.15430406 24.40142252 22.93230753 26.16644287 24.70960999 C30.49338815 29.06964501 34.8116581 33.43813088 39.12347412 37.81312561 C37.51812125 41.22371964 35.71828512 43.43105045 32.99847412 46.06312561 C32.274021 46.76953186 31.54956787 47.47593811 30.80316162 48.20375061 C30.24886475 48.73484436 29.69456787 49.26593811 29.12347412 49.81312561 C25.89601888 48.39410899 23.75089305 46.68456796 21.27288818 44.18959045 C20.53242249 43.44897369 19.79195679 42.70835693 19.02905273 41.94529724 C18.24036804 41.14628998 17.45168335 40.34728271 16.63909912 39.52406311 C15.82350525 38.70563934 15.00791138 37.88721558 14.16760254 37.04399109 C11.5648285 34.43002588 8.9690965 31.80919056 6.37347412 29.18812561 C4.60961072 27.41423107 2.84529322 25.64078795 1.08050537 23.86781311 C-3.24378724 19.52147419 -7.56231918 15.1694748 -11.87652588 10.81312561 C-11.26381836 10.09866272 -11.26381836 10.09866272 -10.63873291 9.36976624 C-10.10103271 8.74263733 -9.56333252 8.11550842 -9.00933838 7.46937561 C-8.4771167 6.84869202 -7.94489502 6.22800842 -7.39654541 5.58851624 C-6.17857387 4.16591922 -4.96441713 2.74005649 -3.75152588 1.31312561 C-1.87652588 -0.18687439 -1.87652588 -0.18687439 0 0 Z " fill="#060504" transform="translate(413.87652587890625,35.18687438964844)"/>
<path d="M0 0 C5.28 0 10.56 0 16 0 C16 15.84 16 31.68 16 48 C10.72 48 5.44 48 0 48 C0 32.16 0 16.32 0 0 Z " fill="#969FAA" transform="translate(24,296)"/>
<path d="M0 0 C15.84 0 31.68 0 48 0 C48 5.28 48 10.56 48 16 C32.16 16 16.32 16 0 16 C0 10.72 0 5.44 0 0 Z " fill="#000000" transform="translate(312,136)"/>
<path d="M0 0 C2.6291887 2.38589064 4.26020894 4.9533753 6.0625 8 C8.7624794 12.45932082 11.63398804 15.52980693 15.5 19 C18.96583826 22.58625258 20.28222265 25.01111221 20.4140625 29.91796875 C20.26240931 34.6615396 19.70957439 39.31000488 19 44 C15.30926352 42.71995506 12.93796872 41.31464041 10.1875 38.55078125 C9.50429687 37.86693359 8.82109375 37.18308594 8.1171875 36.47851562 C7.41851562 35.76373047 6.71984375 35.04894531 6 34.3125 C5.30132812 33.61705078 4.60265625 32.92160156 3.8828125 32.20507812 C-6.99712697 21.21223362 -6.99712697 21.21223362 -7.00390625 15.9921875 C-5.85682405 12.57325766 -4.49725974 9.37726498 -2.9375 6.125 C-2.38964844 4.97257812 -1.84179688 3.82015625 -1.27734375 2.6328125 C-0.85582031 1.76398438 -0.43429688 0.89515625 0 0 Z " fill="#A4ACB7" transform="translate(241,360)"/>
<path d="M0 0 C5.28 0 10.56 0 16 0 C16 5.28 16 10.56 16 16 C10.72 16 5.44 16 0 16 C0 10.72 0 5.44 0 0 Z " fill="#000000" transform="translate(248,136)"/>
<path d="M0 0 C5.28 0 10.56 0 16 0 C16 5.28 16 10.56 16 16 C10.72 16 5.44 16 0 16 C0 10.72 0 5.44 0 0 Z " fill="#000000" transform="translate(216,136)"/>
<path d="M0 0 C5.28 0 10.56 0 16 0 C16 5.28 16 10.56 16 16 C10.72 16 5.44 16 0 16 C0 10.72 0 5.44 0 0 Z " fill="#000000" transform="translate(184,136)"/>
</svg>
