<?xml version="1.0" encoding="UTF-8"?>
<svg version="1.1" xmlns="http://www.w3.org/2000/svg" width="512" height="512">
<path d="M0 0 C137.28 0 274.56 0 416 0 C416 98.34 416 196.68 416 298 C411.38 298 406.76 298 402 298 C400.02 298.66 398.04 299.32 396 300 C395.57589844 299.52949219 395.15179688 299.05898438 394.71484375 298.57421875 C389.71792149 293.26979358 385.85337736 290.18631715 378.4453125 289.828125 C374.9573482 289.81408893 371.48528668 289.86948302 368 290 C367.98018066 289.25951416 367.96036133 288.51902832 367.93994141 287.75610352 C367.84390394 284.35791589 367.73454684 280.9602779 367.625 277.5625 C367.57859375 275.81549805 367.57859375 275.81549805 367.53125 274.03320312 C367.20837918 264.4816079 366.71384794 256.80892552 361 249 C361 248.34 361 247.68 361 247 C360.46375 246.731875 359.9275 246.46375 359.375 246.1875 C357.6519085 245.32595425 355.95670599 244.40790067 354.28125 243.45703125 C348.67275428 240.96659208 343.01650418 241.23251883 337 242 C334.4998298 243.07470003 332.58842263 244.23514751 330.453125 245.90625 C329 247 329 247 327 247 C323.04565607 254.60450756 320.93060418 261.23899317 320.79467773 269.82177734 C320.77473251 270.94248627 320.75478729 272.06319519 320.73423767 273.21786499 C320.71752518 274.41182892 320.70081268 275.60579285 320.68359375 276.8359375 C320.6524221 278.68767075 320.6524221 278.68767075 320.62062073 280.57681274 C320.55538164 284.50948671 320.49635948 288.44222589 320.4375 292.375 C320.39479388 295.04558857 320.35067536 297.71615149 320.30664062 300.38671875 C320.19972653 306.92441079 320.09791299 313.46216729 320 320 C318.10448978 320.05441656 316.2085208 320.09298035 314.3125 320.125 C313.25675781 320.14820313 312.20101563 320.17140625 311.11328125 320.1953125 C307.95654241 319.99727368 305.86331558 319.27711788 303 318 C300.50466117 317.68773233 300.50466117 317.68773233 298 317.75 C297.175 317.74484375 296.35 317.7396875 295.5 317.734375 C292.96162478 317.88118903 292.96162478 317.88118903 290.64532501 319.00052226 C287.9349699 320.02457019 286.05223302 320.252307 283.17479992 320.25726891 C282.22577807 320.2637178 281.27675621 320.27016669 280.29897612 320.276811 C279.2645503 320.2737138 278.23012448 320.2706166 277.16435242 320.26742554 C276.05908213 320.27195665 274.95381184 320.27648776 273.81504852 320.28115618 C270.10411443 320.2938365 266.39332643 320.29217745 262.68237305 320.29052734 C260.02469332 320.29651032 257.36702512 320.30325857 254.70935059 320.31088257 C248.23494128 320.3274896 241.76056839 320.33299198 235.28613957 320.33410732 C230.02268715 320.33505796 224.75924673 320.33916906 219.49579811 320.34550858 C204.56938786 320.36312038 189.64300637 320.37234757 174.71658566 320.37084763 C173.91203866 320.37076772 173.10749166 320.3706878 172.27856445 320.37060547 C171.47303384 320.37052371 170.66750323 320.37044195 169.8375626 320.37035771 C156.78408522 320.36954488 143.73072325 320.3886818 130.67727926 320.4168822 C117.27060698 320.44561691 103.86399098 320.45942217 90.45728713 320.45769465 C82.93184492 320.45703094 75.40652369 320.46251493 67.88110924 320.48405075 C61.47349632 320.50227033 55.06605923 320.50660363 48.65843161 320.4930319 C45.3905089 320.48650593 42.1229931 320.48854884 38.85508919 320.5037384 C35.30862405 320.51915502 31.76304434 320.50990511 28.21659851 320.49447632 C27.18886485 320.50476344 26.16113119 320.51505057 25.10225409 320.52564943 C17.73412962 320.45482396 12.35413929 318.93925447 6.7578125 314.03515625 C6.21898437 313.38417969 5.68015625 312.73320312 5.125 312.0625 C4.57070313 311.41410156 4.01640625 310.76570313 3.4453125 310.09765625 C0.67024986 306.07006534 -0.25011207 302.51055437 -0.24609566 297.65269756 C-0.2500774 296.58694059 -0.25405914 295.52118362 -0.25816154 294.42313099 C-0.25233622 293.25907073 -0.24651089 292.09501047 -0.24050903 290.89567566 C-0.24222107 289.65708298 -0.24393311 288.4184903 -0.24569702 287.1423645 C-0.2484323 283.7003286 -0.24215641 280.2585197 -0.23214546 276.81651114 C-0.22341592 273.0493096 -0.22633443 269.28211386 -0.2277813 265.51490498 C-0.22884492 258.20114344 -0.21960729 250.88743098 -0.20677864 243.57368206 C-0.1923846 235.11442413 -0.19078947 226.65519573 -0.18920898 218.19592285 C-0.1787062 195.85977412 -0.15078401 173.52363632 -0.125 151.1875 C-0.08375 101.295625 -0.0425 51.40375 0 0 Z M32 32 C32 37.28 32 42.56 32 48 C53.12 48 74.24 48 96 48 C96 42.72 96 37.44 96 32 C74.88 32 53.76 32 32 32 Z M320 32 C320 37.28 320 42.56 320 48 C341.12 48 362.24 48 384 48 C384 42.72 384 37.44 384 32 C362.88 32 341.76 32 320 32 Z M123 76 C122.33742187 76.60199219 121.67484375 77.20398438 120.9921875 77.82421875 C106.16966863 91.50919548 97.44525786 110.97471949 92 130 C91.65839844 131.12921875 91.31679687 132.2584375 90.96484375 133.421875 C86.13638481 152.55604718 87.20557583 175.18699218 93 194 C93.31348389 195.02988037 93.31348389 195.02988037 93.63330078 196.08056641 C103.38257152 226.94960565 125.64483816 252.21865384 154.11279297 267.23242188 C182.62940248 281.48706784 215.43002428 283.39743475 245.65771484 273.80224609 C274.90999217 263.78317341 300.47452715 242.67928877 314.375 214.875 C315.626937 212.26851333 316.82554275 209.64218216 318 207 C318.48210937 205.93394531 318.96421875 204.86789062 319.4609375 203.76953125 C329.51323794 179.73539473 330.65747527 150.86185648 323 126 C322.79101074 125.31341309 322.58202148 124.62682617 322.36669922 123.91943359 C312.61742848 93.05039435 290.35516184 67.78134616 261.88720703 52.76757812 C215.15873278 29.40933644 159.64531131 39.71802747 123 76 Z M32 64 C32 69.28 32 74.56 32 80 C53.12 80 74.24 80 96 80 C96 74.72 96 69.44 96 64 C74.88 64 53.76 64 32 64 Z M320 64 C320 69.28 320 74.56 320 80 C341.12 80 362.24 80 384 80 C384 74.72 384 69.44 384 64 C362.88 64 341.76 64 320 64 Z M24 240 C24 245.28 24 250.56 24 256 C45.12 256 66.24 256 88 256 C88 250.72 88 245.44 88 240 C66.88 240 45.76 240 24 240 Z M24 272 C24 277.28 24 282.56 24 288 C45.12 288 66.24 288 88 288 C88 282.72 88 277.44 88 272 C66.88 272 45.76 272 24 272 Z " fill="#9C19AD" transform="translate(32,96)"/>
<path d="M0 0 C22.17317742 16.96015986 36.72888473 39.72074954 41.9453125 67.23828125 C43.71532895 83.87974431 43.5665347 101.16347882 38.36328125 117.16796875 C38.04979736 118.13814941 38.04979736 118.13814941 37.72998047 119.12792969 C32.45971995 134.80053962 23.89884237 147.49405007 12.36328125 159.16796875 C11.72003906 159.88339844 11.07679688 160.59882813 10.4140625 161.3359375 C-4.36695257 177.39947015 -28.95282389 188.16891094 -50.65014648 189.32910156 C-85.21531709 189.78695365 -111.89551618 182.53810403 -137.13671875 158.10546875 C-157.79981634 137.4091556 -165.92022493 110.80787649 -165.95361328 82.07348633 C-165.84787496 71.96633904 -164.7608872 62.77748 -161.63671875 53.16796875 C-161.32323486 52.19778809 -161.32323486 52.19778809 -161.00341797 51.20800781 C-155.73315745 35.53539788 -147.17227987 22.84188743 -135.63671875 11.16796875 C-134.99347656 10.45253906 -134.35023438 9.73710937 -133.6875 9 C-100.00677332 -27.60313247 -38.81368102 -26.96832059 0 0 Z M-120.63671875 20.16796875 C-121.38308594 20.81378906 -122.12945312 21.45960938 -122.8984375 22.125 C-138.15709446 36.36441465 -148.01973276 57.65328406 -149.015625 78.3984375 C-149.75308058 105.24416803 -142.26989109 126.65226781 -124.3984375 146.67578125 C-120.74974472 150.51000079 -118.73409314 152.12901899 -113.63671875 154.16796875 C-109.67671875 148.72296875 -109.67671875 148.72296875 -105.63671875 143.16796875 C-106.31734375 142.48734375 -106.99796875 141.80671875 -107.69921875 141.10546875 C-108.38564453 140.41130859 -108.38564453 140.41130859 -109.0859375 139.703125 C-110.13057562 138.6690122 -111.19651836 137.65603799 -112.28125 136.6640625 C-120.3497763 129.10551077 -125.68524257 119.41575313 -129.63671875 109.16796875 C-130.11818359 107.92273438 -130.11818359 107.92273438 -130.609375 106.65234375 C-136.32096355 88.4815225 -133.56890502 67.2072282 -125.07421875 50.48046875 C-116.39170148 34.55874033 -102.41666672 23.72072215 -85.63671875 17.16796875 C-84.32574219 16.65556641 -84.32574219 16.65556641 -82.98828125 16.1328125 C-64.9081713 10.43307109 -43.57790321 13.28558987 -26.94921875 21.73046875 C-11.02749033 30.41298602 -0.18947215 44.38802078 6.36328125 61.16796875 C6.70488281 62.04195312 7.04648437 62.9159375 7.3984375 63.81640625 C13.1002721 81.90315601 10.23901343 103.21925376 1.80078125 119.85546875 C-2.23824565 127.339548 -7.61261917 133.20934851 -13.63671875 139.16796875 C-14.95671875 140.48796875 -16.27671875 141.80796875 -17.63671875 143.16796875 C-14.99671875 146.79796875 -12.35671875 150.42796875 -9.63671875 154.16796875 C4.04411061 148.69563701 13.15722375 133.01762927 19.03613281 119.94189453 C28.22703489 98.29014489 28.46501186 73.69128668 19.66796875 51.87890625 C15.54495437 42.21853785 10.23486822 34.07969932 3.36328125 26.16796875 C2.71746094 25.42160156 2.07164062 24.67523438 1.40625 23.90625 C-12.83316465 8.64759304 -34.12203406 -1.21504526 -54.8671875 -2.2109375 C-80.1498135 -2.9054544 -101.41304891 3.47160655 -120.63671875 20.16796875 Z M-27.63671875 40.16796875 C-28.30727295 40.86994385 -28.97782715 41.57191895 -29.66870117 42.29516602 C-32.1600263 44.89507354 -34.67114451 47.47508569 -37.1887207 50.04956055 C-38.27560736 51.16662498 -39.35704886 52.28901444 -40.43286133 53.41674805 C-41.98028599 55.03694234 -43.54628198 56.63697845 -45.1171875 58.234375 C-45.594478 58.74263321 -46.07176849 59.25089142 -46.56352234 59.77455139 C-47.95776367 61.17016602 -47.95776367 61.17016602 -50.63671875 63.16796875 C-53.3046875 62.99121094 -53.3046875 62.99121094 -55.63671875 62.16796875 C-63.06131453 61.54327862 -69.55612392 61.47348801 -75.63671875 66.16796875 C-80.50375798 70.78442774 -84.16115021 75.15881534 -84.97265625 82 C-85.0761566 89.8970766 -84.29766721 95.30830493 -78.765625 101.140625 C-72.37280262 107.0258887 -67.31364857 108.66405911 -58.63671875 108.47265625 C-51.1018818 107.70739937 -46.87210759 103.86890035 -42.08203125 98.265625 C-39.10992734 93.95205797 -38.37624783 90.36880511 -38.44921875 85.16796875 C-38.45888672 83.65203125 -38.45888672 83.65203125 -38.46875 82.10546875 C-38.498238 79.21850145 -38.498238 79.21850145 -39.45556641 76.8293457 C-39.63671875 74.16796875 -39.63671875 74.16796875 -37.63891602 71.48901367 C-36.67558353 70.5266291 -35.69574849 69.58058134 -34.703125 68.6484375 C-34.19120102 68.1450032 -33.67927704 67.64156891 -33.15184021 67.12287903 C-31.51450828 65.51911821 -29.857564 63.93746337 -28.19921875 62.35546875 C-27.08523106 61.27157572 -25.97258286 60.18630418 -24.86132812 59.09960938 C-22.13507342 56.4394875 -19.39104113 53.79900573 -16.63671875 51.16796875 C-17.52639219 50.07957101 -18.42383449 48.99752267 -19.32421875 47.91796875 C-20.07251953 47.01304687 -20.07251953 47.01304687 -20.8359375 46.08984375 C-22.92806925 43.85702635 -25.21520944 42.03257217 -27.63671875 40.16796875 Z M-93.63671875 141.16796875 C-93.63671875 146.44796875 -93.63671875 151.72796875 -93.63671875 157.16796875 C-72.51671875 157.16796875 -51.39671875 157.16796875 -29.63671875 157.16796875 C-29.63671875 151.88796875 -29.63671875 146.60796875 -29.63671875 141.16796875 C-50.75671875 141.16796875 -71.87671875 141.16796875 -93.63671875 141.16796875 Z " fill="#9B19AE" transform="translate(301.63671875,170.83203125)"/>
<path d="M0 0 C0.9724968 -0.00525911 0.9724968 -0.00525911 1.96463999 -0.01062447 C4.14014838 -0.01993872 6.31538909 -0.01501518 8.49090862 -0.01015663 C10.06519832 -0.01389288 11.63948616 -0.01849431 13.21377105 -0.02388728 C17.54245183 -0.0361358 21.87105543 -0.03585463 26.19974959 -0.03349853 C30.86721881 -0.03309083 35.53466313 -0.04412501 40.20212078 -0.05361366 C49.34757338 -0.07023477 58.4930002 -0.07572371 67.63846663 -0.07683842 C75.0715403 -0.07778836 82.50460545 -0.08189598 89.93767643 -0.08823967 C111.00655055 -0.10585508 132.07540429 -0.11507807 153.14428584 -0.11357872 C154.8484411 -0.11345885 154.8484411 -0.11345885 156.58702374 -0.11333656 C158.29325701 -0.11321392 158.29325701 -0.11321392 160.03395965 -0.1130888 C178.47080581 -0.11227581 196.90757028 -0.13141606 215.34439281 -0.1596133 C234.27004325 -0.18833002 253.19565384 -0.20215426 272.12132663 -0.20042574 C282.74872453 -0.19976143 293.37603681 -0.20527207 304.00341511 -0.22678185 C313.05154376 -0.24497768 322.09954798 -0.24935411 331.147687 -0.235763 C335.76438243 -0.22922529 340.38083903 -0.22914507 344.99751186 -0.2464695 C349.2248602 -0.26216984 353.45177972 -0.25936783 357.6791174 -0.24190123 C359.20736587 -0.23882462 360.73564609 -0.24248863 362.2638571 -0.25362138 C371.44138888 -0.31604346 378.47066426 -0.09850738 385.68345928 6.22211266 C386.22228741 6.87308922 386.76111553 7.52406578 387.31627178 8.19476891 C387.87056866 8.84316734 388.42486553 9.49156578 388.99595928 10.15961266 C396.82351711 21.52014929 392.44127178 33.90811699 392.44127178 48.25726891 C255.16127178 48.25726891 117.88127178 48.25726891 -23.55872822 48.25726891 C-23.55872822 13.82188123 -23.55872822 13.82188123 -17.59388447 7.01508141 C-16.94290791 6.47625328 -16.29193134 5.93742516 -15.62122822 5.38226891 C-14.97282978 4.82797203 -14.32443134 4.27367516 -13.65638447 3.70258141 C-9.194158 0.6280492 -5.36931509 0.006554 0 0 Z M-7.55872822 16.25726891 C-7.55872822 21.53726891 -7.55872822 26.81726891 -7.55872822 32.25726891 C-2.27872822 32.25726891 3.00127178 32.25726891 8.44127178 32.25726891 C8.44127178 26.97726891 8.44127178 21.69726891 8.44127178 16.25726891 C3.16127178 16.25726891 -2.11872822 16.25726891 -7.55872822 16.25726891 Z M24.44127178 16.25726891 C24.44127178 21.53726891 24.44127178 26.81726891 24.44127178 32.25726891 C29.72127178 32.25726891 35.00127178 32.25726891 40.44127178 32.25726891 C40.44127178 26.97726891 40.44127178 21.69726891 40.44127178 16.25726891 C35.16127178 16.25726891 29.88127178 16.25726891 24.44127178 16.25726891 Z M56.44127178 16.25726891 C56.44127178 21.53726891 56.44127178 26.81726891 56.44127178 32.25726891 C61.72127178 32.25726891 67.00127178 32.25726891 72.44127178 32.25726891 C72.44127178 26.97726891 72.44127178 21.69726891 72.44127178 16.25726891 C67.16127178 16.25726891 61.88127178 16.25726891 56.44127178 16.25726891 Z " fill="#C31E93" transform="translate(55.55872821807861,31.74273109436035)"/>
<path d="M0 0 C0.66 -0.0103125 1.32 -0.020625 2 -0.03125 C4.98581619 0.76185743 6.09651386 2.07838782 8 4.5 C8.39311958 7.09161088 8.54489367 9.26243149 8.51416016 11.85131836 C8.52128525 12.58514236 8.52841034 13.31896637 8.53575134 14.07502747 C8.55502481 16.49690719 8.54675402 18.91791282 8.5390625 21.33984375 C8.54896956 23.02610041 8.56091085 24.71234625 8.57479858 26.39857483 C8.60717603 30.83707272 8.61755366 35.27532387 8.62164307 39.71392822 C8.63039497 46.81458736 8.66594067 53.91504353 8.7138176 61.01553535 C8.72638996 63.49333912 8.72564564 65.97088604 8.72354126 68.44871521 C8.73012359 69.97224117 8.73713024 71.49576538 8.74462891 73.01928711 C8.73844292 74.04888046 8.73844292 74.04888046 8.73213196 75.09927368 C8.76480334 78.98722953 9.16994891 82.04306618 11 85.5 C13.79870027 86.89935013 15.90498792 86.75265405 19 86.5 C21.55949546 84.64657225 21.97918798 83.56243607 23 80.5 C23.10414838 78.40932436 23.15507159 76.31582194 23.17578125 74.22265625 C23.19962891 72.98708984 23.22347656 71.75152344 23.24804688 70.47851562 C23.2909486 67.87191052 23.32223546 65.26508787 23.34179688 62.65820312 C23.36951172 61.42134766 23.39722656 60.18449219 23.42578125 58.91015625 C23.44036377 57.77715088 23.45494629 56.64414551 23.4699707 55.47680664 C24.10781752 51.89446383 25.16905552 50.71228535 28 48.5 C30 47.96875 30 47.96875 32 48 C32.66 47.9896875 33.32 47.979375 34 47.96875 C36.94724152 48.75161103 38.09535047 50.14196689 40 52.5 C40.51416016 55.44506836 40.51416016 55.44506836 40.5390625 58.83984375 C40.56226563 60.06767578 40.58546875 61.29550781 40.609375 62.56054688 C40.61710937 64.47963867 40.61710937 64.47963867 40.625 66.4375 C40.65056893 68.96754522 40.68411143 71.49752548 40.7265625 74.02734375 C40.73252441 75.14874756 40.73848633 76.27015137 40.74462891 77.42553711 C41.00332775 80.54006341 41.57673261 82.72779628 43 85.5 C45.79870027 86.89935013 47.90498792 86.75265405 51 86.5 C53.55949546 84.64657225 53.97918798 83.56243607 55 80.5 C55.10115376 78.9931397 55.15455522 77.48275873 55.17578125 75.97265625 C55.19962891 75.09802734 55.22347656 74.22339844 55.24804688 73.32226562 C55.29091892 71.48656275 55.32222226 69.65055222 55.34179688 67.81445312 C55.55272933 61.14800653 55.55272933 61.14800653 57.79296875 57.90234375 C60.11129514 56.42928327 61.28093135 55.95751455 64 56 C64.66 55.9896875 65.32 55.979375 66 55.96875 C68.94724152 56.75161103 70.09535047 58.14196689 72 60.5 C72.51416016 63.44506836 72.51416016 63.44506836 72.5390625 66.83984375 C72.56226563 68.06767578 72.58546875 69.29550781 72.609375 70.56054688 C72.61710937 72.47963867 72.61710937 72.47963867 72.625 74.4375 C72.65056893 76.96754522 72.68411143 79.49752548 72.7265625 82.02734375 C72.73252441 83.14874756 72.73848633 84.27015137 72.74462891 85.42553711 C73.00332775 88.54006341 73.57673261 90.72779628 75 93.5 C77.79870027 94.89935013 79.90498792 94.75265405 83 94.5 C85.55949546 92.64657225 85.97918798 91.56243607 87 88.5 C87.10115376 86.9931397 87.15455522 85.48275873 87.17578125 83.97265625 C87.19962891 83.09802734 87.22347656 82.22339844 87.24804688 81.32226562 C87.29091892 79.48656275 87.32222226 77.65055222 87.34179688 75.81445312 C87.55272933 69.14800653 87.55272933 69.14800653 89.79296875 65.90234375 C92.11129514 64.42928327 93.28093135 63.95751455 96 64 C96.66 63.9896875 97.32 63.979375 98 63.96875 C100.96177768 64.7554722 102.09823457 66.11671012 104 68.5 C104.48101807 71.56256104 104.48101807 71.56256104 104.45410156 75.19628906 C104.45468567 75.86011597 104.45526978 76.52394287 104.45587158 77.20788574 C104.45309265 79.39433738 104.42201328 81.57941262 104.390625 83.765625 C104.38316184 85.28447729 104.37746926 86.80333922 104.37347412 88.32220459 C104.35822341 92.31403325 104.31894723 96.30527697 104.2746582 100.296875 C104.23369289 104.37231534 104.21546046 108.44785048 104.1953125 112.5234375 C104.15245175 120.51589302 104.08420804 128.50787368 104 136.5 C87.18869112 136.8040323 70.3782429 137.03308968 53.56481171 137.17355824 C45.75744089 137.24052263 37.95178045 137.33176359 30.14550781 137.48071289 C23.3393242 137.61051757 16.53437913 137.69420732 9.72699213 137.72315043 C6.12353785 137.74006597 2.52362563 137.7796301 -1.07868958 137.87449074 C-22.9368728 138.42789167 -22.9368728 138.42789167 -27.94289398 135.27716827 C-31.28535705 131.90084916 -32.61359822 128.01171613 -34 123.5 C-35.13386234 121.35171226 -35.13386234 121.35171226 -36.31347656 119.56494141 C-36.91643555 118.50452637 -37.51939453 117.44411133 -38.140625 116.3515625 C-38.47495544 115.76506927 -38.80928589 115.17857605 -39.15374756 114.5743103 C-40.1879275 112.75905634 -41.21905884 110.94209487 -42.25 109.125 C-43.29389528 107.29067148 -44.33840427 105.45669361 -45.38304138 103.62278748 C-46.35806385 101.90880154 -47.3296055 100.19283694 -48.30102539 98.47680664 C-49.65615063 96.1024652 -51.04471106 93.7551741 -52.44921875 91.41015625 C-54.69258505 87.20031269 -54.6922783 85.19210845 -54 80.5 C-51.28707652 77.2116079 -49.65183071 76.59148501 -45.4375 76 C-41.32525242 76.5981451 -40.64876236 77.41020711 -38 80.5 C-36.76362526 82.44267943 -35.59096296 84.4267131 -34.46875 86.4375 C-33.82292969 87.57960938 -33.17710937 88.72171875 -32.51171875 89.8984375 C-31.50319576 91.7013013 -30.49696871 93.50543491 -29.49072266 95.30957031 C-28.50955399 97.06353475 -27.52048592 98.81307281 -26.53125 100.5625 C-25.94923828 101.60535156 -25.36722656 102.64820313 -24.76757812 103.72265625 C-23.05271645 106.41716819 -21.44183874 108.44779063 -19 110.5 C-15.73129539 110.9669578 -13.90418241 111.15475278 -11.1875 109.1875 C-9.16651973 106.31558067 -8.87455874 103.77010693 -8.86869812 100.36976624 C-8.86468994 99.53000748 -8.86068176 98.69024872 -8.85655212 97.82504272 C-8.8573452 96.44803696 -8.8573452 96.44803696 -8.8581543 95.04321289 C-8.85467987 94.07384293 -8.85120544 93.10447296 -8.84762573 92.10572815 C-8.84026961 89.99898414 -8.83492346 87.89223239 -8.83133507 85.78547859 C-8.8241765 82.45298575 -8.80851542 79.12064073 -8.78999329 75.78819275 C-8.73748762 66.3126729 -8.68951883 56.83723455 -8.67407227 47.36157227 C-8.66400762 41.56783977 -8.63472366 35.77447966 -8.59275246 29.98089409 C-8.58041802 27.77089691 -8.57532563 25.5608472 -8.57755089 23.35081673 C-8.579896 20.26219857 -8.55779784 17.1746549 -8.5300293 14.08618164 C-8.53993141 12.71221222 -8.53993141 12.71221222 -8.55003357 11.31048584 C-8.45837958 5.11640105 -8.45837958 5.11640105 -6.09187317 1.93406677 C-3.83016923 0.38357389 -2.7157143 -0.04243304 0 0 Z " fill="#7514C7" transform="translate(376,351.5)"/>
<path d="M0 0 C3.23331473 1.25303784 5.88554449 2.40144995 8.5625 4.625 C9.12066406 5.07101563 9.67882812 5.51703125 10.25390625 5.9765625 C16.46076046 13.16929289 16.56765216 20.03476857 16.48101807 29.1484375 C16.48443577 30.46609321 16.48785347 31.78374891 16.49137473 33.14133358 C16.50028769 36.7833419 16.48436235 40.42487665 16.46426249 44.06682467 C16.44694844 47.99991721 16.45283698 51.93298419 16.45587158 55.86610413 C16.45796645 62.6753774 16.44544303 69.48449705 16.42292023 76.29373169 C16.39037757 86.13865027 16.3799909 95.98349476 16.37496826 105.82846129 C16.36621916 121.80218684 16.33961403 137.77583058 16.30175781 153.74951172 C16.26502776 169.264156 16.23672086 184.77877804 16.21972656 200.29345703 C16.21867567 201.25018082 16.21762477 202.20690462 16.21654204 203.19262004 C16.21132179 207.9923417 16.20626698 212.79206351 16.20129442 217.59178543 C16.15984438 257.3945809 16.08940643 297.19728505 16 337 C15.38334976 336.92386978 14.76669952 336.84773956 14.13136292 336.76930237 C13.32174606 336.67342331 12.51212921 336.57754425 11.67797852 336.47875977 C10.87570328 336.38200455 10.07342804 336.28524933 9.24684143 336.18556213 C5.86861667 335.90656132 3.05983658 336.63464727 -0.16967773 337.50610352 C-0.77368408 337.66908936 -1.37769043 337.8320752 -2 338 C-1.92964808 337.36530798 -1.85929616 336.73061596 -1.78681237 336.07669085 C-1.010586 328.45768411 -0.84781794 320.91743585 -0.84178162 313.26301575 C-0.83720552 311.90471097 -0.832204 310.54640757 -0.82681805 309.18810576 C-0.81334672 305.48464698 -0.80585085 301.78119727 -0.79939139 298.07772052 C-0.79133857 294.07309408 -0.77765784 290.06848625 -0.76467896 286.06387329 C-0.74298501 279.13522237 -0.72481486 272.20656951 -0.70907402 265.2779026 C-0.68631057 255.26035343 -0.65817693 245.24282493 -0.62875474 235.22529336 C-0.58115794 218.97043585 -0.53787246 202.71556985 -0.49731445 186.46069336 C-0.45791917 170.6755304 -0.41648336 154.89037496 -0.37231445 139.10522461 C-0.36822804 137.64443822 -0.36822804 137.64443822 -0.36405908 136.15414099 C-0.35037894 131.26832657 -0.3366588 126.38251227 -0.32291877 121.49669802 C-0.20907836 80.99781438 -0.10224167 40.49891448 0 0 Z " fill="#9F1AAB" transform="translate(464,65)"/>
<path d="M0 0 C79.86 0 159.72 0 242 0 C242.99 6.435 242.99 6.435 244 13 C244.33 13.99 244.66 14.98 245 16 C215.96296119 16.09128733 186.92593641 16.16205775 157.88878274 16.20426132 C154.45922081 16.20926403 151.02965916 16.21444133 147.60009766 16.21972656 C146.57596921 16.22130043 146.57596921 16.22130043 145.53115129 16.22290608 C134.48198456 16.24030241 123.43290123 16.27183581 112.38378394 16.30861118 C101.04294216 16.34604219 89.70216215 16.36794107 78.36125469 16.37635398 C71.99265551 16.38156945 65.62424539 16.3938307 59.25570679 16.42292023 C53.26066481 16.45008173 47.26588967 16.45844336 41.27079201 16.45243073 C39.0713843 16.45353062 36.87196762 16.46147989 34.67261314 16.4768219 C31.66666933 16.49676085 28.66172938 16.49192447 25.65576172 16.48101807 C24.78803729 16.49266943 23.92031286 16.5043208 23.02629375 16.51632524 C16.13969443 16.44891562 10.92567697 14.56937668 5.72265625 10 C5.17480469 9.34 4.62695312 8.68 4.0625 8 C3.21365234 7.01 3.21365234 7.01 2.34765625 6 C1 4 1 4 0 0 Z " fill="#7714C6" transform="translate(65,432)"/>
<path d="M0 0 C2.5 1.5 2.5 1.5 4 4 C4.791013 8.02098277 4.62153384 10.96411027 2.5 14.5 C-1.03588973 16.62153384 -3.97901723 16.791013 -8 16 C-10.5 14.5 -10.5 14.5 -12 12 C-12.791013 7.97901723 -12.62153384 5.03588973 -10.5 1.5 C-6.96411027 -0.62153384 -4.02098277 -0.791013 0 0 Z " fill="#9C1AAE" transform="translate(244,248)"/>
</svg>
